<svg xmlns="http://www.w3.org/2000/svg" viewBox="0 0 192 190"><defs><style>.cls-1{fill:#f96115;}.cls-2{fill:#f86115;}.cls-3{fill:#f9f8f7;}.cls-4{fill:#020202;}</style></defs><title>Asset 1</title><g id="Layer_2" data-name="Layer 2"><g id="Layer_2-2" data-name="Layer 2"><path class="cls-1" d="M160,190H32A32,32,0,0,1,0,158V32A32,32,0,0,1,32,0H160a32,32,0,0,1,32,32V158A32,32,0,0,1,160,190ZM40,150H152V40H40Z"/><rect class="cls-2" x="61.5" y="54.5" width="68" height="79"/><path class="cls-3" d="M73.5,121.5s8-45,51-45v-13l41,26-40,26-1-15S105.5,96.5,73.5,121.5Z"/><path class="cls-4" d="M72.78,122.7l.23-1.29c.08-.45,8.5-45.06,51-45.41V62.59l42.43,26.9-41.37,26.89-1-15.45c-2.79-.37-21.22-1.69-50.22,21ZM124.5,77C86.56,77,76,112.85,74.28,120.26,105.44,96.33,123.83,99.85,124.6,100l.37.08,1,14.53,38.63-25.11L125,64.41V77Z"/></g></g></svg>