<svg xmlns="http://www.w3.org/2000/svg" xmlns:xlink="http://www.w3.org/1999/xlink" viewBox="0 0 700 150"><defs><style>.cls-1{fill:#4f7ec9;}.cls-1,.cls-14,.cls-15,.cls-16{opacity:0;}.cls-2{fill:#ecb669;}.cls-3{fill:#e79a3d;}.cls-4{fill:#e9a542;}.cls-5{fill:#d68427;}.cls-6{fill:#e7ad47;}.cls-7{fill:#ab6724;}.cls-8{fill:#fff;}.cls-9{fill:#d3954d;}.cls-10{fill:#efc585;}.cls-11{fill:#dbdbdb;}.cls-12{fill:#d78b37;}.cls-13{fill:none;}.cls-14{fill:#768bad;}.cls-15{fill:#c69c6d;}</style><symbol id="haandklaede_af_1" data-name="haandklaede_af_1" viewBox="0 0 100 150"><rect class="cls-1" width="100" height="150"/><path class="cls-2" d="M50.22,10.85a2.42,2.42,0,0,0-2-1.33C46.62,9.37,43.55,12,43,16a34.17,34.17,0,0,0-.12,3.8,2.32,2.32,0,0,0,.12.68c.31.76,1.72,2.18,1.78,3.64,0,0,.5,2.36-1.66,1.76a2,2,0,0,0,1.75.8s-.37.64-1.4.25c0,0,.46.95,2.78.63s7.4-.65,7.4-.65.07.42,1,.49c0,0-.27-.52-.19-.57a.57.57,0,0,0,.6.07,2.08,2.08,0,0,1-.54-1.62c.06-.71,1.14-6.21,1.62-9.33a7.36,7.36,0,0,0,.08-2.06A4.82,4.82,0,0,0,56,12.69c-.17-.43-1.89-2.79-2.94-3.1a2.08,2.08,0,0,0-1.58.18A5.1,5.1,0,0,0,50.22,10.85Z"/><path class="cls-3" d="M39.3,129.36a4.81,4.81,0,0,0-.12.64,63,63,0,0,0,8,4.36c.89.12-1.1,2-3.73,1.25-.61-.17-7.8-4.28-7.73-4.87-.14-.59.53-1.57.56-1.62C36.85,128.29,39.47,128.33,39.3,129.36Z"/><path class="cls-3" d="M37,126.55c.92-8.78,1.71-20.62,4.8-26.41C43,97.72,46,98.57,46.89,99a1.78,1.78,0,0,1,.36,1.84c-.93,2.41-1.15,3.42-3.18,9.91-1.64,5.26-4.74,18.37-4.93,18.61-.66.82-2.71.77-3,.16A21.68,21.68,0,0,0,37,126.55Z"/><path class="cls-3" d="M56.06,135.73c-1.73-5.84-8-23-7.19-30.06.09-1.62,2.61-2.48,3.61-2.51s1.68.56,1.75,2c.14,1.58.59,6,1.31,11,.76,5.33,2,12.07,2.67,15.89a31,31,0,0,0,.93,3.79c.27,1.08-2.49,2.36-2.74,1.57C56.36,137.28,56.19,136.15,56.06,135.73Z"/><path class="cls-3" d="M56.56,137.33c-.14-.37,2.27-2.29,2.44-2,.07.11.2.35.21.35.39.42,8-2.3,8.55-2.4.74-.13-.46,3.15-2.55,4.14a34,34,0,0,1-7.66,1.86c-.53,0-.53-.51-.64-.87C56.88,138.28,56.66,137.58,56.56,137.33Z"/><path class="cls-4" d="M40.83,73.92c0-.19.61-6,1-7.35.89-3.55,14.55-3.62,14.91,0,.14,1.47.13,8,.06,8.29-.3,1.38-6.91,4-6.93,4-1.12.2-1.4.22-2-.17C46,77.53,41.17,76.74,40.83,73.92Z"/><path class="cls-4" d="M43.89,84.71c-.19-1.27-1.28-7.28-1-7.54,1.77-1.49,7.37,1.82,8,3.45.21.51,2.19,12.55,2.7,17.22a60.9,60.9,0,0,1,.6,8.61,2.25,2.25,0,0,1-2,1.81c-1-.12-3.11-1.29-3.3-1.94C48.94,106.31,44.3,87.42,43.89,84.71Z"/><path class="cls-4" d="M54.23,82.34c-3.24,9-7,17.88-8.12,20-.25.45-1.23,1.6-1.75,1.52a3.93,3.93,0,0,1-3-3.26c0-.39,6-22.34,6.66-23.66,1.22-2.6,8.2-2.43,8.51-.8C56.61,76.36,55.1,79.94,54.23,82.34Z"/><path class="cls-4" d="M57.39,36.25c.64.4.34,16.94.89,18.83a7.73,7.73,0,0,1,.2,1.43c0,1.62-3.67,1.9-4.29.77a36.5,36.5,0,0,0-.63-3.68c-.32-1-.89-11.24-.06-12.39C54.08,40.4,56.23,35.53,57.39,36.25Z"/><path class="cls-4" d="M38.34,37.92c-.1-.56,6.92-5.1,7.47-6.19.27-.55.14-5.4.08-7.36,1.29,1.52,4.39,4.17,6.28,3.18a19,19,0,0,0,0,4.36c.27.81,5.92,4.49,5.82,5.18-.62,4.54-2.73,7.51-2.69,11.67.14,3.27.33,7,.53,8a65,65,0,0,1,.73,9.69c-.19,1.28-10.06,3.84-14.64-.36,0,0,.37-5.31.19-10.43-.1-2.83-.26-6.22-.35-8.81C41.85,45,38.7,40,38.34,37.92Z"/><path class="cls-4" d="M38.89,37.15l0,0a6.1,6.1,0,0,1,2.15,6.32c-.65,2.35-2.68,9.67-4.07,14.2-.85,2-4.29.28-3.9-1.37C34.79,49.68,38.15,37.54,38.89,37.15Z"/><path class="cls-5" d="M46,24.37c-.07-2-.09-1.06-.09-1.06s7-4.57,6.41,3.85a1.27,1.27,0,0,1,.1.76C51.57,30,49.38,29.78,46,24.37Z"/><ellipse class="cls-5" cx="44.21" cy="44.67" rx="0.55" ry="0.3"/><ellipse class="cls-5" cx="54.52" cy="44.95" rx="0.51" ry="0.28"/><path class="cls-6" d="M55.76,17s-.84,5.26-.63,6.74a7.18,7.18,0,0,1-3,4.84c-1.89,1.06-6.32-4.84-6.32-5.47,0-.19,0-.7-.07-1.36a21.64,21.64,0,0,1,.07-5.18c0-.08,1.78-4.24,5.32-3.84C55,13.12,55.55,12.75,55.76,17Z"/><path class="cls-5" d="M43.54,20.55c-.21-.63-.63-3.37.21-4.64s2,0,2.17.44-.14,5.3-.14,5.3S43.75,21.18,43.54,20.55Z"/><path class="cls-5" d="M57.24,17.39a6.92,6.92,0,0,1-.63,4.21,1,1,0,0,1-1.46.26l.6-5.09S57,16.12,57.24,17.39Z"/><path class="cls-7" d="M45.44,20.25s-.76,0-.76-1a.62.62,0,0,1,.25-.57.77.77,0,0,1,.63,0c.07-.39.21-1.46-.36-1.6a.49.49,0,0,0-.44.05,1,1,0,0,0-.25.67h-.25a1.18,1.18,0,0,1,.35-.86.72.72,0,0,1,.65-.11c1,.24.53,2,.51,2.05l0,.15L45.59,19c-.09,0-.37-.15-.53,0a.43.43,0,0,0-.13.36c0,.69.46.72.51.72Z"/><path class="cls-7" d="M55.84,20.74a.84.84,0,0,1-.34-.08l.11-.23a.47.47,0,0,0,.34,0,.22.22,0,0,0,.11-.16c0-.14.06-.33,0-.42a.5.5,0,0,0-.45-.06l-.15,0V19.7c0-.08,0-2,1-2a.51.51,0,0,1,.37.16.83.83,0,0,1,.17.61l-.25,0a.59.59,0,0,0-.11-.42.22.22,0,0,0-.18-.08c-.54,0-.69,1.07-.72,1.63a.66.66,0,0,1,.52.15.65.65,0,0,1,.11.66.46.46,0,0,1-.25.32A.44.44,0,0,1,55.84,20.74Z"/><path class="cls-5" d="M52.18,18s.63,4,.85,4.63-1.9,1.06-2.53.22L51.13,18Z"/><circle cx="53.76" cy="18.33" r="0.53"/><path d="M53.76,19a.66.66,0,1,1,.65-.66A.66.66,0,0,1,53.76,19Zm0-1.06a.41.41,0,1,0,.4.4A.4.4,0,0,0,53.76,17.93Z"/><circle cx="48.92" cy="18.12" r="0.53"/><path d="M48.92,18.78a.67.67,0,0,1-.66-.66.66.66,0,0,1,.66-.65.65.65,0,0,1,.65.65A.66.66,0,0,1,48.92,18.78Zm0-1.06a.41.41,0,1,0,.4.4A.4.4,0,0,0,48.92,17.72Z"/><path d="M51.77,24.73a4.32,4.32,0,0,0-4.22-1A6,6,0,0,1,51.77,24.73Z"/><path d="M51.77,24.85a.11.11,0,0,1-.08,0,5.91,5.91,0,0,0-4.12-1,.12.12,0,0,1-.06-.24,4.49,4.49,0,0,1,4.35,1.05.12.12,0,0,1,0,.17A.11.11,0,0,1,51.77,24.85Z"/><path d="M54.44,17.08s-.76-.38-1.12,0l-.17-.17c.47-.48,1.37-.05,1.41,0Z"/><path d="M48.18,16.88a.14.14,0,0,1-.11-.06.14.14,0,0,1,0-.17,1.46,1.46,0,0,1,1.84,0,.12.12,0,1,1-.17.17h0a1.25,1.25,0,0,0-1.54,0Z"/><circle class="cls-8" cx="48.71" cy="17.91" r="0.16"/><circle class="cls-8" cx="53.55" cy="18.12" r="0.16"/><path class="cls-2" d="M45.9,16.15A11.8,11.8,0,0,1,46,17.57l.19,0s1.92-5.19,3.53-4.88a5.07,5.07,0,0,1,2.31.91s2-1.09,2.25-.92c0,0-4-1.74-6-.58S45.9,16.15,45.9,16.15Z"/><path class="cls-9" d="M52,13.63A4.43,4.43,0,0,0,50.22,13c-1.07-.16-2.8,1.76-3.76,3.78-.2.43-.53,1.37-.53,1.37a16.18,16.18,0,0,1,.83-1.57C49.41,12.07,52,13.63,52,13.63Z"/><path class="cls-10" d="M52,13.63s-1-1.7-2-1.86-3.81,3-4,4.12-.4,3.1-.4,3.1.71-1.76,1.17-2.71a7.29,7.29,0,0,1,2.64-2.93A1.68,1.68,0,0,1,51,13.18Z"/><path class="cls-9" d="M54.11,13.06c.74.28,1,.94,1.61,3.59,0,0-1-3-2-3.07s-1.71.05-1.71.05S53.3,12.76,54.11,13.06Z"/><path class="cls-10" d="M54.29,12c1,.46,2.62,3.77,2,6.54,0,0-1.25-5.39-2.29-5.41a4.47,4.47,0,0,0-2,.51S53.79,11.75,54.29,12Z"/><path class="cls-8" d="M56.5,65.73s-7.58,2.14-12,1.43A4.11,4.11,0,0,1,41.92,66s-1.05-1.45-1.54,10.35a175,175,0,0,0,.41,21.2s12.48,4.44,19,.91c.19-.1-.88-18.06-1.28-22.77A58.12,58.12,0,0,0,56.5,65.73Z"/><path class="cls-11" d="M44,67.4c.49,2.75,1.31,31.27,1.31,31.27l-.86-.21-.07-21.55-.66-10Z"/><path class="cls-4" d="M37.06,57.35c-.65-2.76-4.1-2.21-4.35-.25a87.54,87.54,0,0,0,1.72,11.12c.68,3,.33,8.17.23,10.26,0,.13.19.51.2.67.73-1,2.1-2,2.8-1a1.74,1.74,0,0,1,.39,1.36,4.44,4.44,0,0,1,.67-.38c0-.17.29-.14.3-.59s-.87-1.2-1.11-2.27c0,0-.43-9.46-.67-10.53C37.08,65,37,60.6,37.06,57.35Z"/><path class="cls-12" d="M37.55,81a2.31,2.31,0,0,0,.9,3l-.21-.18s2,.87,2.75.62c.17-.06.29-.47.1-.56-1.23-.63-2.1-1.07-2-1.16a3.71,3.71,0,0,0,1.48.42c.33-.07.29-.22.33-.3.17-.43-1.62-1-2.13-1.87a18.19,18.19,0,0,0,.12-2.57c-.35.16-.5.9-.83,1.1A5.11,5.11,0,0,1,37.55,81Z"/><path class="cls-4" d="M40.13,84.85a6.74,6.74,0,0,1-1.65-1,2.66,2.66,0,0,1-.77-3.33c.38-.83.76-1.59,0-2.54s-2.27-.22-3,.79c.15,2.21,2,6.06,2.84,6a9.68,9.68,0,0,0,2.56.68C40.36,85.37,40.58,85.05,40.13,84.85Z"/><path class="cls-4" d="M38.33,81.78c.44.63.3,1.45.81,1.58s.68-1.14.29-2.1a3.81,3.81,0,0,1-.13-2,5.74,5.74,0,0,0-.36-.89c-1.17-2.45-4.13-.33-1.53,2.84A1.12,1.12,0,0,1,38.33,81.78Z"/><rect class="cls-13" width="100" height="150"/><path class="cls-4" d="M54.43,58.11c-.29-2.82,3.15-3.43,4-1.66a89.87,89.87,0,0,1,2,11.07c.35,3.09,2.36,7.83,3.13,9.77,0,.13,0,.55,0,.7-1-.72-2.63-1.2-3,0a1.75,1.75,0,0,0,.08,1.41,6.18,6.18,0,0,0-.75-.13c0-.16-.33,0-.48-.47s.43-1.41.3-2.5c0,0-2.68-9.08-2.81-10.18C56.91,65.35,55.54,61.17,54.43,58.11Z"/><path class="cls-5" d="M61.69,80.58a2.31,2.31,0,0,1,.14,3.16A2.49,2.49,0,0,0,62,83.5S60.33,85,59.57,85c-.18,0-.42-.35-.27-.5,1-1,1.63-1.7,1.51-1.76s-.81.83-1.26.89-.34-.11-.4-.18c-.31-.35,1.2-1.45,1.39-2.47a17.5,17.5,0,0,1-.95-2.38c.38,0,.77.69,1.14.76A4.9,4.9,0,0,0,61.69,80.58Z"/><path class="cls-4" d="M60.66,84.77a6.47,6.47,0,0,0,1.14-1.43,2.52,2.52,0,0,0-.35-3.19c-.59-.62-1.15-1.17-.76-2.25s1.94-.89,2.89-.22c.54,2,.12,6-.66,6.23a9.1,9.1,0,0,1-2.06,1.38C60.61,85.31,60.31,85.09,60.66,84.77Z"/><path class="cls-4" d="M61.22,81.61c-.22.74.19,1.47-.25,1.76s-1-.86-1-1.89a3.75,3.75,0,0,0-.54-2,6.16,6.16,0,0,1,.05-1c.3-2.69,3.8-1.66,2.38,2.18C61.9,80.75,61.43,80.87,61.22,81.61Z"/></symbol><symbol id="haandklaede_af_2" data-name="haandklaede_af_2" viewBox="0 0 100 150"><g id="Layer_13" data-name="Layer 13"><rect class="cls-14" width="100" height="150"/></g><path class="cls-2" d="M50.3,10.68a2.42,2.42,0,0,0-2-1.33c-1.56-.15-4.64,2.45-5.2,6.5a35,35,0,0,0-.11,3.8,2.8,2.8,0,0,0,.11.68c.32.77,1.73,2.18,1.8,3.65,0,0,.5,2.36-1.67,1.76a2,2,0,0,0,1.75.8s-.37.64-1.4.25c0,0,.46,1,2.78.63s7.42-.65,7.42-.65.07.43,1,.49c0,0-.26-.52-.18-.57a.57.57,0,0,0,.6.07,2.08,2.08,0,0,1-.54-1.62c.06-.71,1.14-6.22,1.62-9.34a7.42,7.42,0,0,0,.08-2.07,4.82,4.82,0,0,0-.18-1.21c-.17-.43-1.9-2.8-2.95-3.11a2,2,0,0,0-1.58.19A5.3,5.3,0,0,0,50.3,10.68Z"/><path class="cls-3" d="M55.24,134.61a2.72,2.72,0,0,0,.13.66,65,65,0,0,0,9.23,1.22c.88-.22-.29,2.34-3.06,2.6-.64.06-9-1.21-9.18-1.81a3,3,0,0,1-.07-1.78C52.5,134.49,55,133.55,55.24,134.61Z"/><path class="cls-3" d="M52.43,132.84C51.17,123.75,49,111.6,50.62,105c.67-2.75,3.78-2.61,4.78-2.45a1.89,1.89,0,0,1,.81,1.77c-.31,2.67-.28,3.74-.68,10.78-.32,5.72-.13,19.7-.26,20-.44,1-2.49,1.44-3,.9A23.83,23.83,0,0,0,52.43,132.84Z"/><path class="cls-3" d="M39.63,133.13c0-6.11-1.17-24.38,1.53-30.92.55-1.53,3.21-1.65,4.18-1.4s1.46,1,1.13,2.38c-.31,1.56-1.12,6-1.84,11-.76,5.33-1.42,12.17-1.9,16a30.64,30.64,0,0,0-.17,3.9c0,1.12-3.05,1.57-3.08.74C39.48,134.7,39.63,133.57,39.63,133.13Z"/><path class="cls-3" d="M39.49,134.51c0-.39,3-1.06,3.07-.74,0,.14,0,.4,0,.42.17.55,8.24,1.46,8.76,1.6.72.2-1.81,2.63-4.12,2.6a34,34,0,0,1-7.71-1.7c-.48-.22-.25-.69-.19-1.06C39.35,135.5,39.46,134.78,39.49,134.51Z"/><path class="cls-4" d="M40.89,73.85c0-.2.61-6,1-7.37.89-3.55,14.58-3.62,14.94,0,.14,1.47.13,8,.06,8.31-.3,1.37-6.92,4-6.94,4-1.12.2-1.41.22-2-.17C46.08,77.46,41.23,76.67,40.89,73.85Z"/><path class="cls-4" d="M40.56,80.22c.07-1.29.2-7.4.56-7.59,2-1.1,6.88,3.26,7.19,5,.1.55-.37,12.76-.81,17.44a61.89,61.89,0,0,1-1.13,8.58A2.28,2.28,0,0,1,44,105c-.95-.32-2.78-1.9-2.84-2.57C41.17,102.43,40.42,83,40.56,80.22Z"/><path class="cls-4" d="M56.76,81.57c.12,9.87-.22,19.89-.58,22.34-.07.52-.59,2-1.12,2.09a4,4,0,0,1-4-2.13c-.18-.37-2.27-23.93-2.16-25.43.23-3,7-5.26,7.85-3.78C56.88,74.9,56.73,78.92,56.76,81.57Z"/><path class="cls-4" d="M58,36.71c.67.33,2,16.86,2.74,18.69a7.59,7.59,0,0,1,.35,1.4c.19,1.61-3.47,2.25-4.2,1.19-.38-1.59-.81-3.18-1-3.6-.42-1-2-11.12-1.29-12.35C55.13,41.18,56.79,36.11,58,36.71Z"/><path class="cls-4" d="M38.4,37.79c-.1-.56,6.93-5.11,7.48-6.2.27-.55.15-5.41.08-7.37,1.3,1.52,4.4,4.18,6.29,3.18a19,19,0,0,0,0,4.37c.27.81,5.93,4.49,5.83,5.19-.62,4.54-2.73,7.52-2.69,11.69.14,3.27.33,7,.53,8a65.1,65.1,0,0,1,.73,9.71C56.5,67.68,46.61,70.24,42,66c0,0,.37-5.31.18-10.44-.1-2.84-.25-6.23-.34-8.82C41.92,44.88,38.76,39.83,38.4,37.79Z"/><path class="cls-4" d="M38.44,37.73l0,0a6.07,6.07,0,0,1,3.11,5.91c-.27,2.43-1.13,10-1.79,14.69-.53,2.11-4.2.95-4.07-.75C36.35,50.77,37.77,38.23,38.44,37.73Z"/><path class="cls-5" d="M46.05,24.22c-.07-2-.08-1.06-.08-1.06s7-4.58,6.41,3.85a1.27,1.27,0,0,1,.1.76C51.65,29.82,49.46,29.64,46.05,24.22Z"/><path class="cls-4" d="M56.83,57.65c-.21-2.86,3.28-3.39,4.12-1.57A90.36,90.36,0,0,1,62.7,67.32c.28,3.14,2.19,8,2.92,10,0,.13,0,.55,0,.71-1-.76-2.63-1.28-3-.13a1.72,1.72,0,0,0,.05,1.43,5,5,0,0,0-.77-.15c0-.17-.32,0-.47-.49s.47-1.41.38-2.52c0,0-2.49-9.25-2.59-10.36A82.43,82.43,0,0,0,56.83,57.65Z"/><path class="cls-5" d="M63.6,80.56a2.34,2.34,0,0,1,.06,3.2,1.82,1.82,0,0,0,.14-.24S62.12,85,61.35,85c-.19,0-.42-.36-.27-.52,1-1,1.7-1.66,1.58-1.73s-.84.82-1.3.86-.34-.12-.4-.19c-.31-.36,1.25-1.43,1.47-2.45a18.35,18.35,0,0,1-.9-2.44c.38.05.76.72,1.14.8A5.2,5.2,0,0,0,63.6,80.56Z"/><path class="cls-4" d="M62.31,85.1a7.18,7.18,0,0,0,1.27-1.52,2.7,2.7,0,0,0-.28-3.44c-.62-.69-1.22-1.3-.76-2.46s2.11-.91,3.12-.15c.53,2.17,0,6.44-.89,6.69a9.73,9.73,0,0,1-2.26,1.44C62.24,85.67,61.93,85.42,62.31,85.1Z"/><path class="cls-4" d="M63.1,81.59c-.24.74.15,1.48-.3,1.77s-1-.9-.92-1.93a3.77,3.77,0,0,0-.5-2,8,8,0,0,1,.08-1c.37-2.72,3.88-1.58,2.35,2.27C63.81,80.74,63.33,80.85,63.1,81.59Z"/><path class="cls-4" d="M39.77,58.3c0-2.69-3.35-2.89-4-1.12a83.39,83.39,0,0,0-.72,10.67c0,3-1.39,7.65-1.91,9.56,0,.13.07.52,0,.67.89-.79,2.36-1.42,2.81-.37a1.65,1.65,0,0,1,.08,1.35,3.52,3.52,0,0,1,.7-.21c0-.16.3-.07.4-.5s-.55-1.28-.55-2.33c0,0,1.56-8.87,1.56-9.91C38.2,65.41,39.05,61.32,39.77,58.3Z"/><path class="cls-12" d="M35.32,80.32a2.2,2.2,0,0,0,.2,3l-.15-.22s1.7,1.24,2.42,1.15c.18,0,.36-.37.21-.5-1-.84-1.73-1.42-1.62-1.49a3.47,3.47,0,0,0,1.29.7c.31,0,.31-.14.36-.22.25-.36-1.3-1.24-1.59-2.17a16.52,16.52,0,0,0,.65-2.36c-.36.07-.65.73-1,.85A5,5,0,0,1,35.32,80.32Z"/><path class="cls-4" d="M36.9,84.46a6.61,6.61,0,0,1-1.31-1.31,2.53,2.53,0,0,1,0-3.25c.52-.7,1-1.32.51-2.36s-2.06-.68-2.94.11c-.32,2.08.57,6,1.38,6.2A9.33,9.33,0,0,0,36.76,85C37,85,37.28,84.74,36.9,84.46Z"/><path class="cls-4" d="M35.87,81.24c.28.68,0,1.4.43,1.64S37.16,82,37,81a3.58,3.58,0,0,1,.3-1.91,5.58,5.58,0,0,0-.15-.89c-.57-2.52-3.76-1.17-2,2.31C35.14,80.5,35.59,80.57,35.87,81.24Z"/><ellipse class="cls-5" cx="44.28" cy="44.55" rx="0.55" ry="0.3"/><ellipse class="cls-5" cx="54.61" cy="44.83" rx="0.51" ry="0.28"/><path class="cls-6" d="M55.85,16.8s-.84,5.28-.63,6.75a7.24,7.24,0,0,1-2.95,4.86c-1.9,1.05-6.34-4.86-6.34-5.49,0-.18,0-.69-.07-1.36a21.63,21.63,0,0,1,.07-5.18c0-.09,1.79-4.25,5.33-3.86C55.06,13,55.64,12.58,55.85,16.8Z"/><path class="cls-5" d="M43.61,20.39c-.21-.63-.63-3.38.21-4.64s2,0,2.18.43-.14,5.31-.14,5.31S43.82,21,43.61,20.39Z"/><path class="cls-5" d="M57.33,17.22a6.94,6.94,0,0,1-.63,4.22,1,1,0,0,1-1.46.26l.6-5.1S57.12,16,57.33,17.22Z"/><path class="cls-7" d="M45.51,20.06v-.19s-.54,0-.54-.75q0-.3.15-.39a.7.7,0,0,1,.56.05l.1,0,0-.11c0-.07.44-1.78-.49-2a.69.69,0,0,0-.62.1,1.17,1.17,0,0,0-.33.83h.18a1,1,0,0,1,.26-.69.53.53,0,0,1,.47-.06c.63.16.45,1.32.38,1.68a.83.83,0,0,0-.64,0,.62.62,0,0,0-.23.55C44.79,20.05,45.51,20.06,45.51,20.06Z"/><path class="cls-7" d="M55.93,20.55a.46.46,0,0,0,.2-.05.38.38,0,0,0,.23-.3.63.63,0,0,0-.09-.63.64.64,0,0,0-.53-.13c0-.56.17-1.7.75-1.7a.25.25,0,0,1,.21.08.71.71,0,0,1,.12.45H57a.84.84,0,0,0-.17-.58.42.42,0,0,0-.34-.15c-.93,0-.94,1.91-.94,2v.12l.11,0c.1,0,.36-.05.48.07s.1.24,0,.45a.28.28,0,0,1-.13.19.56.56,0,0,1-.38,0l-.08.16A.73.73,0,0,0,55.93,20.55Z"/><path class="cls-5" d="M52.27,17.86s.63,4,.84,4.64-1.9,1.05-2.53.21l.63-4.85Z"/><circle cx="53.85" cy="18.17" r="0.53"/><path d="M53.23,18.17a.62.62,0,1,1,.62.62A.62.62,0,0,1,53.23,18.17Zm.18,0a.44.44,0,0,0,.44.44.44.44,0,0,0,.43-.44.43.43,0,0,0-.43-.43A.44.44,0,0,0,53.41,18.17Z"/><circle cx="48.99" cy="17.96" r="0.53"/><path d="M48.38,18a.62.62,0,1,1,.61.62A.61.61,0,0,1,48.38,18Zm.18,0a.44.44,0,1,0,.87,0,.44.44,0,0,0-.87,0Z"/><path d="M51.85,24.57a4.34,4.34,0,0,0-4.22-1A6.07,6.07,0,0,1,51.85,24.57Z"/><path d="M51.79,24.65a6,6,0,0,0-4.15-1,.09.09,0,0,1-.1-.07.08.08,0,0,1,.06-.1,4.45,4.45,0,0,1,4.32,1,.1.1,0,0,1,0,.13.09.09,0,0,1-.07,0Zm-3-1.22a7.19,7.19,0,0,1,1.13.15,3.84,3.84,0,0,0-1-.15Z"/><path d="M53.32,16.89l.07,0c.37-.37,1.15,0,1.16,0a.09.09,0,0,0,.12,0,.1.1,0,0,0,0-.12s-.91-.45-1.37,0a.09.09,0,0,0,0,.13Z"/><path d="M48.26,16.68h0a1.29,1.29,0,0,1,1.58,0,.09.09,0,1,0,.13-.13,1.47,1.47,0,0,0-1.8,0,.1.1,0,0,0,0,.13S48.23,16.68,48.26,16.68Z"/><circle class="cls-8" cx="48.78" cy="17.75" r="0.16"/><circle class="cls-8" cx="53.64" cy="17.96" r="0.16"/><path class="cls-2" d="M46,16A11.72,11.72,0,0,1,46,17.4l.19,0s1.93-5.19,3.54-4.88a5.07,5.07,0,0,1,2.31.91s2-1.1,2.26-.93c0,0-4-1.73-6-.58S46,16,46,16Z"/><path class="cls-9" d="M52.07,13.46a4.53,4.53,0,0,0-1.77-.67c-1.07-.16-2.81,1.77-3.76,3.8C46.34,17,46,18,46,18a16.92,16.92,0,0,1,.83-1.58C49.49,11.89,52.07,13.46,52.07,13.46Z"/><path class="cls-10" d="M52.07,13.46s-1-1.7-2-1.86-3.81,3-4,4.12-.4,3.11-.4,3.11.71-1.76,1.18-2.72a7.15,7.15,0,0,1,2.64-2.93A1.7,1.7,0,0,1,51.05,13Z"/><path class="cls-9" d="M54.2,12.89c.74.28,1,.94,1.61,3.59,0,0-1-3.05-2-3.07s-1.72.05-1.72.05S53.39,12.59,54.2,12.89Z"/><path class="cls-10" d="M54.38,11.81c1,.47,2.63,3.78,2,6.56,0,0-1.25-5.41-2.29-5.42a4.54,4.54,0,0,0-2,.51S53.87,11.57,54.38,11.81Z"/><path class="cls-8" d="M56.73,66.19S49,68,44.64,67a4.16,4.16,0,0,1-2.53-1.36s-1-1.55-2.12,10.51a182,182,0,0,0-.78,21.74s12.25,5.27,18.93,2c.19-.09.14-18.55,0-23.4A60.91,60.91,0,0,0,56.73,66.19Z"/><path class="cls-11" d="M44.12,67.18c.34,2.85-.44,32.11-.44,32.11L42.83,99,44,77l-.1-10.34Z"/></symbol><symbol id="haandklaede_af_3" data-name="haandklaede_af_3" viewBox="0 0 100 150"><g id="Layer_14" data-name="Layer 14"><rect class="cls-15" width="100" height="150"/></g><path class="cls-11" d="M41,67.61l.09-.22c.45-1,2.79-5.11,9.94-4.64,7.91.52,7.32,8.11,7.32,8.11s1.06,11.47.78,14.69S57.61,97.9,57.61,97.9s-9.18-9.05-18.76-.08C38.85,97.82,40,70.17,41,67.61Z"/><path class="cls-2" d="M51.72,11a2.42,2.42,0,0,0-1.78-1.66c-1.51-.42-5,1.61-6.24,5.49a33.56,33.56,0,0,0-.78,3.72,2.58,2.58,0,0,0,0,.69c.17.81,1.32,2.45,1.12,3.9,0,0,.09,2.42-1.94,1.45a2.05,2.05,0,0,0,1.58,1.09s-.48.57-1.42,0c0,0,.29,1,2.63,1.11s7.41.65,7.41.65,0,.43.88.65c0,0-.17-.55-.08-.59a.58.58,0,0,0,.58.17,2.1,2.1,0,0,1-.25-1.68c.18-.69,2.2-5.93,3.22-8.92a7.31,7.31,0,0,0,.44-2,4.65,4.65,0,0,0,0-1.23c-.08-.45-1.37-3.08-2.35-3.57a2.1,2.1,0,0,0-1.59-.09A5.09,5.09,0,0,0,51.72,11Z"/><path class="cls-3" d="M55.24,134.61a2.72,2.72,0,0,0,.13.66,65,65,0,0,0,9.23,1.22c.88-.22-.29,2.34-3.06,2.6-.64.06-9-1.21-9.18-1.81a3,3,0,0,1-.07-1.78C52.5,134.49,55,133.55,55.24,134.61Z"/><path class="cls-3" d="M52.43,132.84C51.17,123.75,49,111.6,50.62,105c.67-2.75,3.78-2.61,4.78-2.45a1.89,1.89,0,0,1,.81,1.77c-.31,2.67-.28,3.74-.68,10.78-.32,5.72-.13,19.7-.26,20-.44,1-2.49,1.44-3,.9A23.83,23.83,0,0,0,52.43,132.84Z"/><path class="cls-3" d="M39.63,133.13c0-6.11-1.17-24.38,1.53-30.92.55-1.53,3.21-1.65,4.18-1.4s1.46,1,1.13,2.38c-.31,1.56-1.12,6-1.84,11-.76,5.33-1.42,12.17-1.9,16a30.64,30.64,0,0,0-.17,3.9c0,1.12-3.05,1.57-3.08.74C39.48,134.7,39.63,133.57,39.63,133.13Z"/><path class="cls-3" d="M39.49,134.51c0-.39,3-1.06,3.07-.74,0,.14,0,.4,0,.42.17.55,8.24,1.46,8.76,1.6.72.2-1.81,2.63-4.12,2.6a34,34,0,0,1-7.71-1.7c-.48-.22-.25-.69-.19-1.06C39.35,135.5,39.46,134.78,39.49,134.51Z"/><path class="cls-4" d="M40.89,73.85c0-.2.61-6,1-7.37.89-3.55,14.58-3.62,14.94,0,.14,1.47.13,8,.06,8.31-.3,1.37-6.92,4-6.94,4-1.12.2-1.41.22-2-.17C46.08,77.46,41.23,76.67,40.89,73.85Z"/><path class="cls-4" d="M40.56,80.22c.07-1.29.2-7.4.56-7.59,2-1.1,6.88,3.26,7.19,5,.1.55-.37,12.76-.81,17.44a61.89,61.89,0,0,1-1.13,8.58A2.28,2.28,0,0,1,44,105c-.95-.32-2.78-1.9-2.84-2.57C41.17,102.43,40.42,83,40.56,80.22Z"/><path class="cls-4" d="M56.76,81.57c.12,9.87-.22,19.89-.58,22.34-.07.52-.59,2-1.12,2.09a4,4,0,0,1-4-2.13c-.18-.37-2.27-23.93-2.16-25.43.23-3,7-5.26,7.85-3.78C56.88,74.9,56.73,78.92,56.76,81.57Z"/><path class="cls-4" d="M58,36.71c.67.33,2,16.86,2.74,18.69a7.59,7.59,0,0,1,.35,1.4c.19,1.61-3.47,2.25-4.2,1.19-.38-1.59-.81-3.18-1-3.6-.42-1-2-11.12-1.29-12.35C55.13,41.18,56.79,36.11,58,36.71Z"/><path class="cls-4" d="M38.4,37.79c-.1-.56,6.93-5.11,7.48-6.2.27-.55.15-5.41.08-7.37,1.3,1.52,4.4,4.18,6.29,3.18a19,19,0,0,0,0,4.37c.27.81,5.93,4.49,5.83,5.19-.62,4.54-2.73,7.52-2.69,11.69.14,3.27.33,7,.53,8a65.1,65.1,0,0,1,.73,9.71C56.5,67.68,46.61,70.24,42,66c0,0,.37-5.31.18-10.44-.1-2.84-.25-6.23-.34-8.82C41.92,44.88,38.76,39.83,38.4,37.79Z"/><path class="cls-4" d="M38.44,37.73l0,0a6.07,6.07,0,0,1,3.11,5.91c-.27,2.43-1.13,10-1.79,14.69-.53,2.11-4.2.95-4.07-.75C36.35,50.77,37.77,38.23,38.44,37.73Z"/><path class="cls-5" d="M46,24c.31-2,.12-1.06.12-1.06s8.25-3.63,6.12,4.54a1.34,1.34,0,0,1,0,.78C51,30.12,48.35,30,46,24Z"/><path class="cls-4" d="M56.83,57.65c-.21-2.86,3.28-3.39,4.12-1.57A90.36,90.36,0,0,1,62.7,67.32c.28,3.14,2.19,8,2.92,10,0,.13,0,.55,0,.71-1-.76-2.63-1.28-3-.13a1.72,1.72,0,0,0,.05,1.43,5,5,0,0,0-.77-.15c0-.17-.32,0-.47-.49s.47-1.41.38-2.52c0,0-2.49-9.25-2.59-10.36A82.43,82.43,0,0,0,56.83,57.65Z"/><path class="cls-5" d="M63.6,80.56a2.34,2.34,0,0,1,.06,3.2,1.82,1.82,0,0,0,.14-.24S62.12,85,61.35,85c-.19,0-.42-.36-.27-.52,1-1,1.7-1.66,1.58-1.73s-.84.82-1.3.86-.34-.12-.4-.19c-.31-.36,1.25-1.43,1.47-2.45a18.35,18.35,0,0,1-.9-2.44c.38.05.76.72,1.14.8A5.2,5.2,0,0,0,63.6,80.56Z"/><path class="cls-4" d="M62.31,85.1a7.18,7.18,0,0,0,1.27-1.52,2.7,2.7,0,0,0-.28-3.44c-.62-.69-1.22-1.3-.76-2.46s2.11-.91,3.12-.15c.53,2.17,0,6.44-.89,6.69a9.73,9.73,0,0,1-2.26,1.44C62.24,85.67,61.93,85.42,62.31,85.1Z"/><path class="cls-4" d="M63.1,81.59c-.24.74.15,1.48-.3,1.77s-1-.9-.92-1.93a3.77,3.77,0,0,0-.5-2,8,8,0,0,1,.08-1c.37-2.72,3.88-1.58,2.35,2.27C63.81,80.74,63.33,80.85,63.1,81.59Z"/><path class="cls-4" d="M39.77,58.3c0-2.69-3.35-2.89-4-1.12a83.39,83.39,0,0,0-.72,10.67c0,3-1.39,7.65-1.91,9.56,0,.13.07.52,0,.67.89-.79,2.36-1.42,2.81-.37a1.65,1.65,0,0,1,.08,1.35,3.52,3.52,0,0,1,.7-.21c0-.16.3-.07.4-.5s-.55-1.28-.55-2.33c0,0,1.56-8.87,1.56-9.91C38.2,65.41,39.05,61.32,39.77,58.3Z"/><path class="cls-12" d="M35.32,80.32a2.2,2.2,0,0,0,.2,3l-.15-.22s1.7,1.24,2.42,1.15c.18,0,.36-.37.21-.5-1-.84-1.73-1.42-1.62-1.49a3.47,3.47,0,0,0,1.29.7c.31,0,.31-.14.36-.22.25-.36-1.3-1.24-1.59-2.17a16.52,16.52,0,0,0,.65-2.36c-.36.07-.65.73-1,.85A5,5,0,0,1,35.32,80.32Z"/><path class="cls-4" d="M36.9,84.46a6.61,6.61,0,0,1-1.31-1.31,2.53,2.53,0,0,1,0-3.25c.52-.7,1-1.32.51-2.36s-2.06-.68-2.94.11c-.32,2.08.57,6,1.38,6.2A9.33,9.33,0,0,0,36.76,85C37,85,37.28,84.74,36.9,84.46Z"/><path class="cls-4" d="M35.87,81.24c.28.68,0,1.4.43,1.64S37.16,82,37,81a3.58,3.58,0,0,1,.3-1.91,5.58,5.58,0,0,0-.15-.89c-.57-2.52-3.76-1.17-2,2.31C35.14,80.5,35.59,80.57,35.87,81.24Z"/><ellipse class="cls-5" cx="44.28" cy="44.55" rx="0.55" ry="0.3"/><ellipse class="cls-5" cx="54.61" cy="44.83" rx="0.51" ry="0.28"/><path class="cls-6" d="M56.12,18s-1.75,5-1.8,6.53a7.2,7.2,0,0,1-3.76,4.26c-2.05.71-5.38-5.88-5.27-6.5,0-.18.09-.69.17-1.35a21.81,21.81,0,0,1,1-5.09c0-.08,2.5-3.87,5.91-2.86C56,14,56.65,13.76,56.12,18Z"/><path class="cls-5" d="M43.45,19.34c-.1-.66,0-3.43,1-4.53s2,.38,2.06.81-1.07,5.2-1.07,5.2S43.55,20,43.45,19.34Z"/><path class="cls-5" d="M57.5,18.62a7,7,0,0,1-1.36,4,1,1,0,0,1-1.48,0l1.48-4.91S57.51,17.34,57.5,18.62Z"/><path class="cls-7" d="M45.37,19.35l0-.18s-.53-.11-.41-.84c0-.19.11-.31.22-.35s.45.08.54.14l.1.07,0-.1c0-.07.74-1.68-.13-2.07a.73.73,0,0,0-.63,0,1.15,1.15,0,0,0-.47.77l.18,0a1,1,0,0,1,.38-.64.52.52,0,0,1,.47,0c.59.27.21,1.38.08,1.72a.82.82,0,0,0-.63-.11.62.62,0,0,0-.33.5C44.66,19.21,45.37,19.35,45.37,19.35Z"/><path class="cls-7" d="M55.54,21.65a.5.5,0,0,0,.21,0,.42.42,0,0,0,.28-.26.61.61,0,0,0,0-.63.63.63,0,0,0-.5-.23c.12-.55.47-1.64,1-1.54a.23.23,0,0,1,.19.12.69.69,0,0,1,0,.46l.18.05a.93.93,0,0,0-.06-.61.44.44,0,0,0-.32-.2c-.91-.16-1.25,1.71-1.27,1.79l0,.12h.12c.09,0,.35,0,.45.15s.06.25,0,.46-.09.14-.16.15a.5.5,0,0,1-.36-.09l-.11.15A1.11,1.11,0,0,0,55.54,21.65Z"/><path class="cls-5" d="M52.4,18.36s-.07,4.06,0,4.72-2.05.7-2.52-.24l1.47-4.66Z"/><circle cx="53.97" cy="18.97" r="0.95"/><path d="M53,18.79a1,1,0,0,1,2,.36,1,1,0,1,1-2-.36Zm.18,0a.86.86,0,1,0,1-.69A.86.86,0,0,0,53.13,18.82Z"/><circle cx="49.17" cy="18.12" r="0.95"/><path d="M48.14,17.94A1,1,0,1,1,49,19.15,1,1,0,0,1,48.14,17.94Zm.18,0a.86.86,0,1,0,1-.7A.86.86,0,0,0,48.32,18Z"/><path d="M53.72,17a.08.08,0,0,0,.09,0c.17-.29.4-.41.64-.34a.63.63,0,0,1,.44.51.09.09,0,1,0,.18,0,.78.78,0,0,0-.56-.7.7.7,0,0,0-.86.43.09.09,0,0,0,0,.12Z"/><path d="M50.59,16.53h0a.1.1,0,0,0,.06-.12s-.27-.81-.81-.91h0c-.32-.05-.66.14-1,.59a.09.09,0,0,0,0,.13.09.09,0,0,0,.13,0c.31-.39.59-.56.84-.52.43.08.66.78.66.79S50.55,16.53,50.59,16.53Z"/><circle class="cls-8" cx="48.86" cy="17.68" r="0.29"/><circle class="cls-8" cx="54" cy="19" r="0.9"/><circle class="cls-8" cx="49.17" cy="18.12" r="0.9"/><path class="cls-2" d="M46.54,15.43a13.44,13.44,0,0,1-.19,1.4l.18.06s2.8-4.77,4.34-4.19A5.16,5.16,0,0,1,53,14s2.12-.73,2.38-.52c0,0-3.67-2.41-5.8-1.61S46.54,15.43,46.54,15.43Z"/><path class="cls-9" d="M53,14a4.34,4.34,0,0,0-1.63-1c-1-.35-3.07,1.25-4.36,3.08-.27.38-.77,1.25-.77,1.25A16.79,16.79,0,0,1,47.31,16C50.71,12,53,14,53,14Z"/><path class="cls-10" d="M53,14s-.66-1.84-1.68-2.18S47,14.06,46.65,15.18s-.93,3-.93,3,1-1.6,1.63-2.47a7.22,7.22,0,0,1,3.11-2.42,1.69,1.69,0,0,1,1.59.11Z"/><path class="cls-9" d="M55.17,13.81c.68.4.85,1.11,1,3.82,0,0-.43-3.18-1.45-3.37S53,14,53,14,54.42,13.37,55.17,13.81Z"/><path class="cls-10" d="M55.53,12.78c.89.64,1.93,4.18.79,6.8,0,0-.28-5.54-1.31-5.73A4.41,4.41,0,0,0,53,14S55.08,12.46,55.53,12.78Z"/><path class="cls-8" d="M40.69,68.92c.6,2.45,3.8,4.15,4.33,4.5.3.2-.91,23.6-.91,23.6s-3.56,2.91-5.55.92L39.9,78A80.47,80.47,0,0,1,40.69,68.92Z"/><path class="cls-8" d="M58.05,68.42S56.9,74.31,53.27,75c0,0-.86,22.54-1.5,24.56,0,0,3.59,3.65,5.8-1.77,0,0,1.53-9.39,1.62-12.48C59.4,77.34,58.44,69.14,58.05,68.42Z"/><path d="M51.38,26s-.91-3.89-4.67-2.49A23.51,23.51,0,0,1,51.38,26Z"/><path d="M51.32,26.11a24,24,0,0,0-4.65-2.47.12.12,0,0,1-.07-.11.12.12,0,0,1,.07-.1,3.5,3.5,0,0,1,3,0A4.14,4.14,0,0,1,51.49,26a.11.11,0,0,1-.05.12.08.08,0,0,1-.08,0ZM47,23.54a23.9,23.9,0,0,1,4.14,2.19,3.78,3.78,0,0,0-1.63-2.07,2.58,2.58,0,0,0-.78-.27A3.77,3.77,0,0,0,47,23.54Z"/><path class="cls-7" d="M48.25,79.05a13.56,13.56,0,0,1,.46,1.74c0,.77-1.26,1.07-1.44-.11a3.56,3.56,0,0,1,.3-1.59C47.93,78.44,48.25,79.05,48.25,79.05Z"/><path class="cls-7" d="M48.63,79a3.93,3.93,0,0,0,0,1.74c.19.71,1.64.5,1.48-.63,0,0-.25-1-.8-1.33S48.79,78.67,48.63,79Z"/><path class="cls-5" d="M48.94,78.65c1,.3,1.07,4.13.86,5.41-.4,2.56-1.95,2.83-1.75,0,.09-1.24.36-3.8-.26-5.23A1.66,1.66,0,0,1,48.94,78.65Z"/></symbol><symbol id="haandklaede_af_4" data-name="haandklaede_af_4" viewBox="0 0 100 150"><g id="Layer_15" data-name="Layer 15"><rect class="cls-15" width="100" height="150"/></g><path class="cls-11" d="M38.14,77.14s0-.08.1-.22c.52-1,3.23-5,11.88-4.4,9.57.72,9.06,8.33,9.06,8.33S60.75,92.38,60.5,95.6,59,108,59,108s-11.32-9.32-22.67-.57C36.37,107.39,37.09,79.69,38.14,77.14Z"/><path class="cls-2" d="M53.6,12.09a2.45,2.45,0,0,0-1.55-1.89c-1.44-.61-5.16.94-6.91,4.62a35.93,35.93,0,0,0-1.26,3.59,2.58,2.58,0,0,0-.09.69c.07.82,1,2.59.6,4,0,0-.24,2.4-2.12,1.18a2.05,2.05,0,0,0,1.43,1.29s-.55.49-1.41-.19c0,0,.15,1.05,2.46,1.44S52,28.45,52,28.45s-.06.43.79.77c0,0-.09-.57,0-.6a.57.57,0,0,0,.56.24,2.07,2.07,0,0,1,0-1.7c.27-.66,3-5.58,4.36-8.41a7.26,7.26,0,0,0,.71-1.94,4.69,4.69,0,0,0,.19-1.21c0-.46-1-3.24-1.86-3.85a2.07,2.07,0,0,0-1.56-.3A5.2,5.2,0,0,0,53.6,12.09Z"/><path class="cls-3" d="M55.24,134.61a2.72,2.72,0,0,0,.13.66,65,65,0,0,0,9.23,1.22c.88-.22-.29,2.34-3.06,2.6-.64.06-9-1.21-9.18-1.81a3,3,0,0,1-.07-1.78C52.5,134.49,55,133.55,55.24,134.61Z"/><path class="cls-3" d="M52.43,132.84C51.17,123.75,49,111.6,50.62,105c.67-2.75,3.78-2.61,4.78-2.45a1.89,1.89,0,0,1,.81,1.77c-.31,2.67-.28,3.74-.68,10.78-.32,5.72-.13,19.7-.26,20-.44,1-2.49,1.44-3,.9A23.83,23.83,0,0,0,52.43,132.84Z"/><path class="cls-3" d="M39.63,133.13c0-6.11-1.17-24.38,1.53-30.92.55-1.53,3.21-1.65,4.18-1.4s1.46,1,1.13,2.38c-.31,1.56-1.12,6-1.84,11-.76,5.33-1.42,12.17-1.9,16a30.64,30.64,0,0,0-.17,3.9c0,1.12-3.05,1.57-3.08.74C39.48,134.7,39.63,133.57,39.63,133.13Z"/><path class="cls-3" d="M39.49,134.51c0-.39,3-1.06,3.07-.74,0,.14,0,.4,0,.42.17.55,8.24,1.46,8.76,1.6.72.2-1.81,2.63-4.12,2.6a34,34,0,0,1-7.71-1.7c-.48-.22-.25-.69-.19-1.06C39.35,135.5,39.46,134.78,39.49,134.51Z"/><path class="cls-4" d="M40.89,73.85c0-.2.61-6,1-7.37.89-3.55,14.58-3.62,14.94,0,.14,1.47.13,8,.06,8.31-.3,1.37-6.92,4-6.94,4-1.12.2-1.41.22-2-.17C46.08,77.46,41.23,76.67,40.89,73.85Z"/><path class="cls-4" d="M40.56,80.22c.07-1.29.2-7.4.56-7.59,2-1.1,6.88,3.26,7.19,5,.1.55-.37,12.76-.81,17.44a61.89,61.89,0,0,1-1.13,8.58A2.28,2.28,0,0,1,44,105c-.95-.32-2.78-1.9-2.84-2.57C41.17,102.43,40.42,83,40.56,80.22Z"/><path class="cls-4" d="M56.76,81.57c.12,9.87-.22,19.89-.58,22.34-.07.52-.59,2-1.12,2.09a4,4,0,0,1-4-2.13c-.18-.37-2.27-23.93-2.16-25.43.23-3,7-5.26,7.85-3.78C56.88,74.9,56.73,78.92,56.76,81.57Z"/><path class="cls-4" d="M58,36.71c.67.33,2,16.86,2.74,18.69a7.59,7.59,0,0,1,.35,1.4c.19,1.61-3.47,2.25-4.2,1.19-.38-1.59-.81-3.18-1-3.6-.42-1-2-11.12-1.29-12.35C55.13,41.18,56.79,36.11,58,36.71Z"/><path class="cls-4" d="M38.4,37.79c-.1-.56,6.93-5.11,7.48-6.2.27-.55.15-5.41.08-7.37,1.3,1.52,4.4,4.18,6.29,3.18a19,19,0,0,0,0,4.37c.27.81,5.93,4.49,5.83,5.19-.62,4.54-2.73,7.52-2.69,11.69.14,3.27.33,7,.53,8a65.1,65.1,0,0,1,.73,9.71C56.5,67.68,46.61,70.24,42,66c0,0,.37-5.31.18-10.44-.1-2.84-.25-6.23-.34-8.82C41.92,44.88,38.76,39.83,38.4,37.79Z"/><path class="cls-4" d="M38.44,37.73l0,0a6.07,6.07,0,0,1,3.11,5.91c-.27,2.43-1.13,10-1.79,14.69-.53,2.11-4.2.95-4.07-.75C36.35,50.77,37.77,38.23,38.44,37.73Z"/><path class="cls-5" d="M46,24.22c-.07-2,0-1.06,0-1.06s7-4.58,6.41,3.85c0,0-.17-.16-.21.41C51.35,29.47,48.26,32.23,46,24.22Z"/><path class="cls-4" d="M56.83,57.65c-.21-2.86,3.28-3.39,4.12-1.57A90.36,90.36,0,0,1,62.7,67.32c.28,3.14,2.19,8,2.92,10,0,.13,0,.55,0,.71-1-.76-2.63-1.28-3-.13a1.72,1.72,0,0,0,.05,1.43,5,5,0,0,0-.77-.15c0-.17-.32,0-.47-.49s.47-1.41.38-2.52c0,0-2.49-9.25-2.59-10.36A82.43,82.43,0,0,0,56.83,57.65Z"/><path class="cls-5" d="M63.6,80.56a2.34,2.34,0,0,1,.06,3.2,1.82,1.82,0,0,0,.14-.24S62.12,85,61.35,85c-.19,0-.42-.36-.27-.52,1-1,1.7-1.66,1.58-1.73s-.84.82-1.3.86-.34-.12-.4-.19c-.31-.36,1.25-1.43,1.47-2.45a18.35,18.35,0,0,1-.9-2.44c.38.05.76.72,1.14.8A5.2,5.2,0,0,0,63.6,80.56Z"/><path class="cls-4" d="M62.31,85.1a7.18,7.18,0,0,0,1.27-1.52,2.7,2.7,0,0,0-.28-3.44c-.62-.69-1.22-1.3-.76-2.46s2.11-.91,3.12-.15c.53,2.17,0,6.44-.89,6.69a9.73,9.73,0,0,1-2.26,1.44C62.24,85.67,61.93,85.42,62.31,85.1Z"/><path class="cls-4" d="M63.1,81.59c-.24.74.15,1.48-.3,1.77s-1-.9-.92-1.93a3.77,3.77,0,0,0-.5-2,8,8,0,0,1,.08-1c.37-2.72,3.88-1.58,2.35,2.27C63.81,80.74,63.33,80.85,63.1,81.59Z"/><path class="cls-4" d="M39.77,58.3c0-2.69-3.35-2.89-4-1.12a83.39,83.39,0,0,0-.72,10.67c0,3-1.39,7.65-1.91,9.56,0,.13.07.52,0,.67.89-.79,2.36-1.42,2.81-.37a1.65,1.65,0,0,1,.08,1.35,3.52,3.52,0,0,1,.7-.21c0-.16.3-.07.4-.5s-.55-1.28-.55-2.33c0,0,1.56-8.87,1.56-9.91C38.2,65.41,39.05,61.32,39.77,58.3Z"/><path class="cls-12" d="M35.32,80.32a2.2,2.2,0,0,0,.2,3l-.15-.22s1.7,1.24,2.42,1.15c.18,0,.36-.37.21-.5-1-.84-1.73-1.42-1.62-1.49a3.47,3.47,0,0,0,1.29.7c.31,0,.31-.14.36-.22.25-.36-1.3-1.24-1.59-2.17a16.52,16.52,0,0,0,.65-2.36c-.36.07-.65.73-1,.85A5,5,0,0,1,35.32,80.32Z"/><path class="cls-4" d="M36.9,84.46a6.61,6.61,0,0,1-1.31-1.31,2.53,2.53,0,0,1,0-3.25c.52-.7,1-1.32.51-2.36s-2.06-.68-2.94.11c-.32,2.08.57,6,1.38,6.2A9.33,9.33,0,0,0,36.76,85C37,85,37.28,84.74,36.9,84.46Z"/><path class="cls-4" d="M35.87,81.24c.28.68,0,1.4.43,1.64S37.16,82,37,81a3.58,3.58,0,0,1,.3-1.91,5.58,5.58,0,0,0-.15-.89c-.57-2.52-3.76-1.17-2,2.31C35.14,80.5,35.59,80.57,35.87,81.24Z"/><ellipse class="cls-5" cx="44.28" cy="44.55" rx="0.55" ry="0.3"/><ellipse class="cls-5" cx="54.61" cy="44.83" rx="0.51" ry="0.28"/><path class="cls-6" d="M57,19.6s-2.4,4.77-2.65,6.24a7.22,7.22,0,0,1-4.28,3.73C48,30,45.55,23,45.74,22.43c0-.17.18-.67.34-1.32a21.69,21.69,0,0,1,1.64-4.91c.05-.08,3-3.51,6.23-2.06C57.45,15.69,58.11,15.51,57,19.6Z"/><path class="cls-5" d="M44.29,19.31c0-.66.42-3.4,1.61-4.35s1.92.63,1.94,1.07-1.74,5-1.74,5S44.3,20,44.29,19.31Z"/><path class="cls-5" d="M58.32,20.45a7,7,0,0,1-1.88,3.83,1,1,0,0,1-1.47-.2l2.12-4.67S58.5,19.18,58.32,20.45Z"/><path class="cls-7" d="M46.2,19.57l.06-.17s-.51-.18-.29-.88c.06-.19.15-.3.26-.33s.44.14.52.22l.08.08.06-.1c0-.06,1-1.56.14-2.06a.68.68,0,0,0-.62-.1,1.22,1.22,0,0,0-.57.7L46,17s.16-.46.47-.57a.51.51,0,0,1,.46.08c.55.34,0,1.39-.15,1.71a.79.79,0,0,0-.6-.19.61.61,0,0,0-.39.45C45.52,19.34,46.2,19.57,46.2,19.57Z"/><path class="cls-7" d="M56,23.19a.47.47,0,0,0,.21,0A.45.45,0,0,0,56.5,23a.66.66,0,0,0,.1-.63.67.67,0,0,0-.47-.29c.18-.53.68-1.56,1.23-1.39a.28.28,0,0,1,.17.15.64.64,0,0,1,0,.46l.17.07a.86.86,0,0,0,0-.61.44.44,0,0,0-.29-.24c-.88-.28-1.47,1.53-1.49,1.61l0,.11H56a.54.54,0,0,1,.43.21c.06.11,0,.25-.09.44a.24.24,0,0,1-.18.14.54.54,0,0,1-.35-.15l-.12.14A1,1,0,0,0,56,23.19Z"/><path class="cls-5" d="M53.3,19.52s-.61,4-.6,4.68-2.13.43-2.47-.57L52.3,19.2Z"/><circle cx="54.78" cy="20.33" r="0.95"/><path d="M53.78,20a1,1,0,1,1,.68,1.31A1,1,0,0,1,53.78,20Zm.18.05a.86.86,0,1,0,1.64.52A.86.86,0,0,0,54,20.07Z"/><circle cx="50.12" cy="18.85" r="0.95"/><path d="M49.13,18.54a1,1,0,1,1,.68,1.31A1,1,0,0,1,49.13,18.54Zm.17.05a.88.88,0,0,0,.56,1.09.87.87,0,1,0-.56-1.09Z"/><path d="M54.85,18.13s.07,0,.1,0a.54.54,0,0,1,.68-.25.6.6,0,0,1,.36.56.09.09,0,1,0,.18,0,.78.78,0,0,0-.47-.77.7.7,0,0,0-.9.31.09.09,0,0,0,0,.13Z"/><path d="M51.8,17.27h.05a.09.09,0,0,0,.07-.11s-.16-.84-.68-1h0c-.31-.1-.68.05-1.08.45a.07.07,0,0,0,0,.12.09.09,0,0,0,.13,0c.35-.35.65-.49.89-.41.42.13.56.86.56.87A.11.11,0,0,0,51.8,17.27Z"/><circle class="cls-8" cx="49.88" cy="18.38" r="0.29"/><circle class="cls-8" cx="54.8" cy="20.36" r="0.9"/><circle class="cls-8" cx="50.12" cy="18.85" r="0.9"/><path class="cls-2" d="M47.87,15.84a12.49,12.49,0,0,1-.37,1.36l.17.09s3.41-4.36,4.85-3.58a5.11,5.11,0,0,1,1.92,1.56s2.21-.45,2.44-.2c0,0-3.33-2.87-5.54-2.36S47.87,15.84,47.87,15.84Z"/><path class="cls-9" d="M54.44,15.27A4.4,4.4,0,0,0,53,14.1c-1-.47-3.21.84-4.73,2.48-.32.34-.93,1.14-.93,1.14a17.61,17.61,0,0,1,1.27-1.25C52.46,13,54.44,15.27,54.44,15.27Z"/><path class="cls-10" d="M54.44,15.27s-.4-1.91-1.37-2.38-4.52,1.66-5,2.72-1.32,2.83-1.32,2.83,1.21-1.46,1.94-2.23a7.19,7.19,0,0,1,3.4-2,1.7,1.7,0,0,1,1.57.31Z"/><path class="cls-9" d="M56.64,15.37c.63.49.7,1.21.45,3.91,0,0,0-3.2-1-3.53s-1.66-.48-1.66-.48S56,14.84,56.64,15.37Z"/><path class="cls-10" d="M57.14,14.4c.79.75,1.36,4.39-.12,6.84,0,0,.45-5.53-.54-5.85a4.5,4.5,0,0,0-2-.12S56.73,14,57.14,14.4Z"/><path class="cls-8" d="M37.85,78.45c.8,2.47,4.7,4.26,5.35,4.63.37.2-.49,23.65-.49,23.65s-4.23,2.82-6.68.77l1.1-20A66.74,66.74,0,0,1,37.85,78.45Z"/><path class="cls-8" d="M58.82,78.39s-1.24,5.88-5.61,6.45c0,0-.46,22.59-1.18,24.6,0,0,4.43,3.75,7-1.63,0,0,1.61-9.37,1.63-12.48C60.68,87.37,59.31,79.12,58.82,78.39Z"/><path d="M51,28.08s-2.14-3.51-4.28-3.93C46.71,24.15,51.69,22.66,51,28.08Z"/><path d="M50.9,28.13s-2.14-3.47-4.21-3.87a.11.11,0,0,1-.09-.1.12.12,0,0,1,.08-.11c.09,0,2.21-.64,3.52.47.81.69,1.11,1.89.89,3.57a.09.09,0,0,1-.08.09h0A.1.1,0,0,1,50.9,28.13Zm-3.77-4c1.7.62,3.29,2.85,3.79,3.61a3.42,3.42,0,0,0-.86-3.09,2.32,2.32,0,0,0-.83-.45A4.75,4.75,0,0,0,47.13,24.16Z"/><path class="cls-7" d="M48.25,79.05a13.56,13.56,0,0,1,.46,1.74c0,.77-1.26,1.07-1.44-.11a3.56,3.56,0,0,1,.3-1.59C47.93,78.44,48.25,79.05,48.25,79.05Z"/><path class="cls-7" d="M48.63,79a3.93,3.93,0,0,0,0,1.74c.19.71,1.64.5,1.48-.63,0,0-.25-1-.8-1.33S48.79,78.67,48.63,79Z"/><path class="cls-5" d="M48.94,78.65c1,.3,1.07,4.13.86,5.41-.4,2.56-1.95,2.83-1.75,0,.09-1.24.36-3.8-.26-5.23A1.66,1.66,0,0,1,48.94,78.65Z"/></symbol><symbol id="haandklaede_af_5" data-name="haandklaede_af_5" viewBox="0 0 100 150"><g id="Layer_15_copy_2" data-name="Layer 15 copy 2"><rect class="cls-15" width="100" height="150"/></g><path class="cls-11" d="M37,89a2.35,2.35,0,0,1,.11-.21c.58-1,3.63-5,13.6-4.19,11,.9,10.59,8.51,10.59,8.51s2,11.6,1.79,14.82-1.45,12.35-1.45,12.35-13.21-9.55-26.11-1C35.48,119.25,35.78,91.5,37,89Z"/><path class="cls-2" d="M54.37,12.63a2.43,2.43,0,0,0-1.42-2c-1.39-.71-5.21.59-7.2,4.15a34,34,0,0,0-1.5,3.5,2.49,2.49,0,0,0-.14.67c0,.83.81,2.66.34,4.05,0,0-.4,2.38-2.2,1a2.06,2.06,0,0,0,1.34,1.39s-.58.45-1.4-.28c0,0,.09,1.05,2.36,1.6s7.13,2.1,7.13,2.1-.08.42.75.81c0,0-.06-.57,0-.59a.56.56,0,0,0,.53.28,2.11,2.11,0,0,1,.09-1.7c.32-.64,3.33-5.38,4.92-8.1a7.79,7.79,0,0,0,.84-1.89,5.13,5.13,0,0,0,.27-1.2c0-.45-.74-3.29-1.61-4A2.08,2.08,0,0,0,56,12.09,5.29,5.29,0,0,0,54.37,12.63Z"/><path class="cls-3" d="M55.24,134.61a2.72,2.72,0,0,0,.13.66,65,65,0,0,0,9.23,1.22c.88-.22-.29,2.34-3.06,2.6-.64.06-9-1.21-9.18-1.81a3,3,0,0,1-.07-1.78C52.5,134.49,55,133.55,55.24,134.61Z"/><path class="cls-3" d="M52.43,132.84C51.17,123.75,49,111.6,50.62,105c.67-2.75,3.78-2.61,4.78-2.45a1.89,1.89,0,0,1,.81,1.77c-.31,2.67-.28,3.74-.68,10.78-.32,5.72-.13,19.7-.26,20-.44,1-2.49,1.44-3,.9A23.83,23.83,0,0,0,52.43,132.84Z"/><path class="cls-3" d="M39.63,133.13c0-6.11-1.17-24.38,1.53-30.92.55-1.53,3.21-1.65,4.18-1.4s1.46,1,1.13,2.38c-.31,1.56-1.12,6-1.84,11-.76,5.33-1.42,12.17-1.9,16a30.64,30.64,0,0,0-.17,3.9c0,1.12-3.05,1.57-3.08.74C39.48,134.7,39.63,133.57,39.63,133.13Z"/><path class="cls-3" d="M39.49,134.51c0-.39,3-1.06,3.07-.74,0,.14,0,.4,0,.42.17.55,8.24,1.46,8.76,1.6.72.2-1.81,2.63-4.12,2.6a34,34,0,0,1-7.71-1.7c-.48-.22-.25-.69-.19-1.06C39.35,135.5,39.46,134.78,39.49,134.51Z"/><path class="cls-4" d="M40.89,73.85c0-.2.61-6,1-7.37.89-3.55,14.58-3.62,14.94,0,.14,1.47.13,8,.06,8.31-.3,1.37-6.92,4-6.94,4-1.12.2-1.41.22-2-.17C46.08,77.46,41.23,76.67,40.89,73.85Z"/><path class="cls-4" d="M40.56,80.22c.07-1.29.2-7.4.56-7.59,2-1.1,6.88,3.26,7.19,5,.1.55-.37,12.76-.81,17.44a61.89,61.89,0,0,1-1.13,8.58A2.28,2.28,0,0,1,44,105c-.95-.32-2.78-1.9-2.84-2.57C41.17,102.43,40.42,83,40.56,80.22Z"/><path class="cls-4" d="M56.76,81.57c.12,9.87-.22,19.89-.58,22.34-.07.52-.59,2-1.12,2.09a4,4,0,0,1-4-2.13c-.18-.37-2.27-23.93-2.16-25.43.23-3,7-5.26,7.85-3.78C56.88,74.9,56.73,78.92,56.76,81.57Z"/><path class="cls-4" d="M58,36.71c.67.33,2,16.86,2.74,18.69a7.59,7.59,0,0,1,.35,1.4c.19,1.61-3.47,2.25-4.2,1.19-.38-1.59-.81-3.18-1-3.6-.42-1-2-11.12-1.29-12.35C55.13,41.18,56.79,36.11,58,36.71Z"/><path class="cls-4" d="M38.4,37.79c-.1-.56,6.93-5.11,7.48-6.2.27-.55.15-5.41.08-7.37,1.3,1.52,4.4,4.18,6.29,3.18a19,19,0,0,0,0,4.37c.27.81,5.93,4.49,5.83,5.19-.62,4.54-2.73,7.52-2.69,11.69.14,3.27.33,7,.53,8a65.1,65.1,0,0,1,.73,9.71C56.5,67.68,46.61,70.24,42,66c0,0,.37-5.31.18-10.44-.1-2.84-.25-6.23-.34-8.82C41.92,44.88,38.76,39.83,38.4,37.79Z"/><path class="cls-4" d="M38.44,37.73l0,0a6.07,6.07,0,0,1,3.11,5.91c-.27,2.43-1.13,10-1.79,14.69-.53,2.11-4.2.95-4.07-.75C36.35,50.77,37.77,38.23,38.44,37.73Z"/><path class="cls-5" d="M46,24.22c-.07-2,0-1.06,0-1.06s7-4.58,6.41,3.85a1.27,1.27,0,0,1,.1.76C51.65,29.82,47.11,32.28,46,24.22Z"/><path class="cls-4" d="M56.83,57.65c-.21-2.86,3.28-3.39,4.12-1.57A90.36,90.36,0,0,1,62.7,67.32c.28,3.14,2.19,8,2.92,10,0,.13,0,.55,0,.71-1-.76-2.63-1.28-3-.13a1.72,1.72,0,0,0,.05,1.43,5,5,0,0,0-.77-.15c0-.17-.32,0-.47-.49s.47-1.41.38-2.52c0,0-2.49-9.25-2.59-10.36A82.43,82.43,0,0,0,56.83,57.65Z"/><path class="cls-5" d="M63.6,80.56a2.34,2.34,0,0,1,.06,3.2,1.82,1.82,0,0,0,.14-.24S62.12,85,61.35,85c-.19,0-.42-.36-.27-.52,1-1,1.7-1.66,1.58-1.73s-.84.82-1.3.86-.34-.12-.4-.19c-.31-.36,1.25-1.43,1.47-2.45a18.35,18.35,0,0,1-.9-2.44c.38.05.76.72,1.14.8A5.2,5.2,0,0,0,63.6,80.56Z"/><path class="cls-4" d="M62.31,85.1a7.18,7.18,0,0,0,1.27-1.52,2.7,2.7,0,0,0-.28-3.44c-.62-.69-1.22-1.3-.76-2.46s2.11-.91,3.12-.15c.53,2.17,0,6.44-.89,6.69a9.73,9.73,0,0,1-2.26,1.44C62.24,85.67,61.93,85.42,62.31,85.1Z"/><path class="cls-4" d="M63.1,81.59c-.24.74.15,1.48-.3,1.77s-1-.9-.92-1.93a3.77,3.77,0,0,0-.5-2,8,8,0,0,1,.08-1c.37-2.72,3.88-1.58,2.35,2.27C63.81,80.74,63.33,80.85,63.1,81.59Z"/><path class="cls-4" d="M39.77,58.3c0-2.69-3.35-2.89-4-1.12a83.39,83.39,0,0,0-.72,10.67c0,3-1.39,7.65-1.91,9.56,0,.13.07.52,0,.67.89-.79,2.36-1.42,2.81-.37a1.65,1.65,0,0,1,.08,1.35,3.52,3.52,0,0,1,.7-.21c0-.16.3-.07.4-.5s-.55-1.28-.55-2.33c0,0,1.56-8.87,1.56-9.91C38.2,65.41,39.05,61.32,39.77,58.3Z"/><path class="cls-12" d="M35.32,80.32a2.2,2.2,0,0,0,.2,3l-.15-.22s1.7,1.24,2.42,1.15c.18,0,.36-.37.21-.5-1-.84-1.73-1.42-1.62-1.49a3.47,3.47,0,0,0,1.29.7c.31,0,.31-.14.36-.22.25-.36-1.3-1.24-1.59-2.17a16.52,16.52,0,0,0,.65-2.36c-.36.07-.65.73-1,.85A5,5,0,0,1,35.32,80.32Z"/><path class="cls-4" d="M36.9,84.46a6.61,6.61,0,0,1-1.31-1.31,2.53,2.53,0,0,1,0-3.25c.52-.7,1-1.32.51-2.36s-2.06-.68-2.94.11c-.32,2.08.57,6,1.38,6.2A9.33,9.33,0,0,0,36.76,85C37,85,37.28,84.74,36.9,84.46Z"/><path class="cls-4" d="M35.87,81.24c.28.68,0,1.4.43,1.64S37.16,82,37,81a3.58,3.58,0,0,1,.3-1.91,5.58,5.58,0,0,0-.15-.89c-.57-2.52-3.76-1.17-2,2.31C35.14,80.5,35.59,80.57,35.87,81.24Z"/><ellipse class="cls-5" cx="44.28" cy="44.55" rx="0.55" ry="0.3"/><ellipse class="cls-5" cx="54.61" cy="44.83" rx="0.51" ry="0.28"/><path class="cls-6" d="M57.3,20.35s-2.72,4.6-3.06,6a7.24,7.24,0,0,1-4.52,3.44c-2.15.28-4.12-6.83-3.88-7.42.06-.17.22-.66.42-1.29a21.92,21.92,0,0,1,2-4.8c.05-.07,3.21-3.29,6.36-1.64C58,16.47,58.64,16.35,57.3,20.35Z"/><path class="cls-5" d="M44.6,19.22c0-.67.65-3.38,1.89-4.25s1.88.77,1.87,1.2-2.07,4.89-2.07,4.89S44.57,19.88,44.6,19.22Z"/><path class="cls-5" d="M58.52,21.28A7,7,0,0,1,56.39,25a1,1,0,0,1-1.45-.29l2.42-4.53S58.78,20,58.52,21.28Z"/><path class="cls-7" d="M46.49,19.6l.07-.17s-.5-.21-.23-.9c.07-.18.16-.29.28-.31a.68.68,0,0,1,.5.26l.08.08.07-.09c0-.06,1.05-1.5.28-2a.7.7,0,0,0-.62-.14c-.4.12-.61.64-.62.66l.17.07s.19-.46.5-.55a.52.52,0,0,1,.46.11c.53.38-.07,1.4-.26,1.7a.81.81,0,0,0-.59-.23.59.59,0,0,0-.42.43C45.82,19.33,46.48,19.6,46.49,19.6Z"/><path class="cls-7" d="M56,23.86a.46.46,0,0,0,.21,0,.45.45,0,0,0,.32-.2.62.62,0,0,0,.14-.62.64.64,0,0,0-.45-.32c.23-.52.79-1.52,1.32-1.31a.27.27,0,0,1,.17.16.73.73,0,0,1-.05.46l.16.08a.87.87,0,0,0,.06-.61.46.46,0,0,0-.27-.26c-.86-.34-1.57,1.44-1.6,1.51l0,.11.12,0c.09,0,.34.07.41.23s0,.26-.12.44a.23.23,0,0,1-.19.12c-.16,0-.33-.16-.33-.16l-.14.12A.8.8,0,0,0,56,23.86Z"/><path class="cls-5" d="M53.57,20s-.87,4-.91,4.63-2.15.29-2.43-.73l2.36-4.28Z"/><circle cx="54.99" cy="20.93" r="0.95"/><path d="M54,20.55a1,1,0,1,1,.59,1.35A1,1,0,0,1,54,20.55Zm.17.07a.86.86,0,0,0,.49,1.11.86.86,0,0,0,.63-1.6A.88.88,0,0,0,54.19,20.62Z"/><circle cx="50.45" cy="19.15" r="0.95"/><path d="M49.48,18.76a1,1,0,0,1,1.94.77,1,1,0,1,1-1.94-.77Zm.17.07a.86.86,0,1,0,1.11-.48A.85.85,0,0,0,49.65,18.83Z"/><path d="M55.22,18.73a.1.1,0,0,0,.1,0,.55.55,0,0,1,.7-.21.62.62,0,0,1,.32.59.09.09,0,0,0,.06.11.1.1,0,0,0,.12-.06.79.79,0,0,0-.42-.8.71.71,0,0,0-.92.25.09.09,0,0,0,0,.13Z"/><path d="M52.24,17.66s0,0,0,0a.08.08,0,0,0,.08-.1s-.1-.85-.61-1h0c-.31-.12-.68,0-1.11.38a.09.09,0,0,0,0,.13.1.1,0,0,0,.13,0c.37-.33.68-.44.92-.35.41.16.5.9.5.9A.09.09,0,0,0,52.24,17.66Z"/><circle class="cls-8" cx="50.23" cy="18.65" r="0.29"/><circle class="cls-8" cx="55.02" cy="20.96" r="0.9"/><circle class="cls-8" cx="50.45" cy="19.15" r="0.9"/><path class="cls-2" d="M48.4,16a12.7,12.7,0,0,1-.46,1.34l.17.1s3.68-4.13,5.08-3.25A5.08,5.08,0,0,1,55,15.86s2.23-.3,2.44,0c0,0-3.13-3.09-5.37-2.74S48.4,16,48.4,16Z"/><path class="cls-9" d="M55,15.86a4.44,4.44,0,0,0-1.41-1.26c-.93-.55-3.25.62-4.88,2.15-.34.32-1,1.08-1,1.08a15.54,15.54,0,0,1,1.35-1.16C53.17,13.46,55,15.86,55,15.86Z"/><path class="cls-10" d="M55,15.86s-.28-1.93-1.21-2.47-4.63,1.36-5.23,2.37-1.5,2.75-1.5,2.75,1.3-1.38,2.08-2.1a7.21,7.21,0,0,1,3.53-1.76,1.71,1.71,0,0,1,1.55.42Z"/><path class="cls-9" d="M57.19,16.11c.58.52.61,1.25.18,3.93,0,0,.21-3.2-.76-3.59S55,15.86,55,15.86,56.54,15.53,57.19,16.11Z"/><path class="cls-10" d="M57.74,15.17c.75.8,1.07,4.48-.57,6.82,0,0,.82-5.49-.15-5.88a4.5,4.5,0,0,0-2-.25S57.36,14.77,57.74,15.17Z"/><path class="cls-8" d="M36.64,90.27c1,2.5,5.49,4.36,6.25,4.74.43.21-.12,23.7-.12,23.7s-4.82,2.74-7.68.65l.89-20A57.47,57.47,0,0,1,36.64,90.27Z"/><path class="cls-8" d="M60.78,90.61S59.46,96.48,54.45,97c0,0-.12,22.62-.91,24.63,0,0,5.18,3.84,8-1.5,0,0,1.68-9.37,1.64-12.48C63.09,99.65,61.36,91.35,60.78,90.61Z"/><path d="M50.7,28.4s-1.91-3.63-4-4.2C46.68,24.2,51.76,23.05,50.7,28.4Z"/><path d="M50.6,28.45s-1.9-3.6-3.94-4.14a.12.12,0,0,1-.08-.11.1.1,0,0,1,.08-.1c.09,0,2.25-.49,3.48.7.77.75,1,2,.66,3.63a.11.11,0,0,1-.09.08h-.05A.13.13,0,0,1,50.6,28.45Zm-3.49-4.21c1.65.73,3.09,3.06,3.54,3.86A3.48,3.48,0,0,0,50,25a2.5,2.5,0,0,0-.8-.5A4.58,4.58,0,0,0,47.11,24.24Z"/><path class="cls-7" d="M48.25,79.05a13.56,13.56,0,0,1,.46,1.74c0,.77-1.26,1.07-1.44-.11a3.56,3.56,0,0,1,.3-1.59C47.93,78.44,48.25,79.05,48.25,79.05Z"/><path class="cls-7" d="M48.63,79a3.93,3.93,0,0,0,0,1.74c.19.71,1.64.5,1.48-.63,0,0-.25-1-.8-1.33S48.79,78.67,48.63,79Z"/><path class="cls-5" d="M48.94,78.65c1,.3,1.07,4.13.86,5.41-.4,2.56-1.95,2.83-1.75,0,.09-1.24.36-3.8-.26-5.23A1.66,1.66,0,0,1,48.94,78.65Z"/></symbol><symbol id="haandklaede_af_6" data-name="haandklaede_af_6" viewBox="0 0 100 150"><path class="cls-11" d="M33.87,105.31l.12-.16c.65-.77,5.48-1.5,17-.17,4.95.58,7.68,1.57,9.26,2.41a6.21,6.21,0,0,1,1.19.71l.4,1.08s.29,1.47.46,2.1c.68,2.5,2.35,8.93,2.21,11a85.2,85.2,0,0,1-2,9.49S47.67,123.51,33,129.49C33,129.49,32.6,107.27,33.87,105.31Z"/><path class="cls-2" d="M54.88,12.53a2.43,2.43,0,0,0-1.33-2c-1.37-.77-5.24.36-7.38,3.83a33.74,33.74,0,0,0-1.64,3.43,2.09,2.09,0,0,0-.17.67c0,.82.69,2.69.16,4,0,0-.5,2.37-2.24.94a2.05,2.05,0,0,0,1.28,1.44s-.61.44-1.39-.34c0,0,0,1.06,2.29,1.7s7,2.41,7,2.41-.11.42.7.85c0,0,0-.58.06-.59a.58.58,0,0,0,.52.3,2.13,2.13,0,0,1,.17-1.7c.34-.62,3.56-5.23,5.26-7.88a7.41,7.41,0,0,0,.91-1.85,4.7,4.7,0,0,0,.32-1.19c0-.45-.59-3.31-1.43-4-.49-.42-.78-.4-1.52-.46A5.12,5.12,0,0,0,54.88,12.53Z"/><path class="cls-3" d="M55.24,134.61a2.72,2.72,0,0,0,.13.66,65,65,0,0,0,9.23,1.22c.88-.22-.29,2.34-3.06,2.6-.64.06-9-1.21-9.18-1.81a3,3,0,0,1-.07-1.78C52.5,134.49,55,133.55,55.24,134.61Z"/><path class="cls-3" d="M52.43,132.84C51.17,123.75,49,111.6,50.62,105c.67-2.75,3.78-2.61,4.78-2.45a1.89,1.89,0,0,1,.81,1.77c-.31,2.67-.28,3.74-.68,10.78-.32,5.72-.13,19.7-.26,20-.44,1-2.49,1.44-3,.9A23.83,23.83,0,0,0,52.43,132.84Z"/><path class="cls-3" d="M39.63,133.13c0-6.11-1.17-24.38,1.53-30.92.55-1.53,3.21-1.65,4.18-1.4s1.46,1,1.13,2.38c-.31,1.56-1.12,6-1.84,11-.76,5.33-1.42,12.17-1.9,16a30.64,30.64,0,0,0-.17,3.9c0,1.12-3.05,1.57-3.08.74C39.48,134.7,39.63,133.57,39.63,133.13Z"/><path class="cls-3" d="M39.49,134.51c0-.39,3-1.06,3.07-.74,0,.14,0,.4,0,.42.17.55,8.24,1.46,8.76,1.6.72.2-1.81,2.63-4.12,2.6a34,34,0,0,1-7.71-1.7c-.48-.22-.25-.69-.19-1.06C39.35,135.5,39.46,134.78,39.49,134.51Z"/><path class="cls-4" d="M40.89,73.85c0-.2.61-6,1-7.37.89-3.55,14.58-3.62,14.94,0,.14,1.47.13,8,.06,8.31-.3,1.37-6.92,4-6.94,4-1.12.2-1.41.22-2-.17C46.08,77.46,41.23,76.67,40.89,73.85Z"/><path class="cls-4" d="M40.56,80.22c.07-1.29.2-7.4.56-7.59,2-1.1,6.88,3.26,7.19,5,.1.55-.37,12.76-.81,17.44a61.89,61.89,0,0,1-1.13,8.58A2.28,2.28,0,0,1,44,105c-.95-.32-2.78-1.9-2.84-2.57C41.17,102.43,40.42,83,40.56,80.22Z"/><path class="cls-4" d="M56.76,81.57c.12,9.87-.22,19.89-.58,22.34-.07.52-.59,2-1.12,2.09a4,4,0,0,1-4-2.13c-.18-.37-2.27-23.93-2.16-25.43.23-3,7-5.26,7.85-3.78C56.88,74.9,56.73,78.92,56.76,81.57Z"/><path class="cls-4" d="M58,36.71c.67.33,2,16.86,2.74,18.69a7.59,7.59,0,0,1,.35,1.4c.19,1.61-3.47,2.25-4.2,1.19-.38-1.59-.81-3.18-1-3.6-.42-1-2-11.12-1.29-12.35C55.13,41.18,56.79,36.11,58,36.71Z"/><path class="cls-4" d="M38.4,37.79c-.1-.56,6.93-5.11,7.48-6.2.27-.55.15-5.41.08-7.37,1.3,1.52,4.4,4.18,6.29,3.18a19,19,0,0,0,0,4.37c.27.81,5.93,4.49,5.83,5.19-.62,4.54-2.73,7.52-2.69,11.69.14,3.27.33,7,.53,8a65.1,65.1,0,0,1,.73,9.71C56.5,67.68,46.61,70.24,42,66c0,0,.37-5.31.18-10.44-.1-2.84-.25-6.23-.34-8.82C41.92,44.88,38.76,39.83,38.4,37.79Z"/><path class="cls-4" d="M38.44,37.73l0,0a6.07,6.07,0,0,1,3.11,5.91c-.27,2.43-1.13,10-1.79,14.69-.53,2.11-4.2.95-4.07-.75C36.35,50.77,37.77,38.23,38.44,37.73Z"/><path class="cls-5" d="M46,24.22V23.16s7-4.58,6.41,3.85a1.27,1.27,0,0,1,.1.76C50.45,29.74,47.2,31.57,46,24.22Z"/><path class="cls-4" d="M56.83,57.65c-.21-2.86,3.28-3.39,4.12-1.57A90.36,90.36,0,0,1,62.7,67.32c.28,3.14,2.19,8,2.92,10,0,.13,0,.55,0,.71-1-.76-2.63-1.28-3-.13a1.72,1.72,0,0,0,.05,1.43,5,5,0,0,0-.77-.15c0-.17-.32,0-.47-.49s.47-1.41.38-2.52c0,0-2.49-9.25-2.59-10.36A82.43,82.43,0,0,0,56.83,57.65Z"/><path class="cls-5" d="M63.6,80.56a2.34,2.34,0,0,1,.06,3.2,1.82,1.82,0,0,0,.14-.24S62.12,85,61.35,85c-.19,0-.42-.36-.27-.52,1-1,1.7-1.66,1.58-1.73s-.84.82-1.3.86-.34-.12-.4-.19c-.31-.36,1.25-1.43,1.47-2.45a18.35,18.35,0,0,1-.9-2.44c.38.05.76.72,1.14.8A5.2,5.2,0,0,0,63.6,80.56Z"/><path class="cls-4" d="M62.31,85.1a7.18,7.18,0,0,0,1.27-1.52,2.7,2.7,0,0,0-.28-3.44c-.62-.69-1.22-1.3-.76-2.46s2.11-.91,3.12-.15c.53,2.17,0,6.44-.89,6.69a9.73,9.73,0,0,1-2.26,1.44C62.24,85.67,61.93,85.42,62.31,85.1Z"/><path class="cls-4" d="M63.1,81.59c-.24.74.15,1.48-.3,1.77s-1-.9-.92-1.93a3.77,3.77,0,0,0-.5-2,8,8,0,0,1,.08-1c.37-2.72,3.88-1.58,2.35,2.27C63.81,80.74,63.33,80.85,63.1,81.59Z"/><path class="cls-4" d="M39.77,58.3c0-2.69-3.35-2.89-4-1.12a83.39,83.39,0,0,0-.72,10.67c0,3-1.39,7.65-1.91,9.56,0,.13.07.52,0,.67.89-.79,2.36-1.42,2.81-.37a1.65,1.65,0,0,1,.08,1.35,3.52,3.52,0,0,1,.7-.21c0-.16.3-.07.4-.5s-.55-1.28-.55-2.33c0,0,1.56-8.87,1.56-9.91C38.2,65.41,39.05,61.32,39.77,58.3Z"/><path class="cls-12" d="M35.32,80.32a2.2,2.2,0,0,0,.2,3l-.15-.22s1.7,1.24,2.42,1.15c.18,0,.36-.37.21-.5-1-.84-1.73-1.42-1.62-1.49a3.47,3.47,0,0,0,1.29.7c.31,0,.31-.14.36-.22.25-.36-1.3-1.24-1.59-2.17a16.52,16.52,0,0,0,.65-2.36c-.36.07-.65.73-1,.85A5,5,0,0,1,35.32,80.32Z"/><path class="cls-4" d="M36.9,84.46a6.61,6.61,0,0,1-1.31-1.31,2.53,2.53,0,0,1,0-3.25c.52-.7,1-1.32.51-2.36s-2.06-.68-2.94.11c-.32,2.08.57,6,1.38,6.2A9.33,9.33,0,0,0,36.76,85C37,85,37.28,84.74,36.9,84.46Z"/><path class="cls-4" d="M35.87,81.24c.28.68,0,1.4.43,1.64S37.16,82,37,81a3.58,3.58,0,0,1,.3-1.91,5.58,5.58,0,0,0-.15-.89c-.57-2.52-3.76-1.17-2,2.31C35.14,80.5,35.59,80.57,35.87,81.24Z"/><ellipse class="cls-5" cx="44.28" cy="44.55" rx="0.55" ry="0.3"/><ellipse class="cls-5" cx="54.61" cy="44.83" rx="0.51" ry="0.28"/><path class="cls-6" d="M57.47,20.37s-2.91,4.48-3.31,5.91a7.22,7.22,0,0,1-4.67,3.24c-2.16.2-3.82-7-3.56-7.57.07-.17.25-.65.48-1.28A22.05,22.05,0,0,1,48.58,16c.06-.07,3.35-3.16,6.43-1.37C58.3,16.53,59,16.43,57.47,20.37Z"/><path class="cls-5" d="M44.83,18.69c.07-.66.79-3.34,2.08-4.15s1.84.84,1.81,1.27-2.28,4.8-2.28,4.8S44.77,19.36,44.83,18.69Z"/><path class="cls-5" d="M58.65,21.35A6.87,6.87,0,0,1,56.36,25a1,1,0,0,1-1.43-.35l2.61-4.41S59,20.11,58.65,21.35Z"/><path class="cls-7" d="M46.7,19.16l.08-.17s-.49-.23-.19-.91c.08-.18.18-.28.29-.29s.42.19.5.27l.07.09.07-.09c0-.06,1.12-1.45.37-2a.7.7,0,0,0-.61-.17c-.41.1-.64.61-.65.63l.17.07s.2-.44.52-.52a.5.5,0,0,1,.45.13c.52.4-.12,1.39-.33,1.69a.75.75,0,0,0-.58-.25.59.59,0,0,0-.44.4C46.05,18.86,46.7,19.16,46.7,19.16Z"/><path class="cls-7" d="M56,23.82a.39.39,0,0,0,.53-.14.62.62,0,0,0,.17-.61.67.67,0,0,0-.43-.34c.24-.5.84-1.48,1.37-1.25a.3.3,0,0,1,.16.17.75.75,0,0,1-.07.45l.16.09a.92.92,0,0,0,.08-.6.45.45,0,0,0-.26-.28c-.84-.37-1.62,1.37-1.66,1.44l0,.11.11,0c.09,0,.34.1.41.26s0,.25-.14.43a.24.24,0,0,1-.2.11c-.16,0-.32-.18-.33-.18l-.14.12A.77.77,0,0,0,56,23.82Z"/><path class="cls-5" d="M53.76,19.88s-1,3.92-1.1,4.59-2.17.19-2.4-.84l2.54-4.18Z"/><circle cx="55.14" cy="20.85" r="0.95"/><path d="M54.19,20.43a1,1,0,1,1,1.91.85,1,1,0,1,1-1.91-.85Zm.17.07a.86.86,0,1,0,1.13-.43A.85.85,0,0,0,54.36,20.5Z"/><circle cx="50.68" cy="18.87" r="0.95"/><path d="M49.73,18.45a1,1,0,1,1,.53,1.38A1,1,0,0,1,49.73,18.45Zm.16.08A.86.86,0,1,0,51,18.09.86.86,0,0,0,49.89,18.53Z"/><path d="M55.51,18.55a.12.12,0,0,0,.1,0c.24-.25.49-.32.71-.18a.61.61,0,0,1,.3.6.09.09,0,0,0,.05.11.1.1,0,0,0,.12,0,.77.77,0,0,0-.38-.82.69.69,0,0,0-.93.21.1.1,0,0,0,0,.13Z"/><path d="M52.58,17.35h0a.1.1,0,0,0,.09-.1s-.07-.85-.57-1.08h0c-.3-.13-.68,0-1.12.33a.09.09,0,1,0,.11.15c.39-.31.7-.41.94-.31.4.18.45.92.46.92A.08.08,0,0,0,52.58,17.35Z"/><circle class="cls-8" cx="50.49" cy="18.37" r="0.29"/><circle class="cls-8" cx="55.16" cy="20.89" r="0.9"/><circle class="cls-8" cx="50.68" cy="18.87" r="0.9"/><path class="cls-2" d="M48.77,15.63s-.41,1.19-.51,1.32l.16.1s3.86-4,5.21-3a5,5,0,0,1,1.73,1.77s2.24-.21,2.45.07c0,0-3-3.23-5.25-3S48.77,15.63,48.77,15.63Z"/><path class="cls-9" d="M55.36,15.79A4.33,4.33,0,0,0,54,14.46c-.91-.58-3.28.48-5,1.94-.35.31-1,1-1,1a14.63,14.63,0,0,1,1.4-1.1C53.64,13.31,55.36,15.79,55.36,15.79Z"/><path class="cls-10" d="M55.36,15.79s-.19-1.95-1.1-2.53-4.68,1.17-5.32,2.15-1.62,2.68-1.62,2.68,1.36-1.32,2.17-2a7.23,7.23,0,0,1,3.61-1.61,1.7,1.7,0,0,1,1.52.49Z"/><path class="cls-9" d="M57.54,16.13c.57.55.56,1.27,0,3.93,0,0,.34-3.18-.6-3.62s-1.6-.65-1.6-.65S56.92,15.52,57.54,16.13Z"/><path class="cls-10" d="M58.14,15.22c.71.82.87,4.51-.86,6.78,0,0,1-5.44.1-5.88a4.51,4.51,0,0,0-2-.33S57.78,14.79,58.14,15.22Z"/><path class="cls-8" d="M33.57,106.18c.22,1.92.56,8.73,4.87,7.84.52-.1-.87,20.43-.87,20.43s-4.44.08-5-5L33,113.67S33.15,107.22,33.57,106.18Z"/><path class="cls-8" d="M61.44,108.1s3,10.89-2.77,10.94c0,0-.19,13.1-1.05,14.66,0,0,2.41,2.19,5.51-1.91,0,0,1.67-7.39,1.55-9.89C64.35,115.5,61.44,108.1,61.44,108.1Z"/><path d="M50.53,28.13s-1.75-3.71-3.83-4.36C46.7,23.77,51.82,22.83,50.53,28.13Z"/><path d="M50.43,28.18s-1.74-3.68-3.76-4.31a.1.1,0,0,1-.07-.11.11.11,0,0,1,.08-.1c.09,0,2.28-.4,3.45.85.73.78.9,2,.5,3.65a.12.12,0,0,1-.09.08h0S50.45,28.2,50.43,28.18Zm-3.3-4.36c1.62.8,2.95,3.19,3.36,4A3.4,3.4,0,0,0,50,24.66a2.39,2.39,0,0,0-.77-.54A4.62,4.62,0,0,0,47.13,23.82Z"/><path class="cls-7" d="M48.25,79.05a13.56,13.56,0,0,1,.46,1.74c0,.77-1.26,1.07-1.44-.11a3.56,3.56,0,0,1,.3-1.59C47.93,78.44,48.25,79.05,48.25,79.05Z"/><path class="cls-7" d="M48.63,79a3.93,3.93,0,0,0,0,1.74c.19.71,1.64.5,1.48-.63,0,0-.25-1-.8-1.33S48.79,78.67,48.63,79Z"/><path class="cls-5" d="M48.94,78.65c1,.3,1.07,4.13.86,5.41-.4,2.56-1.95,2.83-1.75,0,.09-1.24.36-3.8-.26-5.23A1.66,1.66,0,0,1,48.94,78.65Z"/></symbol><symbol id="haandklaede_af_7" data-name="haandklaede_af_7" viewBox="0 0 100 150"><rect class="cls-16" width="100" height="150"/><path class="cls-2" d="M53.2,11.85a2.43,2.43,0,0,0-1.65-1.79c-1.48-.53-5.1,1.24-6.63,5a32.9,32.9,0,0,0-1,3.66,2.34,2.34,0,0,0-.06.69c.12.82,1.14,2.53.84,4,0,0-.1,2.41-2,1.3a2.07,2.07,0,0,0,1.5,1.21s-.52.52-1.42-.1c0,0,.22,1,2.54,1.28s7.35,1.19,7.35,1.19,0,.43.83.72c0,0-.12-.56,0-.59a.6.6,0,0,0,.57.21,2.11,2.11,0,0,1-.13-1.7c.24-.68,2.63-5.75,3.86-8.65a7.11,7.11,0,0,0,.59-2,5.07,5.07,0,0,0,.12-1.23c-.05-.45-1.15-3.17-2.09-3.73a2.06,2.06,0,0,0-1.57-.2A5,5,0,0,0,53.2,11.85Z"/><path class="cls-11" d="M29.85,135.93s-.44-.32,2.42-1.19c0,0-1.27-2.05,1.66-3a1.67,1.67,0,0,1,.46-2.44s25.18,4,29.47,1.69c0,0,2.55-.31,1.87,1.31,0,0,2.3-.7,2.11,1.64,0,0,3.75,1.16,1.93,3.58C69.45,137.91,47,133,29.85,135.93Z"/><path class="cls-3" d="M55.24,134.61a2.72,2.72,0,0,0,.13.66,65,65,0,0,0,9.23,1.22c.88-.22-.29,2.34-3.06,2.6-.64.06-9-1.21-9.18-1.81a3,3,0,0,1-.07-1.78C52.5,134.49,55,133.55,55.24,134.61Z"/><path class="cls-3" d="M52.43,132.84C51.17,123.75,49,111.6,50.62,105c.67-2.75,3.78-2.61,4.78-2.45a1.89,1.89,0,0,1,.81,1.77c-.31,2.67-.28,3.74-.68,10.78-.32,5.72-.13,19.7-.26,20-.44,1-2.49,1.44-3,.9A23.83,23.83,0,0,0,52.43,132.84Z"/><path class="cls-3" d="M39.63,133.13c0-6.11-1.17-24.38,1.53-30.92.55-1.53,3.21-1.65,4.18-1.4s1.46,1,1.13,2.38c-.31,1.56-1.12,6-1.84,11-.76,5.33-1.42,12.17-1.9,16a30.64,30.64,0,0,0-.17,3.9c0,1.12-3.05,1.57-3.08.74C39.48,134.7,39.63,133.57,39.63,133.13Z"/><path class="cls-3" d="M39.49,134.51c0-.39,3-1.06,3.07-.74,0,.14,0,.4,0,.42.17.55,8.24,1.46,8.76,1.6.72.2-1.81,2.63-4.12,2.6a34,34,0,0,1-7.71-1.7c-.48-.22-.25-.69-.19-1.06C39.35,135.5,39.46,134.78,39.49,134.51Z"/><path class="cls-4" d="M40.89,73.85c0-.2.61-6,1-7.37.89-3.55,14.58-3.62,14.94,0,.14,1.47.13,8,.06,8.31-.3,1.37-6.92,4-6.94,4-1.12.2-1.41.22-2-.17C46.08,77.46,41.23,76.67,40.89,73.85Z"/><path class="cls-4" d="M40.56,80.22c.07-1.29.2-7.4.56-7.59,2-1.1,6.88,3.26,7.19,5,.1.55-.37,12.76-.81,17.44a61.89,61.89,0,0,1-1.13,8.58A2.28,2.28,0,0,1,44,105c-.95-.32-2.78-1.9-2.84-2.57C41.17,102.43,40.42,83,40.56,80.22Z"/><path class="cls-4" d="M56.76,81.57c.12,9.87-.22,19.89-.58,22.34-.07.52-.59,2-1.12,2.09a4,4,0,0,1-4-2.13c-.18-.37-2.27-23.93-2.16-25.43.23-3,7-5.26,7.85-3.78C56.88,74.9,56.73,78.92,56.76,81.57Z"/><path class="cls-4" d="M58,36.71c.67.33,2,16.86,2.74,18.69a7.59,7.59,0,0,1,.35,1.4c.19,1.61-3.47,2.25-4.2,1.19-.38-1.59-.81-3.18-1-3.6-.42-1-2-11.12-1.29-12.35C55.13,41.18,56.79,36.11,58,36.71Z"/><path class="cls-4" d="M38.4,37.79c-.1-.56,6.93-5.11,7.48-6.2.27-.55.15-5.41.08-7.37,1.3,1.52,4.4,4.18,6.29,3.18a19,19,0,0,0,0,4.37c.27.81,5.93,4.49,5.83,5.19-.62,4.54-2.73,7.52-2.69,11.69.14,3.27.33,7,.53,8a65.1,65.1,0,0,1,.73,9.71C56.5,67.68,46.61,70.24,42,66c0,0,.37-5.31.18-10.44-.1-2.84-.25-6.23-.34-8.82C41.92,44.88,38.76,39.83,38.4,37.79Z"/><path class="cls-4" d="M38.44,37.73l0,0a6.07,6.07,0,0,1,3.11,5.91c-.27,2.43-1.13,10-1.79,14.69-.53,2.11-4.2.95-4.07-.75C36.35,50.77,37.77,38.23,38.44,37.73Z"/><path class="cls-5" d="M46,24.22V22.81s7-4.23,6.41,4.2a1.27,1.27,0,0,1,.1.76C51,30.81,47.68,30,46,24.22Z"/><path class="cls-4" d="M56.83,57.65c-.21-2.86,3.28-3.39,4.12-1.57A90.36,90.36,0,0,1,62.7,67.32c.28,3.14,2.19,8,2.92,10,0,.13,0,.55,0,.71-1-.76-2.63-1.28-3-.13a1.72,1.72,0,0,0,.05,1.43,5,5,0,0,0-.77-.15c0-.17-.32,0-.47-.49s.47-1.41.38-2.52c0,0-2.49-9.25-2.59-10.36A82.43,82.43,0,0,0,56.83,57.65Z"/><path class="cls-5" d="M63.6,80.56a2.34,2.34,0,0,1,.06,3.2,1.82,1.82,0,0,0,.14-.24S62.12,85,61.35,85c-.19,0-.42-.36-.27-.52,1-1,1.7-1.66,1.58-1.73s-.84.82-1.3.86-.34-.12-.4-.19c-.31-.36,1.25-1.43,1.47-2.45a18.35,18.35,0,0,1-.9-2.44c.38.05.76.72,1.14.8A5.2,5.2,0,0,0,63.6,80.56Z"/><path class="cls-4" d="M62.31,85.1a7.18,7.18,0,0,0,1.27-1.52,2.7,2.7,0,0,0-.28-3.44c-.62-.69-1.22-1.3-.76-2.46s2.11-.91,3.12-.15c.53,2.17,0,6.44-.89,6.69a9.73,9.73,0,0,1-2.26,1.44C62.24,85.67,61.93,85.42,62.31,85.1Z"/><path class="cls-4" d="M63.1,81.59c-.24.74.15,1.48-.3,1.77s-1-.9-.92-1.93a3.77,3.77,0,0,0-.5-2,8,8,0,0,1,.08-1c.37-2.72,3.88-1.58,2.35,2.27C63.81,80.74,63.33,80.85,63.1,81.59Z"/><path class="cls-4" d="M39.77,58.3c0-2.69-3.35-2.89-4-1.12a83.39,83.39,0,0,0-.72,10.67c0,3-1.39,7.65-1.91,9.56,0,.13.07.52,0,.67.89-.79,2.36-1.42,2.81-.37a1.65,1.65,0,0,1,.08,1.35,3.52,3.52,0,0,1,.7-.21c0-.16.3-.07.4-.5s-.55-1.28-.55-2.33c0,0,1.56-8.87,1.56-9.91C38.2,65.41,39.05,61.32,39.77,58.3Z"/><path class="cls-12" d="M35.32,80.32a2.2,2.2,0,0,0,.2,3l-.15-.22s1.7,1.24,2.42,1.15c.18,0,.36-.37.21-.5-1-.84-1.73-1.42-1.62-1.49a3.47,3.47,0,0,0,1.29.7c.31,0,.31-.14.36-.22.25-.36-1.3-1.24-1.59-2.17a16.52,16.52,0,0,0,.65-2.36c-.36.07-.65.73-1,.85A5,5,0,0,1,35.32,80.32Z"/><path class="cls-4" d="M36.9,84.46a6.61,6.61,0,0,1-1.31-1.31,2.53,2.53,0,0,1,0-3.25c.52-.7,1-1.32.51-2.36s-2.06-.68-2.94.11c-.32,2.08.57,6,1.38,6.2A9.33,9.33,0,0,0,36.76,85C37,85,37.28,84.74,36.9,84.46Z"/><path class="cls-4" d="M35.87,81.24c.28.68,0,1.4.43,1.64S37.16,82,37,81a3.58,3.58,0,0,1,.3-1.91,5.58,5.58,0,0,0-.15-.89c-.57-2.52-3.76-1.17-2,2.31C35.14,80.5,35.59,80.57,35.87,81.24Z"/><ellipse class="cls-5" cx="44.28" cy="44.55" rx="0.55" ry="0.3"/><ellipse class="cls-5" cx="54.61" cy="44.83" rx="0.51" ry="0.28"/><path class="cls-8" d="M34.39,129.26a1.67,1.67,0,0,0-.46,2.44c-2.93,1-1.66,3-1.66,3-2.86.87-2.42,1.19-2.42,1.19,3.28,1.92,3.68,2.85,10.25,3.29.73-1.28,3.37-1.26,4-2.6C35.7,136,34.39,129.26,34.39,129.26Z"/><path class="cls-8" d="M67.84,133.9c.19-2.34-2.11-1.64-2.11-1.64.68-1.62-1.87-1.31-1.87-1.31,0,1.77-2.22,6.57-7.35,6.2-.61,1.34-2.16,1.39-2.88,2.66,10.63.71,15.94-2.06,16.14-2.33C71.59,135.06,67.84,133.9,67.84,133.9Z"/><path class="cls-6" d="M57.07,19.15S55,24.05,54.8,25.53a7.22,7.22,0,0,1-4,4c-2.1.56-4.94-6.26-4.79-6.87,0-.18.14-.68.27-1.34a21.71,21.71,0,0,1,1.34-5c0-.07,2.77-3.67,6.11-2.42C57.25,15.22,57.91,15,57.07,19.15Z"/><path class="cls-5" d="M44.34,19.62c-.05-.67.21-3.43,1.34-4.45s2,.52,2,1-1.44,5.1-1.44,5.1S44.39,20.28,44.34,19.62Z"/><path class="cls-5" d="M58.4,19.92a6.85,6.85,0,0,1-1.65,3.93,1,1,0,0,1-1.47-.1L57.11,19S58.51,18.64,58.4,19.92Z"/><path class="cls-7" d="M46.26,19.76l0-.17s-.52-.15-.34-.87a.44.44,0,0,1,.24-.34c.19-.06.45.12.54.19l.08.07.06-.1c0-.06.85-1.61,0-2.06a.66.66,0,0,0-.63-.06,1.17,1.17,0,0,0-.53.72l.18.05a1,1,0,0,1,.42-.6.5.5,0,0,1,.47.05c.57.31.11,1.39-.05,1.72a.73.73,0,0,0-.61-.15.56.56,0,0,0-.36.47C45.56,19.58,46.25,19.76,46.26,19.76Z"/><path class="cls-7" d="M56.23,22.79a.38.38,0,0,0,.21,0,.45.45,0,0,0,.3-.23.66.66,0,0,0,.06-.63.65.65,0,0,0-.49-.27c.16-.54.59-1.6,1.15-1.46a.25.25,0,0,1,.18.13.76.76,0,0,1,0,.47l.17.06a.83.83,0,0,0,0-.61.45.45,0,0,0-.3-.23c-.89-.23-1.37,1.62-1.39,1.7l0,.11h.12c.09,0,.35,0,.44.19s0,.25-.07.45a.23.23,0,0,1-.17.14.49.49,0,0,1-.35-.12l-.12.14A.84.84,0,0,0,56.23,22.79Z"/><path class="cls-5" d="M53.34,19.29S53,23.33,53,24s-2.1.56-2.51-.41L52.32,19Z"/><circle cx="54.86" cy="20.01" r="0.95"/><path d="M53.85,19.76A1,1,0,0,1,55.12,19a1,1,0,0,1-.51,2A1.05,1.05,0,0,1,53.85,19.76Zm.18,0a.86.86,0,1,0,1.67.43.88.88,0,0,0-.63-1.05A.85.85,0,0,0,54,19.8Z"/><circle cx="50.13" cy="18.81" r="0.95"/><path d="M49.12,18.56a1,1,0,1,1,.75,1.27A1,1,0,0,1,49.12,18.56Zm.18,0a.86.86,0,1,0,1-.62A.85.85,0,0,0,49.3,18.6Z"/><path d="M54.84,17.68a.11.11,0,0,0,.1,0,.55.55,0,0,1,.66-.3.61.61,0,0,1,.39.55.1.1,0,0,0,.08.1.09.09,0,0,0,.11-.07.8.8,0,0,0-.51-.75.72.72,0,0,0-.89.37.1.1,0,0,0,0,.13Z"/><path d="M51.75,17a0,0,0,0,0,0,0,.09.09,0,0,0,.07-.11s-.21-.83-.74-1h0q-.48-.12-1,.51a.09.09,0,0,0,0,.13.09.09,0,0,0,.13,0c.33-.36.63-.52.87-.46.43.11.61.83.61.84A.07.07,0,0,0,51.75,17Z"/><circle class="cls-8" cx="49.85" cy="18.35" r="0.29"/><circle class="cls-8" cx="54.89" cy="20.04" r="0.9"/><circle class="cls-8" cx="50.13" cy="18.81" r="0.9"/><path class="cls-2" d="M47.7,15.93a13.12,13.12,0,0,1-.28,1.39l.17.08s3.14-4.56,4.63-3.87a5.09,5.09,0,0,1,2,1.45s2.17-.58,2.42-.34c0,0-3.49-2.67-5.67-2S47.7,15.93,47.7,15.93Z"/><path class="cls-9" d="M54.23,15a4.37,4.37,0,0,0-1.55-1.08c-1-.41-3.16,1-4.58,2.76-.3.36-.85,1.19-.85,1.19a15.37,15.37,0,0,1,1.19-1.32C52.11,12.83,54.23,15,54.23,15Z"/><path class="cls-10" d="M54.23,15s-.52-1.88-1.51-2.3-4.42,1.93-4.89,3-1.14,2.9-1.14,2.9,1.12-1.53,1.8-2.34a7.27,7.27,0,0,1,3.28-2.19,1.73,1.73,0,0,1,1.59.22Z"/><path class="cls-9" d="M56.43,15c.65.45.77,1.17.68,3.88,0,0-.2-3.2-1.2-3.47S54.23,15,54.23,15,55.72,14.46,56.43,15Z"/><path class="cls-10" d="M56.87,14c.84.7,1.62,4.31.29,6.84,0,0,.12-5.55-.89-5.81a4.5,4.5,0,0,0-2,0S56.44,13.6,56.87,14Z"/><path d="M51.54,28S49.19,24.6,47,24.3C47,24.3,51.92,22.52,51.54,28Z"/><path d="M51.45,28S49.11,24.69,47,24.41a.11.11,0,0,1-.09-.09.09.09,0,0,1,.06-.11c.09,0,2.18-.78,3.55.25.85.65,1.22,1.83,1.1,3.52a.1.1,0,0,1-.07.09h-.06Zm-4-3.74c1.73.51,3.44,2.65,4,3.38a3.45,3.45,0,0,0-1-3,2.55,2.55,0,0,0-.85-.4A4.48,4.48,0,0,0,47.46,24.29Z"/><path class="cls-7" d="M48.25,79.05a13.56,13.56,0,0,1,.46,1.74c0,.77-1.26,1.07-1.44-.11a3.56,3.56,0,0,1,.3-1.59C47.93,78.44,48.25,79.05,48.25,79.05Z"/><path class="cls-7" d="M48.63,79a3.93,3.93,0,0,0,0,1.74c.19.71,1.64.5,1.48-.63,0,0-.25-1-.8-1.33S48.79,78.67,48.63,79Z"/><path class="cls-5" d="M48.94,78.65c1,.3,1.07,4.13.86,5.41-.4,2.56-1.95,2.83-1.75,0,.09-1.24.36-3.8-.26-5.23A1.66,1.66,0,0,1,48.94,78.65Z"/></symbol></defs><title>oskar_asset_og_spritesheet+haandklaede_af</title><g id="asset_haanklaede_af"><use width="100" height="150" xlink:href="#haandklaede_af_1"/><use width="100" height="150" transform="translate(100)" xlink:href="#haandklaede_af_2"/><use id="haandklaede_af_3-3" data-name="haandklaede_af_3" width="100" height="150" transform="translate(200)" xlink:href="#haandklaede_af_3"/><use id="haandklaede_af_4-3" data-name="haandklaede_af_4" width="100" height="150" transform="translate(300)" xlink:href="#haandklaede_af_4"/><use id="haandklaede_af_5-3" data-name="haandklaede_af_5" width="100" height="150" transform="translate(400)" xlink:href="#haandklaede_af_5"/><use id="haandklaede_af_6-3" data-name="haandklaede_af_6" width="100" height="150" transform="translate(500)" xlink:href="#haandklaede_af_6"/><use width="100" height="150" transform="translate(600)" xlink:href="#haandklaede_af_7"/></g></svg>
