<?xml version="1.0" encoding="utf-8"?>
<!-- Generator: Adobe Illustrator 22.0.0, SVG Export Plug-In . SVG Version: 6.00 Build 0)  -->
<svg version="1.1" id="Layer_1" xmlns="http://www.w3.org/2000/svg" xmlns:xlink="http://www.w3.org/1999/xlink" x="0px" y="0px"
	 viewBox="0 0 1113 841" style="enable-background:new 0 0 1113 841;" xml:space="preserve">
<style type="text/css">
	.st0{fill:#152230;}
	.st1{fill:#F2902C;}
	.st2{fill:#FFFFFF;}
</style>
<path class="st0" d="M250,434.2c-4.5,1.5-7.6,5-11.2,7.8c-12.8,9.6-25.4,19.4-38.1,29.1c-1,0.8-1.9,2.2-3.4,1.7
	c-1.8-0.7-1.1-2.6-1.1-4c0-19.7-0.2-39.3,0.1-59c0.1-4.6-1.4-5.5-5.6-5.4c-12.5,0.3-25,0.2-37.5,0c-15.2-0.1-26.3-11.6-26.3-26.8
	c0-71.8,0.4-143.6-0.2-215.4c-0.1-18.3,13-29.7,29.8-29.7c263.4,0.3,526.8,0.2,790.3,0.2c16.2,0,27.2,11,27.2,27.3
	c0,72.5,0,145,0.1,217.4c0,13.6-7.1,22.5-21.6,26.8c-2.8,0.1-5.7,0.1-8.5,0.1c-156.6,0-313.1,0-469.7,0c-60.3,0-120.6,0-180.9,0
	c-3.8,0-6.9,0.6-10.1,3.2c-6.3,5.3-13.4,9.9-19.8,15.2C259,426.5,253.3,429,250,434.2z"/>
<path class="st1" d="M250,434.2c3.3-5.2,9-7.7,13.5-11.5c6.4-5.3,13.4-9.8,19.8-15.2c3.1-2.6,6.3-3.2,10.1-3.2
	c60.3,0.1,120.6,0,180.9,0c156.6,0,313.1,0,469.7,0c2.8,0,5.7-0.1,8.5-0.1c1.6,3,5.1,2.7,7.5,4.3c8.3,5.5,12.6,12.8,12.6,22.8
	c0,72-0.3,143.9,0.2,215.9c0.1,15-10.8,29-29,29c-128.6-0.3-257.2-0.1-385.9-0.1c-46.5,0-93,0.1-139.4-0.1c-5.4,0-9.5,1.6-13.6,4.7
	c-21.8,16.9-43.6,33.7-65.5,50.5c-5,3.8-10.1,7.5-15.2,11.3c-3.1,2.4-4.3,1.5-4.2-2.2c0-18.8-0.1-37.7-0.1-56.5
	c0-7.5-0.2-7.6-7.5-7.7c-11.3,0-22.7-0.4-34,0.1c-15.8,0.6-28.4-12-28.3-28.6c0.3-69.5,0.1-138.9,0.1-208.4
	C250.1,437.6,250,435.9,250,434.2z"/>
<path class="st2" d="M271.4,338.7h-36.5V198.1h58.2c15.8,0,27.9,4.1,36.3,12.3c8.4,8.2,12.6,19.8,12.6,34.7s-4.2,26.5-12.6,34.7
	c-8.4,8.2-20.5,12.3-36.3,12.3h-21.6V338.7z M271.4,262.6h12.1c13.4,0,20.1-5.8,20.1-17.5c0-11.7-6.7-17.5-20.1-17.5h-12.1V262.6z"
	/>
<path class="st2" d="M471.1,338.7h-45.5l-34.9-54.1v54.1h-36.5V198.1H411c7.8,0,14.7,1.2,20.5,3.4c5.8,2.3,10.7,5.4,14.5,9.4
	c3.8,4,6.6,8.6,8.6,13.8c1.9,5.2,2.9,10.8,2.9,16.8c0,10.7-2.6,19.4-7.7,26c-5.2,6.7-12.8,11.2-22.8,13.5L471.1,338.7z M390.7,260.9
	h6.9c7.2,0,12.7-1.5,16.6-4.5c3.9-3,5.8-7.3,5.8-12.9s-1.9-9.9-5.8-12.9c-3.9-3-9.4-4.5-16.6-4.5h-6.9V260.9z"/>
<path class="st2" d="M518.8,198.1v140.6h-36.5V198.1H518.8z"/>
<path class="st2" d="M569.1,198.1l33.9,85.6l34.1-85.6h39.7l-59.3,140.6h-29.1l-59.1-140.6H569.1z"/>
<path class="st2" d="M756.4,315.2h-52.2l-8.4,24.4h-39l53.5-140.6h39.9l53.5,140.6h-39L756.4,315.2z M746.7,287.5l-16.4-46.8
	l-16.4,46.8H746.7z"/>
<path class="st2" d="M857.8,230v109.6h-36.5V230h-30v-31h96.6v31H857.8z"/>
<g>
	<path class="st2" d="M435.2,504.6c-4-3.2-7.9-5.6-11.9-7.2c-4-1.5-7.8-2.3-11.5-2.3c-4.7,0-8.6,1.1-11.5,3.3
		c-3,2.2-4.5,5.1-4.5,8.7c0,2.5,0.7,4.5,2.2,6.1c1.5,1.6,3.4,3,5.9,4.2c2.4,1.2,5.1,2.2,8.2,3.1c3,0.9,6,1.8,9,2.8
		c11.9,4,20.6,9.3,26.1,15.9c5.5,6.6,8.3,15.3,8.3,25.9c0,7.2-1.2,13.7-3.6,19.5c-2.4,5.8-5.9,10.8-10.6,15
		c-4.6,4.2-10.4,7.4-17.1,9.7c-6.8,2.3-14.4,3.4-23,3.4c-17.7,0-34.2-5.3-49.3-15.8l15.6-29.4c5.5,4.8,10.8,8.4,16.2,10.8
		c5.3,2.4,10.6,3.5,15.8,3.5c6,0,10.4-1.4,13.3-4.1c2.9-2.7,4.4-5.8,4.4-9.3c0-2.1-0.4-3.9-1.1-5.5c-0.7-1.5-2-3-3.7-4.3
		c-1.7-1.3-4-2.5-6.8-3.6s-6.2-2.4-10.1-3.7c-4.7-1.5-9.3-3.1-13.9-4.9c-4.5-1.8-8.6-4.2-12.1-7.2c-3.5-3-6.4-6.7-8.6-11.2
		c-2.2-4.5-3.3-10.3-3.3-17.2c0-6.9,1.1-13.2,3.4-18.9c2.3-5.6,5.5-10.5,9.7-14.5c4.2-4,9.2-7.2,15.2-9.4c6-2.2,12.7-3.3,20.2-3.3
		c6.9,0,14.2,1,21.8,2.9c7.6,1.9,14.8,4.7,21.8,8.5L435.2,504.6z"/>
	<path class="st2" d="M469.3,608.9V468.7h36.4l67.3,85.7v-85.7h36.3v140.2H573l-67.3-85.7v85.7H469.3z"/>
	<path class="st2" d="M715.8,584.6h-52.1l-8.4,24.4h-38.9l53.4-140.2h39.8L763,608.9h-38.9L715.8,584.6z M706.1,556.9l-16.4-46.7
		l-16.4,46.7H706.1z"/>
	<path class="st2" d="M806.4,526.6l44.4-57.8h45l-55.6,66.4l60.8,73.8h-47.2l-47.4-60.8v60.8h-36.4V468.7h36.4V526.6z"/>
</g>
</svg>
