<?xml version="1.0" encoding="utf-8"?>
<!-- Generator: Adobe Illustrator 22.0.0, SVG Export Plug-In . SVG Version: 6.00 Build 0)  -->
<svg version="1.1" xmlns="http://www.w3.org/2000/svg" xmlns:xlink="http://www.w3.org/1999/xlink" x="0px" y="0px"
	 viewBox="0 0 400 210" style="enable-background:new 0 0 400 210;" xml:space="preserve">
<style type="text/css">
	.st0{opacity:0;fill:#5C879D;}
	.st1{fill:#66898E;}
	.st2{fill:#56808E;}
	.st3{fill:#578090;}
	.st4{fill:#5C879D;}
	.st5{fill:#A1B9C3;}
	.st6{fill:#5A8590;}
	.st7{fill:url(#SVGID_1_);}
	.st8{opacity:0.51;}
	.st9{fill:url(#SVGID_2_);}
	.st10{opacity:0.7;}
	.st11{fill:url(#SVGID_3_);}
	.st12{opacity:0.49;}
	.st13{fill:#FFFFFF;}
	.st14{fill:none;stroke:#707070;stroke-width:0.5878;stroke-miterlimit:1;}
	.st15{opacity:0.58;}
	.st16{fill:url(#bagskærm_1_);}
	.st17{fill:#4E586A;stroke:#D4DBE8;stroke-width:2;stroke-miterlimit:10;}
	.st18{fill:#4E586A;stroke:#D4DBE8;stroke-miterlimit:10;}
	.st19{fill:none;}
	.st20{fill:#100000;}
	.st21{fill:#F8F8F8;}
	.st22{fill:none;stroke:#080000;stroke-miterlimit:10;}
	.st23{opacity:0.49;fill:#B8BFC9;}
	.st24{opacity:0.49;fill:#B5B9BE;}
	.st25{opacity:0.49;fill:#FFFFFF;}
	.st26{fill:url(#SVGID_4_);}
	.st27{fill:url(#SVGID_5_);}
	.st28{fill:url(#SVGID_6_);}
	.st29{fill:url(#bagskærm_2_);}
	.st30{fill:none;stroke:#020201;stroke-miterlimit:10;}
	.st31{fill:url(#SVGID_7_);}
	.st32{fill:url(#SVGID_8_);}
	.st33{fill:url(#SVGID_9_);}
	.st34{fill:url(#bagskærm_13_);}
	.st35{fill:url(#SVGID_10_);}
	.st36{fill:url(#SVGID_11_);}
	.st37{fill:url(#SVGID_12_);}
	.st38{fill:url(#bagskærm_14_);}
	.st39{fill:url(#SVGID_13_);}
	.st40{fill:url(#SVGID_14_);}
	.st41{fill:url(#SVGID_15_);}
	.st42{fill:url(#bagskærm_15_);}
	.st43{fill:url(#SVGID_16_);}
	.st44{fill:url(#SVGID_17_);}
	.st45{fill:url(#SVGID_18_);}
	.st46{fill:url(#bagskærm_16_);}
	.st47{fill:url(#SVGID_19_);}
	.st48{fill:url(#SVGID_20_);}
	.st49{fill:url(#SVGID_21_);}
	.st50{fill:url(#bagskærm_17_);}
	.st51{fill:#E6D34B;}
	.st52{font-family:'MerriweatherSans-Regular';}
	.st53{font-size:1.4828px;}
	.st54{fill:url(#SVGID_22_);}
	.st55{fill:url(#SVGID_23_);}
	.st56{fill:url(#SVGID_24_);}
	.st57{fill:url(#bagskærm_18_);}
	.st58{fill:url(#SVGID_25_);}
	.st59{fill:url(#SVGID_26_);}
	.st60{fill:url(#SVGID_27_);}
	.st61{fill:url(#bagskærm_19_);}
	.st62{fill:url(#SVGID_28_);}
	.st63{fill:url(#SVGID_29_);}
	.st64{fill:url(#SVGID_30_);}
	.st65{fill:url(#bagskærm_20_);}
</style>
<symbol  id="New_Symbol" viewBox="-48.2 -49.7 100.1 105">
	<rect x="-48.1" y="-49.7" class="st0" width="100" height="105"/>
	<path id="håndled_5_" class="st1" d="M-31.5-17.1c0,0,11.7-16.4,10.5-19.6c0,0,0-10,3.2-13h-30.3v23.2
		C-48.2-26.4-31.5-18.8-31.5-17.1z"/>
	<path id="håndflade_10_" class="st2" d="M-2.4,7.9c0,0,4.6-4.5,5.6-5.2s0,0,0,0v8.6C3.2,11.3-1.4,9.3-2.4,7.9z"/>
	<path id="håndflade_9_" class="st3" d="M-17.8-49.6c-0.1,0,12.7,2.9,15.4,2.4c2.7-0.5,7.8,0.7,19.6,9.5c0,0,0.6,10.7-2.8,11.9
		s0,0,0,0l0,0l-9.9,0.4c0.5,0.1-4,0.4-3.5,6.7c0.5,6.4,0,0,0,0l0.6,7.7c0,0-2.9-10.9-5.8-13.6c0,0-8.8-10-18.6-6.6
		c0,0,1.4-8.7,2-10.5C-21-44-20.3-48.9-17.8-49.6z"/>
	<path id="tommelfinger_5_" class="st4" d="M-31.5-17.1c0,0,15.5,28,15.2,28.6c-0.1,0.2,7.6,12.9,8.1,13.2C-7.5,25.4-3.7,31.2,1,37
		c0,0,5.9,0.6,3.6-6.2s0,0,0,0S3.9,20.8,1,18.4c0,0-1-6.4-2.7-7.1l-0.7-3.2l5.6-5.4L1.5-16.3c0,0-3.2-9.1-10.8-12.7
		c0,0-8.2-5.6-13.4-2.1C-22.7-31.1-33-17.6-31.5-17.1z"/>
	<path class="st5" d="M1,37c0,0,1.2-0.5,1-1L-1,31.9c0,0-1.7-0.3-1.3,0.9C-2.3,32.8,0.5,37,1,37z"/>
	<path class="st6" d="M14.4-25.7c0,0,2-0.4,2.8-11.9c0,0,5.9,3.4,9.1,4.2c0,0-1.2,7.4,0,7.4s0,0,0,0L14.4-25.7L14.4-25.7"/>
	<path class="st4" d="M26.2-26.1c0,0-1.7,0.2,0-7.4c0,0,9.1,1.7,11.3,3.2c0,0-2.9,1.7-3.4,3.9c-0.5,2.2,0,0,0,0L26.2-26.1"/>
	<path class="st3" d="M37.5-30.3c0,0,5.6,3.2,5.1,3.9c0,0-3.2-0.2-4.2,2.2c-1,2.4,0,0,0,0s-1.2-1.7-4.4-2.2c-3.2-0.5,0,0,0,0
		S34.8-29.6,37.5-30.3z"/>
	<path class="st4" d="M42.6-26.4c0,0,4.2,2.7,2.9,6.6c0,0-1.7,7.1-4.6,6.1c0,0-2.2-0.5-2.3-1.4c-0.1-0.8,0,0,0,0s-0.6-8.4-0.1-9.2
		c0.5-0.7,0,0,0,0S38.7-26.6,42.6-26.4z"/>
	<path class="st5" d="M43.3-19c0,0,1.2,1.1,0.8,3l1.1-2.9c0,0,0-2.1-1-1.1C43.3-19,43.3-19,43.3-19z"/>
	<path class="st4" d="M41.8,38.3l-0.5-8.9C50,34.8,41.8,38.3,41.8,38.3z"/>
	<g>
		<linearGradient id="SVGID_1_" gradientUnits="userSpaceOnUse" x1="21.0004" y1="-25.2623" x2="21.0004" y2="49.1695">
			<stop  offset="0" style="stop-color:#656565"/>
			<stop  offset="0.159" style="stop-color:#212121"/>
			<stop  offset="0.359" style="stop-color:#3D3D3D"/>
			<stop  offset="0.759" style="stop-color:#222222"/>
			<stop  offset="0.9077" style="stop-color:#444444"/>
			<stop  offset="0.9538" style="stop-color:#404040"/>
		</linearGradient>
		<path class="st7" d="M38.4,48.7c-0.5,1-24.7,0-24.7,0c-8.3,0.5-8.3-5.9-8.3-5.9L1.2-16.3c-1.5-7.8,4.6-8.1,4.6-8.1l25.2-0.7
			c4.2-0.5,6.6,0.7,6.9,2.4c0.2,1.7,2.9,64.3,2.9,64.3C41.6,48,38.4,48.7,38.4,48.7z M37.5-4.3L3.7-3.6l2.2,37.5l33.8-0.5L37.5-4.3z
			"/>
		<g class="st8">
			<linearGradient id="SVGID_2_" gradientUnits="userSpaceOnUse" x1="21.0004" y1="-25.2623" x2="21.0004" y2="49.1695">
				<stop  offset="0" style="stop-color:#161616"/>
				<stop  offset="0.5" style="stop-color:#000000"/>
				<stop  offset="0.5988" style="stop-color:#090909"/>
				<stop  offset="0.7705" style="stop-color:#131313"/>
				<stop  offset="1" style="stop-color:#161616"/>
			</linearGradient>
			<path class="st9" d="M38.4,48.7c-0.5,1-24.7,0-24.7,0c-8.3,0.5-8.3-5.9-8.3-5.9L1.2-16.3c-1.5-7.8,4.6-8.1,4.6-8.1l25.2-0.7
				c4.2-0.5,6.6,0.7,6.9,2.4c0.2,1.7,2.9,64.3,2.9,64.3C41.6,48,38.4,48.7,38.4,48.7z M37.5-4.3L3.7-3.6l2.2,37.5l33.8-0.5L37.5-4.3
				z"/>
		</g>
		<g class="st10">
			<linearGradient id="SVGID_3_" gradientUnits="userSpaceOnUse" x1="21.0004" y1="49.1695" x2="21.0004" y2="-25.2623">
				<stop  offset="0" style="stop-color:#FFFFFF;stop-opacity:0.77"/>
				<stop  offset="0.2033" style="stop-color:#FFFFFF;stop-opacity:0.65"/>
				<stop  offset="0.3448" style="stop-color:#FFFFFF;stop-opacity:0.65"/>
				<stop  offset="0.3462" style="stop-color:#FFFFFF;stop-opacity:0.65"/>
				<stop  offset="0.511" style="stop-color:#FFFFFF;stop-opacity:0"/>
				<stop  offset="0.5221" style="stop-color:#E7E7E7;stop-opacity:3.650875e-03"/>
				<stop  offset="0.544" style="stop-color:#BEBEBE;stop-opacity:1.079961e-02"/>
				<stop  offset="0.5686" style="stop-color:#989898;stop-opacity:1.883349e-02"/>
				<stop  offset="0.5952" style="stop-color:#787878;stop-opacity:2.756772e-02"/>
				<stop  offset="0.6248" style="stop-color:#5C5C5C;stop-opacity:3.722383e-02"/>
				<stop  offset="0.6581" style="stop-color:#464646;stop-opacity:4.812988e-02"/>
				<stop  offset="0.697" style="stop-color:#353535;stop-opacity:6.085929e-02"/>
				<stop  offset="0.7451" style="stop-color:#2A2A2A;stop-opacity:7.660964e-02"/>
				<stop  offset="0.8126" style="stop-color:#232323;stop-opacity:9.869440e-02"/>
				<stop  offset="1" style="stop-color:#212121;stop-opacity:0.16"/>
			</linearGradient>
			<path class="st11" d="M38.4,48.7c-0.5,1-24.7,0-24.7,0c-8.3,0.5-8.3-5.9-8.3-5.9L1.2-16.3c-1.5-7.8,4.6-8.1,4.6-8.1l25.2-0.7
				c4.2-0.5,6.6,0.7,6.9,2.4c0.2,1.7,2.9,64.3,2.9,64.3C41.6,48,38.4,48.7,38.4,48.7z M37.5-4.3L3.7-3.6l2.2,37.5l33.8-0.5L37.5-4.3
				z"/>
		</g>
		<g class="st12">
			<path class="st13" d="M32.9-24.5c-7.3,0.4-14.6,0.5-21.8,0.7c-2.1,0.1-4.8-0.3-6.8,0.6c-3.2,1.4-2.7,4.9-2.6,7.8
				C2.6-0.3,3.8,14.9,4.9,30.1C5.2,34.3,5,38.9,5.8,43c0.9,4.2,4.4,4.9,8.2,5c5.3,0.2,10.5,0.4,15.8,0.4c7.5,0.1,10.9,0.9,10.6-7.8
				c-0.2-6.5-0.6-13-0.8-19.5C39.2,11,38.7,0.9,38.3-9.2c-0.2-3.4-0.3-6.8-0.5-10.2C37.6-22.8,37.1-24.5,32.9-24.5c0,0,0-0.7,0-0.7
				c3.4,0,4.6,1.2,4.9,4.1c0.3,3.1,0.3,6.1,0.5,9.2c0.5,9.7,0.9,19.3,1.3,29c0.3,7.5,0.6,15,1,22.5c0.1,3,1.1,7.7-2.3,9.2
				c-3.8,1.7-10.6,0.4-14.7,0.3c-4-0.1-11,0.8-14.7-1.1c-4-2.1-3.3-8-3.6-11.9C4.1,19.2,3,2.4,1.7-14.4c-0.4-4.4-1.1-9.5,5-10.1
				c8.7-0.8,17.5-0.3,26.2-0.8C32.8-25.3,32.9-24.5,32.9-24.5z"/>
			<path class="st13" d="M3.3-4.3c11.5-0.2,23-0.4,34.4-0.6c0,0,0,0,0,0c0.7,12.8,1.5,25.5,2.2,38.3c0,0.1,0,0.7,0,0.7
				c-11.5,0.2-23,0.3-34.5,0.5c0,0,0,0,0,0C4.8,21.8,4.1,9.1,3.3-3.6C3.3-3.8,3.3-4.2,3.3-4.3c0.6,10.5,1.2,21,1.8,31.5
				c0.1,1.4-0.3,4.7,0.3,5.9c0.6,1.1,0,0.6,1.8,0.8c5.6,0.7,11.9-0.2,17.5-0.3c4.6-0.1,10.5,0.9,14.9-0.2c0.7-0.2,0,0.9,0.3,0.4
				c0.2-0.2-0.1-1.4-0.1-1.7c-0.2-2.6-0.3-5.1-0.4-7.7c-0.4-6.6-0.8-13.3-1.2-19.9c-0.1-2,0.4-7.9-1.1-8.8C35.8-5,31.6-4.1,30-4.1
				C26.2-4,22.4-4,18.6-3.9C13.5-3.8,8.4-3.7,3.3-3.6C3.3-3.6,3.3-4.3,3.3-4.3z"/>
		</g>
		<path class="st14" d="M38.4,48.7c-0.5,1-24.7,0-24.7,0c-8.3,0.5-8.3-5.9-8.3-5.9L1.2-16.3c-1.5-7.8,4.6-8.1,4.6-8.1l25.2-0.7
			c4.2-0.5,6.6,0.7,6.9,2.4c0.2,1.7,2.9,64.3,2.9,64.3C41.6,48,38.4,48.7,38.4,48.7z M37.5-4.3L3.7-3.6l2.2,37.5l33.8-0.5L37.5-4.3z
			"/>
		<g class="st15">
			<path d="M38.4,48.8c-1.9,1.6-8.3,0.4-10.6,0.4c-4.4-0.1-8.8-0.3-13.2-0.4c-6.5-0.1-9.1-2.4-9.5-8.3C4,22.8,2.8,5.2,1.5-12.4
				C1.3-15.9-0.2-20.9,3-23.4c1.8-1.4,4-1.1,6.1-1.2c5-0.1,10.1-0.3,15.1-0.4c3-0.1,8.3-1,11.2,0c2.8,1,2.5,2.8,2.7,5.3
				c0.5,8.7,0.8,17.5,1.2,26.2c0.5,10.3,0.9,20.6,1.4,30.8C40.8,40.3,42.2,47.7,38.4,48.8c0,0,0-0.1,0-0.1
				c3.9-1.2,2.3-11.5,2.1-14.8c-0.4-8.9-0.8-17.8-1.2-26.7C39-1.1,38.6-9.5,38.2-17.8c-0.1-1.5,0.3-4.2-0.5-5.6
				c-1.6-2.9-7-1.7-9.8-1.7c-7.1,0.2-14.9-0.5-22,0.6c-6.3,1-4.6,8.2-4.3,12.9C2.8,5.2,3.9,21.8,5.1,38.4c0.4,6.4,1.4,10.1,9.2,10.3
				c4.3,0.1,8.7,0.3,13,0.4c2.3,0,9.1,1.2,11.1-0.4C38.4,48.7,38.5,48.8,38.4,48.8z"/>
			<path d="M37.5-4.2C27.1-4,16.8-3.8,6.5-3.6c-0.6,0-2.6-0.1-2.8,0.1C3.3-3.1,4,0.4,4,0.9c0.4,6.2,0.7,12.3,1.1,18.5
				c0.2,2.9,0.3,5.8,0.5,8.7c0.1,0.9-0.3,4.7,0.3,5.4c1.1,1.3,8.7,0.2,10.6,0.1c6.2-0.1,12.3-0.2,18.5-0.3c0.7,0,4,0.4,4.6-0.1
				c0.3-0.3,0-2.2,0-2.9C38.8,18.8,38.1,7.3,37.5-4.2c0,0,0-0.1,0-0.1c0.7,12.5,1.5,25.1,2.2,37.6c0,0,0,0.1,0,0.1
				c-11.3,0.2-22.5,0.3-33.8,0.5c0,0,0,0,0,0C5.2,21.4,4.4,8.9,3.7-3.6c0,0,0-0.1,0-0.1C15-3.9,26.2-4.1,37.5-4.3
				C37.5-4.3,37.5-4.2,37.5-4.2z"/>
		</g>
	</g>
	<linearGradient id="bagskærm_1_" gradientUnits="userSpaceOnUse" x1="0.7793" y1="11.3012" x2="42.1001" y2="11.3012">
		<stop  offset="0" style="stop-color:#FFFFFF"/>
		<stop  offset="0.3506" style="stop-color:#CACACA"/>
	</linearGradient>
	<path id="bagskærm_5_" class="st16" d="M37.7,49c0,0,3.4-0.5,3.2-5.6l-3-66.1c0,0-0.4-3.2-6.8-2.4l-26.4,1c-0.2,0.4-3,0.5-3.7,5.9
		c0,0-0.5-2.9,0-4.2c0,0,1.5-3.2,5.1-2.9l27.9-1c0,0,4.2,0.5,4.4,2.2l1.4,26.9l2.2,42.1c0,0-0.5,2.4-1.2,2.7
		C40.9,47.5,39.4,48.9,37.7,49z"/>
	<ellipse id="hjem-knap_5_" class="st17" cx="19.5" cy="-19.9" rx="3.2" ry="2.9"/>
	<circle id="kamera_5_" class="st18" cx="18" cy="44.9" r="0.6"/>

		<ellipse id="kamera2_5_" transform="matrix(0.7071 -0.7071 0.7071 0.7071 -26.3432 30.4647)" class="st18" cx="23.6" cy="47" rx="0.6" ry="0.7"/>
	<path class="st2" d="M47.7,11.5c-2.4-1.2-7.8-1.5-7.8-1.5l-0.2-7.6c3.6,2.1,7.1,7.2,8.1,8.7V11.5z"/>
	<path class="st19" d="M37.5-4.3"/>
	<polygon class="st20" points="3.7,-3.6 3,-15.9 37,-16.6 37.5,-4.3 	"/>
	<line class="st20" x1="39.6" y1="33.3" x2="5.9" y2="33.8"/>
	<polygon class="st20" points="39.6,33.3 40.1,41.9 6.6,42.4 5.9,33.8 	"/>
	<circle class="st21" cx="20.1" cy="-11.9" r="3.3"/>
	<circle class="st22" cx="20" cy="-11.8" r="2.2"/>
	<circle class="st23" cx="32.3" cy="-13.4" r="1.2"/>
	<circle class="st24" cx="33.3" cy="-12.1" r="1.4"/>
	<circle class="st25" cx="34.1" cy="-13.5" r="1.3"/>
	<path class="st20" d="M31.3-10"/>
	<rect x="17.4" y="-8.3" class="st19" width="5.8" height="2.7"/>
	<text transform="matrix(1 0 0 -1 17.4238 -6.5684)" class="st51 st52" style="font-size:1.468px;">PHOTO</text>
	<line class="st20" x1="5.9" y1="33.8" x2="37.5" y2="-4.4"/>
	<path class="st4" d="M48,11.4c-0.3,4.8-3.4,6.3-3.4,6.3c-8.3,2.7-9.3-3.7-6.3-6.9c2.7-2.9,8.5-0.1,9.6,0.4
		C47.9,11.3,47.9,11.3,48,11.4z"/>
	<path class="st5" d="M37.9,15.9c0.2-0.7,1-3.2,2.4-4.2c0,0,2.7,0.5,2.9,2c0.3,1.6-2.2,3.7-2.7,3.7C40.1,17.4,38.7,17.4,37.9,15.9z"
		/>
	<path class="st2" d="M39-13c0,0,7.7,4.7,7.7,5.7c1.6,2.1-3.1,1.5-7.3,2.2c-2.9,0.5,0,0,0,0L39-13"/>
	<path class="st4" d="M48-0.7c0,0,0.8-2.9-0.9-6c0,0-6.7,0.4-7.6,1.6c-1,1.2-2.2,5.6,0.5,7.8c0,0,1.2,1.5,6.4-1.2
		C47,0.8,47.7,0,48-0.7z"/>
	<path class="st5" d="M40.6,2.7c0,0-1.5-3.4-1.2-4.2c0,0,3.9-1.5,3.9-0.7s1.2,2.9,0.5,3.7C43.8,1.5,42.8,2.7,40.6,2.7z"/>
</symbol>
<g id="billedetekst">
</g>
<g id="Layer_2">

		<use xlink:href="#New_Symbol"  width="100.1" height="105" id="XMLID_2_" x="-48.2" y="-49.7" transform="matrix(0.9982 0 0 -1.0021 48.0937 55.3904)" style="overflow:visible;"/>
</g>
<g id="haand_x5F_flyt_x5F_finger_1_">
	<g id="_x31_">
	</g>
	<g id="_x32_">
	</g>
	<g id="_x33_">
	</g>
	<g id="_x34_">
	</g>
	<g id="asset1">
	</g>
</g>
<g id="Layer_9">
	<g>
		<path class="st4" d="M190.7,186.3c0,0,4.2-2.7,2.9-6.7c0,0-1.7-7.2-4.6-6.2c0,0-2.2,0.5-2.3,1.4c-0.1,0.8,0,0,0,0
			s-0.6,8.5-0.1,9.2c0.5,0.7,0,0,0,0S186.8,186.5,190.7,186.3z"/>
		<path class="st5" d="M189.4,176.8c0,0,1.2-1.1,0.8-3l1.1,2.9c0,0,0,2.1-1,1.1C189.4,176.8,189.4,176.8,189.4,176.8z"/>
		<rect x="100" y="105" class="st19" width="100" height="105"/>
		<path id="håndled_9_" class="st1" d="M116.7,177.1c0,0,11.7,16.6,10.5,19.8c0,0,0,10.1,3.2,13.1H100v-23.5
			C100,186.5,116.7,178.9,116.7,177.1z"/>
		<path id="håndflade_12_" class="st2" d="M145.6,151.7c0,0,4.6,4.5,5.6,5.2c1,0.7,0,0,0,0v-8.7
			C151.2,148.3,146.6,150.2,145.6,151.7z"/>
		<path id="håndflade_11_" class="st3" d="M130.2,209.8c-0.1,0,12.7-3,15.4-2.5c2.7,0.5,7.8-0.7,19.6-9.6c0,0,0.6-10.8-2.8-12.1
			s0,0,0,0l0,0l-9.9-0.4c0.5-0.1-4-0.4-3.5-6.8c0.5-6.5,0,0,0,0l0.6-7.8c0,0-2.9,11-5.8,13.7c0,0-8.8,10.1-18.6,6.7
			c0,0,1.4,8.8,2,10.6C127,204.1,127.8,209,130.2,209.8z"/>
		<g>
			<linearGradient id="SVGID_4_" gradientUnits="userSpaceOnUse" x1="169.0442" y1="185.1837" x2="169.0442" y2="110">
				<stop  offset="0" style="stop-color:#656565"/>
				<stop  offset="0.159" style="stop-color:#212121"/>
				<stop  offset="0.359" style="stop-color:#3D3D3D"/>
				<stop  offset="0.759" style="stop-color:#222222"/>
				<stop  offset="0.9077" style="stop-color:#444444"/>
				<stop  offset="0.9538" style="stop-color:#404040"/>
			</linearGradient>
			<path class="st26" d="M186.5,110.4c-0.5-1-24.7,0-24.7,0c-8.3-0.5-8.3,5.9-8.3,5.9l-4.2,59.8c-1.5,7.9,4.6,8.2,4.6,8.2l25.2,0.7
				c4.2,0.5,6.6-0.7,6.9-2.5c0.2-1.7,2.9-65,2.9-65C189.7,111.2,186.5,110.4,186.5,110.4z M185.5,164l-33.7-0.6l2.2-37.8l33.8,0.5
				L185.5,164z"/>
			<g class="st8">
				<linearGradient id="SVGID_5_" gradientUnits="userSpaceOnUse" x1="169.0442" y1="185.1837" x2="169.0442" y2="110">
					<stop  offset="0" style="stop-color:#161616"/>
					<stop  offset="0.5" style="stop-color:#000000"/>
					<stop  offset="0.5988" style="stop-color:#090909"/>
					<stop  offset="0.7705" style="stop-color:#131313"/>
					<stop  offset="1" style="stop-color:#161616"/>
				</linearGradient>
				<path class="st27" d="M186.5,110.4c-0.5-1-24.7,0-24.7,0c-8.3-0.5-8.3,5.9-8.3,5.9l-4.2,59.8c-1.5,7.9,4.6,8.2,4.6,8.2l25.2,0.7
					c4.2,0.5,6.6-0.7,6.9-2.5c0.2-1.7,2.9-65,2.9-65C189.7,111.2,186.5,110.4,186.5,110.4z M185.5,164l-33.7-0.6l2.2-37.8l33.8,0.5
					L185.5,164z"/>
			</g>
			<g class="st10">
				<linearGradient id="SVGID_6_" gradientUnits="userSpaceOnUse" x1="169.0442" y1="110" x2="169.0442" y2="185.1837">
					<stop  offset="0" style="stop-color:#FFFFFF;stop-opacity:0.77"/>
					<stop  offset="0.2033" style="stop-color:#FFFFFF;stop-opacity:0.65"/>
					<stop  offset="0.3448" style="stop-color:#FFFFFF;stop-opacity:0.65"/>
					<stop  offset="0.3462" style="stop-color:#FFFFFF;stop-opacity:0.65"/>
					<stop  offset="0.511" style="stop-color:#FFFFFF;stop-opacity:0"/>
					<stop  offset="0.5221" style="stop-color:#E7E7E7;stop-opacity:3.650875e-03"/>
					<stop  offset="0.544" style="stop-color:#BEBEBE;stop-opacity:1.079961e-02"/>
					<stop  offset="0.5686" style="stop-color:#989898;stop-opacity:1.883349e-02"/>
					<stop  offset="0.5952" style="stop-color:#787878;stop-opacity:2.756772e-02"/>
					<stop  offset="0.6248" style="stop-color:#5C5C5C;stop-opacity:3.722383e-02"/>
					<stop  offset="0.6581" style="stop-color:#464646;stop-opacity:4.812988e-02"/>
					<stop  offset="0.697" style="stop-color:#353535;stop-opacity:6.085929e-02"/>
					<stop  offset="0.7451" style="stop-color:#2A2A2A;stop-opacity:7.660964e-02"/>
					<stop  offset="0.8126" style="stop-color:#232323;stop-opacity:9.869440e-02"/>
					<stop  offset="1" style="stop-color:#212121;stop-opacity:0.16"/>
				</linearGradient>
				<path class="st28" d="M186.5,110.4c-0.5-1-24.7,0-24.7,0c-8.3-0.5-8.3,5.9-8.3,5.9l-4.2,59.8c-1.5,7.9,4.6,8.2,4.6,8.2l25.2,0.7
					c4.2,0.5,6.6-0.7,6.9-2.5c0.2-1.7,2.9-65,2.9-65C189.7,111.2,186.5,110.4,186.5,110.4z M185.5,164l-33.7-0.6l2.2-37.8l33.8,0.5
					L185.5,164z"/>
			</g>
			<g class="st12">
				<path class="st13" d="M180.9,184.5c-7.3-0.5-14.6-0.5-21.8-0.7c-2.2-0.1-5.4,0.4-7.4-0.9c-2.7-1.8-2-5-1.9-7.7
					c0.9-15.4,2.1-30.8,3.2-46.2c0.3-4.1,0-8.8,0.9-12.9c0.9-4.2,4.6-4.8,8.3-4.9c5.4-0.1,10.9-0.4,16.3-0.4c7.5,0,10.2-0.4,10,8.1
					c-0.2,6.6-0.6,13.1-0.8,19.7c-0.4,10-0.9,20-1.3,29.9c-0.2,3.5-0.3,7-0.5,10.5C185.6,182.5,185.4,184.2,180.9,184.5
					c0,0,0,0.7,0,0.7c3.7-0.3,4.7-1.3,4.9-4.5c0.2-3.2,0.3-6.4,0.5-9.5c0.4-9.7,0.9-19.4,1.3-29.1c0.3-7.5,0.6-14.9,1-22.4
					c0.1-3,1-7.7-2.2-9.3c-0.9-0.4-2.3-0.3-3.4-0.4c-3.8-0.1-7.6,0-11.4,0.1c-3.9,0.1-10.5-0.7-14.2,0.9c-4.4,2-3.7,7.9-4,11.9
					c-1.2,17-2.4,33.9-3.5,50.9c-0.3,4.5-1.4,10,5,10.5c8.7,0.8,17.5,0.3,26.2,0.8C180.9,185.2,180.9,184.5,180.9,184.5z"/>
				<path class="st13" d="M151.4,164c11.5,0.2,23,0.4,34.4,0.7c0,0,0,0,0,0c0.7-12.9,1.5-25.8,2.2-38.7c0-0.1,0-0.7,0-0.7
					c-11.5-0.2-23-0.4-34.5-0.5c0,0,0,0,0,0c-0.7,12.8-1.5,25.7-2.2,38.5C151.4,163.5,151.4,163.9,151.4,164
					c0.6-10.7,1.2-21.4,1.9-32.2c0.1-1.4-0.4-4.3,0.3-5.6c0.6-1.1,0.1-0.6,1.8-0.8c5.6-0.7,11.9,0.2,17.5,0.3
					c4.7,0.1,10.3-0.7,14.9,0.2c0.8,0.2-0.1-1.1,0.3-0.3c0.2,0.4-0.1,1.4-0.1,1.8c-0.2,2.7-0.3,5.4-0.5,8.1
					c-0.4,6.6-0.8,13.2-1.1,19.8c-0.1,1.9,0.4,7.7-1.1,8.6c-1.4,0.8-5.6-0.1-7.2-0.1c-3.8-0.1-7.6-0.1-11.4-0.2
					c-5.1-0.1-10.2-0.2-15.2-0.3C151.4,163.3,151.4,164,151.4,164z"/>
			</g>
			<path class="st14" d="M186.5,110.4c-0.5-1-24.7,0-24.7,0c-8.3-0.5-8.3,5.9-8.3,5.9l-4.2,59.8c-1.5,7.9,4.6,8.2,4.6,8.2l25.2,0.7
				c4.2,0.5,6.6-0.7,6.9-2.5c0.2-1.7,2.9-65,2.9-65C189.7,111.2,186.5,110.4,186.5,110.4z M185.5,164l-33.7-0.6l2.2-37.8l33.8,0.5
				L185.5,164z"/>
			<g class="st15">
				<path d="M186.5,110.4c-1.9-1.6-8.3-0.4-10.6-0.4c-4.4,0.1-8.8,0.3-13.2,0.4c-6.5,0.1-9.1,2.5-9.5,8.4
					c-1.2,17.8-2.5,35.6-3.7,53.5c-0.2,3.4-1.7,8.5,1.5,11c1.8,1.4,4,1.2,6.1,1.2c5,0.1,10.1,0.3,15.1,0.4c3,0.1,8.3,1,11.2,0
					c2.8-1,2.5-2.9,2.7-5.4c0.5-8.8,0.8-17.7,1.2-26.5c0.5-10.4,0.9-20.8,1.4-31.2C188.9,119,190.3,111.5,186.5,110.4
					c0,0,0,0.1,0,0.1c4,1.2,2.3,11.6,2.1,15c-0.4,9-0.8,18-1.2,27c-0.4,8.4-0.7,16.8-1.1,25.2c-0.1,1.5,0.3,4.2-0.5,5.6
					c-1.6,2.9-7,1.8-9.8,1.7c-7.1-0.2-14.9,0.5-22-0.6c-6.3-1-4.6-8.3-4.3-13c1.2-16.8,2.3-33.6,3.5-50.4c0.4-6.4,1.4-10.2,9.2-10.4
					c4.3-0.1,8.7-0.3,13-0.4c2.3,0,9.1-1.2,11.1,0.4C186.5,110.5,186.5,110.4,186.5,110.4z"/>
				<path d="M185.5,163.9c-10.3-0.2-20.6-0.4-31-0.6c-0.5,0-2.6,0.1-2.8-0.1c-0.5-0.5,0.2-4.2,0.3-4.9c0.4-6.4,0.7-12.9,1.1-19.3
					c0.2-2.8,0.3-5.7,0.5-8.5c0-0.8-0.3-4.2,0.3-4.8c1.2-1.3,8.8-0.1,10.6-0.1c6.4,0.1,12.8,0.2,19.2,0.3c0.6,0,3.6-0.4,4,0.1
					c0.2,0.2-0.1,2.9-0.2,3.5C186.8,141,186.2,152.5,185.5,163.9c0,0,0,0.1,0,0.1c0.7-12.7,1.5-25.3,2.2-38c0,0,0-0.1,0-0.1
					c-11.3-0.2-22.5-0.3-33.8-0.5c0,0,0,0,0,0c-0.7,12.6-1.5,25.2-2.2,37.8c0,0,0,0.1,0,0.1c11.2,0.2,22.5,0.4,33.7,0.6
					C185.5,164,185.5,163.9,185.5,163.9z"/>
			</g>
		</g>
		<path class="st6" d="M162.4,185.6c0,0,2,0.4,2.8,12.1c0,0,5.9-3.5,9.1-4.2c0,0-1.2-7.5,0-7.4s0,0,0,0L162.4,185.6L162.4,185.6"/>
		<path class="st4" d="M174.2,186c0,0-1.7-0.2,0,7.4c0,0,9.1-1.7,11.3-3.2c0,0-2.9-1.7-3.4-4c-0.5-2.2,0,0,0,0L174.2,186"/>
		<path class="st3" d="M185.5,190.3c0,0,5.6-3.2,5.1-4c0,0-3.2,0.2-4.2-2.2c-1-2.5,0,0,0,0s-1.2,1.7-4.4,2.2c-3.2,0.5,0,0,0,0
			S182.8,189.5,185.5,190.3z"/>
		<path class="st4" d="M189.8,121l-0.5,9C198,124.5,189.8,121,189.8,121z"/>
		<linearGradient id="bagskærm_2_" gradientUnits="userSpaceOnUse" x1="148.8231" y1="148.2509" x2="190.144" y2="148.2509">
			<stop  offset="0" style="stop-color:#FFFFFF"/>
			<stop  offset="0.3506" style="stop-color:#CACACA"/>
		</linearGradient>
		<path id="bagskærm_9_" class="st29" d="M185.7,110.2c0,0,3.4,0.5,3.2,5.7l-3,66.7c0,0-0.4,3.2-6.8,2.5l-26.4-1
			c-0.2-0.4-3-0.5-3.7-5.9c0,0-0.5,3,0,4.2c0,0,1.5,3.2,5.1,3l27.9,1c0,0,4.2-0.5,4.4-2.2l1.4-27.2l2.2-42.5c0,0-0.5-2.5-1.2-2.7
			C188.9,111.7,187.4,110.2,185.7,110.2z"/>
		<ellipse id="hjem-knap_9_" class="st17" cx="167.5" cy="179.8" rx="3.2" ry="3"/>
		<path class="st2" d="M195.8,148c-2.4,1.2-7.8,1.5-7.8,1.5l-0.2,7.7c3.6-2.1,7.1-7.3,8.1-8.8V148z"/>
		<polygon class="st20" points="151.8,163.3 151,175.7 185,176.4 185.5,164 		"/>
		<line class="st20" x1="187.7" y1="126" x2="153.9" y2="125.5"/>
		<polygon class="st20" points="187.7,126 188.2,117.3 154.7,116.9 153.9,125.5 		"/>
		<ellipse class="st21" cx="168.1" cy="171.7" rx="3.3" ry="3.3"/>
		<ellipse class="st22" cx="168" cy="171.6" rx="2.2" ry="2.2"/>
		<ellipse class="st23" cx="180.4" cy="173.2" rx="1.2" ry="1.2"/>
		<ellipse class="st24" cx="181.4" cy="171.9" rx="1.4" ry="1.4"/>
		<ellipse class="st25" cx="182.1" cy="173.3" rx="1.3" ry="1.3"/>
		<rect x="165.5" y="165.2" class="st19" width="5.8" height="2.8"/>
		<text transform="matrix(0.99 0 0 1 165.4675 166.3007)" class="st51 st52 st53">PHOTO</text>
		<line class="st20" x1="153.9" y1="125.5" x2="185.5" y2="164.1"/>
		<path class="st4" d="M196,148.2c-0.3-4.9-3.4-6.3-3.4-6.3c-8.3-2.7-9.3,3.7-6.3,6.9c2.7,2.9,8.5,0.1,9.6-0.4
			C195.9,148.3,196,148.2,196,148.2z"/>
		<path class="st5" d="M186,143.6c0.2,0.7,1,3.2,2.4,4.2c0,0,2.7-0.5,2.9-2c0.3-1.6-2.2-3.7-2.7-3.7
			C188.2,142.1,186.7,142.1,186,143.6z"/>
		<path class="st2" d="M187.1,172.8c0,0,7.7-4.8,7.7-5.8c1.6-2.2-3.1-1.5-7.3-2.2c-2.9-0.5,0,0,0,0L187.1,172.8"/>
		<path class="st4" d="M196,160.4c0,0,0.8,2.9-0.9,6c0,0-6.7-0.4-7.6-1.6c-1-1.2-2.2-5.7,0.5-7.9c0,0,1.2-1.5,6.4,1.2
			C195.1,158.9,195.7,159.6,196,160.4z"/>
		<path class="st5" d="M188.7,156.9c0,0-1.5,3.5-1.2,4.2c0,0,3.9,1.5,3.9,0.7c0-0.7,1.2-3,0.5-3.7
			C191.9,158.1,190.9,156.9,188.7,156.9z"/>
		<path id="tommelfinger_9_" class="st4" d="M117,176.7c0,0,20.8-24.3,20.7-25.1c0-0.2,10.2-11,10.8-11.2c0.9-0.4,5.9-5.4,11.7-10
			c0,0,5.9,0.7,2.1,6.9c-3.7,6.2,0,0,0,0s-2.8,9.7-6.2,11.4c0,0-2.3,6.1-4.2,6.4l-1.4,3l-1.5,25c0,0-5.1,8.2-13.3,10.2
			c0,0-9.3,3.7-13.5-0.9C122.3,192.3,115.5,176.8,117,176.7z"/>
		<path class="st5" d="M160.4,130.5c0,0,1.2,0.6,0.8,1.1l-3.4,3.8c0,0-1.7,0.1-1.2-1.1C156.6,134.3,159.9,130.5,160.4,130.5z"/>
		<circle id="kamera_21_" class="st18" cx="166" cy="114.8" r="0.6"/>

			<ellipse id="kamera2_21_" transform="matrix(0.7071 -0.7071 0.7071 0.7071 -29.4543 154.3976)" class="st18" cx="171.6" cy="112.8" rx="0.6" ry="0.7"/>
	</g>
	<g>
		<path class="st4" d="M90.6,186.4c0,0,4.2-2.7,2.9-6.7c0,0-1.7-7.2-4.6-6.2c0,0-2.2,0.5-2.3,1.4c-0.1,0.8,0,0,0,0s-0.6,8.5-0.1,9.2
			c0.5,0.7,0,0,0,0S86.6,186.7,90.6,186.4z"/>
		<path class="st5" d="M89.3,177c0,0,1.2-1.1,0.8-3l1.1,2.9c0,0,0,2.1-1,1.1C89.3,177,89.3,177,89.3,177z"/>
		<rect y="105" class="st19" width="100" height="105"/>
		<path id="håndled_12_" class="st1" d="M16.7,177.1c0,0,11.7,16.6,10.5,19.8c0,0,0,10.1,3.2,13.1H0v-23.5
			C0,186.5,16.7,178.9,16.7,177.1z"/>
		<path id="håndflade_20_" class="st2" d="M45.6,151.7c0,0,4.6,4.5,5.6,5.2c1,0.7,0,0,0,0v-8.7C51.2,148.3,46.6,150.2,45.6,151.7z"
			/>
		<path id="håndflade_16_" class="st3" d="M30.2,209.8c-0.1,0,12.7-3,15.4-2.5c2.7,0.5,7.8-0.7,19.6-9.6c0,0,0.6-10.8-2.8-12.1
			c-3.3-1.3,0,0,0,0l0,0l-9.9-0.4c0.5-0.1-4-0.4-3.5-6.8c0.5-6.5,0,0,0,0l0.6-7.8c0,0-2.9,11-5.8,13.7c0,0-8.8,10.1-18.6,6.7
			c0,0,1.4,8.8,2,10.6C27,204.1,27.8,209,30.2,209.8z"/>
		<g>
			<linearGradient id="SVGID_7_" gradientUnits="userSpaceOnUse" x1="69.0442" y1="185.1837" x2="69.0442" y2="110">
				<stop  offset="0" style="stop-color:#656565"/>
				<stop  offset="0.159" style="stop-color:#212121"/>
				<stop  offset="0.359" style="stop-color:#3D3D3D"/>
				<stop  offset="0.759" style="stop-color:#222222"/>
				<stop  offset="0.9077" style="stop-color:#444444"/>
				<stop  offset="0.9538" style="stop-color:#404040"/>
			</linearGradient>
			<path class="st31" d="M86.5,110.4c-0.5-1-24.7,0-24.7,0c-8.3-0.5-8.3,5.9-8.3,5.9l-4.2,59.8c-1.5,7.9,4.6,8.2,4.6,8.2l25.2,0.7
				c4.2,0.5,6.6-0.7,6.9-2.5c0.2-1.7,2.9-65,2.9-65C89.7,111.2,86.5,110.4,86.5,110.4z M85.5,164l-33.7-0.6l2.2-37.8l33.8,0.5
				L85.5,164z"/>
			<g class="st8">
				<linearGradient id="SVGID_8_" gradientUnits="userSpaceOnUse" x1="69.0442" y1="185.1837" x2="69.0442" y2="110">
					<stop  offset="0" style="stop-color:#161616"/>
					<stop  offset="0.5" style="stop-color:#000000"/>
					<stop  offset="0.5988" style="stop-color:#090909"/>
					<stop  offset="0.7705" style="stop-color:#131313"/>
					<stop  offset="1" style="stop-color:#161616"/>
				</linearGradient>
				<path class="st32" d="M86.5,110.4c-0.5-1-24.7,0-24.7,0c-8.3-0.5-8.3,5.9-8.3,5.9l-4.2,59.8c-1.5,7.9,4.6,8.2,4.6,8.2l25.2,0.7
					c4.2,0.5,6.6-0.7,6.9-2.5c0.2-1.7,2.9-65,2.9-65C89.7,111.2,86.5,110.4,86.5,110.4z M85.5,164l-33.7-0.6l2.2-37.8l33.8,0.5
					L85.5,164z"/>
			</g>
			<g class="st10">
				<linearGradient id="SVGID_9_" gradientUnits="userSpaceOnUse" x1="69.0442" y1="110" x2="69.0442" y2="185.1837">
					<stop  offset="0" style="stop-color:#FFFFFF;stop-opacity:0.77"/>
					<stop  offset="0.2033" style="stop-color:#FFFFFF;stop-opacity:0.65"/>
					<stop  offset="0.3448" style="stop-color:#FFFFFF;stop-opacity:0.65"/>
					<stop  offset="0.3462" style="stop-color:#FFFFFF;stop-opacity:0.65"/>
					<stop  offset="0.511" style="stop-color:#FFFFFF;stop-opacity:0"/>
					<stop  offset="0.5221" style="stop-color:#E7E7E7;stop-opacity:3.650875e-03"/>
					<stop  offset="0.544" style="stop-color:#BEBEBE;stop-opacity:1.079961e-02"/>
					<stop  offset="0.5686" style="stop-color:#989898;stop-opacity:1.883349e-02"/>
					<stop  offset="0.5952" style="stop-color:#787878;stop-opacity:2.756772e-02"/>
					<stop  offset="0.6248" style="stop-color:#5C5C5C;stop-opacity:3.722383e-02"/>
					<stop  offset="0.6581" style="stop-color:#464646;stop-opacity:4.812988e-02"/>
					<stop  offset="0.697" style="stop-color:#353535;stop-opacity:6.085929e-02"/>
					<stop  offset="0.7451" style="stop-color:#2A2A2A;stop-opacity:7.660964e-02"/>
					<stop  offset="0.8126" style="stop-color:#232323;stop-opacity:9.869440e-02"/>
					<stop  offset="1" style="stop-color:#212121;stop-opacity:0.16"/>
				</linearGradient>
				<path class="st33" d="M86.5,110.4c-0.5-1-24.7,0-24.7,0c-8.3-0.5-8.3,5.9-8.3,5.9l-4.2,59.8c-1.5,7.9,4.6,8.2,4.6,8.2l25.2,0.7
					c4.2,0.5,6.6-0.7,6.9-2.5c0.2-1.7,2.9-65,2.9-65C89.7,111.2,86.5,110.4,86.5,110.4z M85.5,164l-33.7-0.6l2.2-37.8l33.8,0.5
					L85.5,164z"/>
			</g>
			<g class="st12">
				<path class="st13" d="M80.9,184.5c-7.3-0.5-14.6-0.5-21.8-0.7c-2.2-0.1-5.4,0.4-7.4-0.9c-2.7-1.8-2-5-1.9-7.7
					c0.9-15.4,2.1-30.8,3.2-46.2c0.3-4.1,0-8.8,0.9-12.9c0.9-4.2,4.6-4.8,8.3-4.9c5.4-0.1,10.9-0.4,16.3-0.4c7.5,0,10.2-0.4,10,8.1
					c-0.2,6.6-0.6,13.1-0.8,19.7c-0.4,10-0.9,20-1.3,29.9c-0.2,3.5-0.3,7-0.5,10.5C85.6,182.5,85.4,184.2,80.9,184.5
					c0,0,0,0.7,0,0.7c3.7-0.3,4.7-1.3,4.9-4.5c0.2-3.2,0.3-6.4,0.5-9.5c0.4-9.7,0.9-19.4,1.3-29.1c0.3-7.5,0.6-14.9,1-22.4
					c0.1-3,1-7.7-2.2-9.3c-0.9-0.4-2.3-0.3-3.4-0.4c-3.8-0.1-7.6,0-11.4,0.1c-3.9,0.1-10.5-0.7-14.2,0.9c-4.4,2-3.7,7.9-4,11.9
					c-1.2,17-2.4,33.9-3.5,50.9c-0.3,4.5-1.4,10,5,10.5c8.7,0.8,17.5,0.3,26.2,0.8C80.9,185.2,80.9,184.5,80.9,184.5z"/>
				<path class="st13" d="M51.4,164c11.5,0.2,23,0.4,34.4,0.7c0,0,0,0,0,0c0.7-12.9,1.5-25.8,2.2-38.7c0-0.1,0-0.7,0-0.7
					c-11.5-0.2-23-0.4-34.5-0.5c0,0,0,0,0,0c-0.7,12.8-1.5,25.7-2.2,38.5C51.4,163.5,51.4,163.9,51.4,164
					c0.6-10.7,1.2-21.4,1.9-32.2c0.1-1.4-0.4-4.3,0.3-5.6c0.6-1.1,0.1-0.6,1.8-0.8c5.6-0.7,11.9,0.2,17.5,0.3
					c4.7,0.1,10.3-0.7,14.9,0.2c0.8,0.2-0.1-1.1,0.3-0.3c0.2,0.4-0.1,1.4-0.1,1.8c-0.2,2.7-0.3,5.4-0.5,8.1
					c-0.4,6.6-0.8,13.2-1.1,19.8c-0.1,1.9,0.4,7.7-1.1,8.6c-1.4,0.8-5.6-0.1-7.2-0.1c-3.8-0.1-7.6-0.1-11.4-0.2
					c-5.1-0.1-10.2-0.2-15.2-0.3C51.4,163.3,51.4,164,51.4,164z"/>
			</g>
			<path class="st14" d="M86.5,110.4c-0.5-1-24.7,0-24.7,0c-8.3-0.5-8.3,5.9-8.3,5.9l-4.2,59.8c-1.5,7.9,4.6,8.2,4.6,8.2l25.2,0.7
				c4.2,0.5,6.6-0.7,6.9-2.5c0.2-1.7,2.9-65,2.9-65C89.7,111.2,86.5,110.4,86.5,110.4z M85.5,164l-33.7-0.6l2.2-37.8l33.8,0.5
				L85.5,164z"/>
			<g class="st15">
				<path d="M86.5,110.4c-1.9-1.6-8.3-0.4-10.6-0.4c-4.4,0.1-8.8,0.3-13.2,0.4c-6.5,0.1-9.1,2.5-9.5,8.4
					c-1.2,17.8-2.5,35.6-3.7,53.5c-0.2,3.4-1.7,8.5,1.5,11c1.8,1.4,4,1.2,6.1,1.2c5,0.1,10.1,0.3,15.1,0.4c3,0.1,8.3,1,11.2,0
					c2.8-1,2.5-2.9,2.7-5.4c0.5-8.8,0.8-17.7,1.2-26.5c0.5-10.4,0.9-20.8,1.4-31.2C88.9,119,90.3,111.5,86.5,110.4c0,0,0,0.1,0,0.1
					c4,1.2,2.3,11.6,2.1,15c-0.4,9-0.8,18-1.2,27c-0.4,8.4-0.7,16.8-1.1,25.2c-0.1,1.5,0.3,4.2-0.5,5.6c-1.6,2.9-7,1.8-9.8,1.7
					c-7.1-0.2-14.9,0.5-22-0.6c-6.3-1-4.6-8.3-4.3-13c1.2-16.8,2.3-33.6,3.5-50.4c0.4-6.4,1.4-10.2,9.2-10.4c4.3-0.1,8.7-0.3,13-0.4
					c2.3,0,9.1-1.2,11.1,0.4C86.5,110.5,86.5,110.4,86.5,110.4z"/>
				<path d="M85.5,163.9c-10.3-0.2-20.6-0.4-31-0.6c-0.5,0-2.6,0.1-2.8-0.1c-0.5-0.5,0.2-4.2,0.3-4.9c0.4-6.4,0.7-12.9,1.1-19.3
					c0.2-2.8,0.3-5.7,0.5-8.5c0-0.8-0.3-4.2,0.3-4.8c1.2-1.3,8.8-0.1,10.6-0.1c6.4,0.1,12.8,0.2,19.2,0.3c0.6,0,3.6-0.4,4,0.1
					c0.2,0.2-0.1,2.9-0.2,3.5C86.8,141,86.2,152.5,85.5,163.9c0,0,0,0.1,0,0.1c0.7-12.7,1.5-25.3,2.2-38c0,0,0-0.1,0-0.1
					c-11.3-0.2-22.5-0.3-33.8-0.5c0,0,0,0,0,0c-0.7,12.6-1.5,25.2-2.2,37.8c0,0,0,0.1,0,0.1c11.2,0.2,22.5,0.4,33.7,0.6
					C85.5,164,85.5,163.9,85.5,163.9z"/>
			</g>
		</g>
		<path class="st6" d="M62.4,185.6c0,0,2,0.4,2.8,12.1c0,0,5.9-3.5,9.1-4.2c0,0-1.2-7.5,0-7.4c1.2,0,0,0,0,0L62.4,185.6L62.4,185.6"
			/>
		<path class="st4" d="M74.2,186c0,0-1.7-0.2,0,7.4c0,0,9.1-1.7,11.3-3.2c0,0-2.9-1.7-3.4-4c-0.5-2.2,0,0,0,0L74.2,186"/>
		<path class="st3" d="M85.5,190.3c0,0,5.6-3.2,5.1-4c0,0-3.2,0.2-4.2-2.2c-1-2.5,0,0,0,0s-1.2,1.7-4.4,2.2c-3.2,0.5,0,0,0,0
			S82.8,189.5,85.5,190.3z"/>
		<path class="st4" d="M89.8,121l-0.5,9C98,124.5,89.8,121,89.8,121z"/>
		<linearGradient id="bagskærm_13_" gradientUnits="userSpaceOnUse" x1="48.8231" y1="148.2509" x2="90.144" y2="148.2509">
			<stop  offset="0" style="stop-color:#FFFFFF"/>
			<stop  offset="0.3506" style="stop-color:#CACACA"/>
		</linearGradient>
		<path id="bagskærm_12_" class="st34" d="M85.7,110.2c0,0,3.4,0.5,3.2,5.7l-3,66.7c0,0-0.4,3.2-6.8,2.5l-26.4-1
			c-0.2-0.4-3-0.5-3.7-5.9c0,0-0.5,3,0,4.2c0,0,1.5,3.2,5.1,3l27.9,1c0,0,4.2-0.5,4.4-2.2l1.4-27.2l2.2-42.5c0,0-0.5-2.5-1.2-2.7
			C88.9,111.7,87.4,110.2,85.7,110.2z"/>
		<ellipse id="hjem-knap_12_" class="st17" cx="67.5" cy="179.8" rx="3.2" ry="3"/>
		<path class="st2" d="M95.8,148c-2.4,1.2-7.8,1.5-7.8,1.5l-0.2,7.7c3.6-2.1,7.1-7.3,8.1-8.8V148z"/>
		<polygon class="st20" points="51.8,163.3 51,175.7 85,176.4 85.5,164 		"/>
		<line class="st20" x1="87.7" y1="126" x2="53.9" y2="125.5"/>
		<polygon class="st20" points="87.7,126 88.2,117.3 54.7,116.9 53.9,125.5 		"/>
		<ellipse class="st21" cx="68.1" cy="171.7" rx="3.3" ry="3.3"/>
		<ellipse class="st22" cx="68" cy="171.6" rx="2.2" ry="2.2"/>
		<ellipse class="st23" cx="80.4" cy="173.2" rx="1.2" ry="1.2"/>
		<ellipse class="st24" cx="81.4" cy="171.9" rx="1.4" ry="1.4"/>
		<ellipse class="st25" cx="82.1" cy="173.3" rx="1.3" ry="1.3"/>
		<rect x="65.5" y="165.2" class="st19" width="5.8" height="2.8"/>
		<text transform="matrix(0.99 0 0 1 65.4677 166.3007)" class="st51 st52 st53">PHOTO</text>
		<line class="st20" x1="53.9" y1="125.5" x2="85.5" y2="164.1"/>
		<path class="st4" d="M96,148.2c-0.3-4.9-3.4-6.3-3.4-6.3c-8.3-2.7-9.3,3.7-6.3,6.9c2.7,2.9,8.5,0.1,9.6-0.4
			C95.9,148.3,96,148.2,96,148.2z"/>
		<path class="st5" d="M86,143.6c0.2,0.7,1,3.2,2.4,4.2c0,0,2.7-0.5,2.9-2c0.3-1.6-2.2-3.7-2.7-3.7S86.7,142.1,86,143.6z"/>
		<path class="st2" d="M87.1,172.8c0,0,7.7-4.8,7.7-5.8c1.6-2.2-3.1-1.5-7.3-2.2c-2.9-0.5,0,0,0,0L87.1,172.8"/>
		<path class="st4" d="M96,160.4c0,0,0.8,2.9-0.9,6c0,0-6.7-0.4-7.6-1.6s-2.2-5.7,0.5-7.9c0,0,1.2-1.5,6.4,1.2
			C95.1,158.9,95.7,159.6,96,160.4z"/>
		<path class="st5" d="M88.7,156.9c0,0-1.5,3.5-1.2,4.2c0,0,3.9,1.5,3.9,0.7c0-0.7,1.2-3,0.5-3.7C91.9,158.1,90.9,156.9,88.7,156.9z
			"/>
		<circle id="kamera_22_" class="st18" cx="66" cy="114.8" r="0.6"/>

			<ellipse id="kamera2_22_" transform="matrix(0.7071 -0.7071 0.7071 0.7071 -58.7436 83.6869)" class="st18" cx="71.6" cy="112.8" rx="0.6" ry="0.7"/>
		<path id="tommelfinger_12_" class="st4" d="M16.3,178c0,0,15.5-29.5,15.2-30.1c-0.1-0.2,7.6-13,8.1-13.3c0.8-0.6,4.6-6.6,9.3-12.4
			c0,0,5.9-0.6,3.6,6.3c-2.3,6.8,0,0,0,0s-0.6,10-3.6,12.5c0,0-1,6.4-2.7,7.2l-0.7,3.2l4.9,4.8l-1.3,20c0,0-2.8,9-10.4,12.7
			c0,0-8.2,5.7-13.4,2.1C25.1,191,14.8,178.5,16.3,178z"/>
		<path class="st5" d="M48.5,122.7c0,0,1.2,0.5,1,1l-2.9,4.2c0,0-1.7,0.3-1.3-1C45.2,127,48,122.7,48.5,122.7z"/>
	</g>
	<g>
		<ellipse id="kamera_16_" class="st18" cx="266.2" cy="114.3" rx="0.6" ry="0.6"/>
		<ellipse id="kamera2_16_" class="st18" cx="271.7" cy="112" rx="0.9" ry="0.7"/>
		<ellipse id="kamera_15_" class="st18" cx="266.2" cy="114.3" rx="0.6" ry="0.6"/>
		<ellipse id="kamera2_15_" class="st18" cx="271.7" cy="112" rx="0.9" ry="0.7"/>
		<path id="håndled_6_" class="st1" d="M216.8,177.1c0,0,11.7,16.6,10.5,19.8c0,0,0,10.1,3.2,13.1h-30.3v-23.5
			C200.2,186.5,216.8,178.9,216.8,177.1z"/>
		<path id="håndflade_8_" class="st3" d="M230.3,209.8c-0.1,0,12.7-3,15.4-2.5c2.7,0.5,7.8-0.7,19.6-9.6c0,0,0.6-10.8-2.8-12.1
			c-3.3-1.3,0,0,0,0l0,0l-9.9-0.4c0.5-0.1-4-0.4-3.5-6.8c0.5-6.5,0,0,0,0l0.6-7.8c0,0-2.9,11-5.8,13.7c0,0-8.8,10.1-18.6,6.7
			c0,0,1.4,8.8,2,10.6C227.2,204.1,227.9,209,230.3,209.8z"/>
		<g>
			<linearGradient id="SVGID_10_" gradientUnits="userSpaceOnUse" x1="269.1808" y1="185.1837" x2="269.1808" y2="110">
				<stop  offset="0" style="stop-color:#656565"/>
				<stop  offset="0.159" style="stop-color:#212121"/>
				<stop  offset="0.359" style="stop-color:#3D3D3D"/>
				<stop  offset="0.759" style="stop-color:#222222"/>
				<stop  offset="0.9077" style="stop-color:#444444"/>
				<stop  offset="0.9538" style="stop-color:#404040"/>
			</linearGradient>
			<path class="st35" d="M286.6,110.4c-0.5-1-24.7,0-24.7,0c-8.3-0.5-8.3,5.9-8.3,5.9l-4.2,59.8c-1.5,7.9,4.6,8.2,4.6,8.2l25.2,0.7
				c4.2,0.5,6.6-0.7,6.9-2.5c0.2-1.7,2.9-65,2.9-65C289.8,111.2,286.6,110.4,286.6,110.4z M285.6,164l-33.7-0.6l2.2-37.8l33.8,0.5
				L285.6,164z"/>
			<g class="st8">
				<linearGradient id="SVGID_11_" gradientUnits="userSpaceOnUse" x1="269.1808" y1="185.1837" x2="269.1808" y2="110">
					<stop  offset="0" style="stop-color:#161616"/>
					<stop  offset="0.5" style="stop-color:#000000"/>
					<stop  offset="0.5988" style="stop-color:#090909"/>
					<stop  offset="0.7705" style="stop-color:#131313"/>
					<stop  offset="1" style="stop-color:#161616"/>
				</linearGradient>
				<path class="st36" d="M286.6,110.4c-0.5-1-24.7,0-24.7,0c-8.3-0.5-8.3,5.9-8.3,5.9l-4.2,59.8c-1.5,7.9,4.6,8.2,4.6,8.2l25.2,0.7
					c4.2,0.5,6.6-0.7,6.9-2.5c0.2-1.7,2.9-65,2.9-65C289.8,111.2,286.6,110.4,286.6,110.4z M285.6,164l-33.7-0.6l2.2-37.8l33.8,0.5
					L285.6,164z"/>
			</g>
			<g class="st10">
				<linearGradient id="SVGID_12_" gradientUnits="userSpaceOnUse" x1="269.1808" y1="110" x2="269.1808" y2="185.1837">
					<stop  offset="0" style="stop-color:#FFFFFF;stop-opacity:0.77"/>
					<stop  offset="0.2033" style="stop-color:#FFFFFF;stop-opacity:0.65"/>
					<stop  offset="0.3448" style="stop-color:#FFFFFF;stop-opacity:0.65"/>
					<stop  offset="0.3462" style="stop-color:#FFFFFF;stop-opacity:0.65"/>
					<stop  offset="0.511" style="stop-color:#FFFFFF;stop-opacity:0"/>
					<stop  offset="0.5221" style="stop-color:#E7E7E7;stop-opacity:3.650875e-03"/>
					<stop  offset="0.544" style="stop-color:#BEBEBE;stop-opacity:1.079961e-02"/>
					<stop  offset="0.5686" style="stop-color:#989898;stop-opacity:1.883349e-02"/>
					<stop  offset="0.5952" style="stop-color:#787878;stop-opacity:2.756772e-02"/>
					<stop  offset="0.6248" style="stop-color:#5C5C5C;stop-opacity:3.722383e-02"/>
					<stop  offset="0.6581" style="stop-color:#464646;stop-opacity:4.812988e-02"/>
					<stop  offset="0.697" style="stop-color:#353535;stop-opacity:6.085929e-02"/>
					<stop  offset="0.7451" style="stop-color:#2A2A2A;stop-opacity:7.660964e-02"/>
					<stop  offset="0.8126" style="stop-color:#232323;stop-opacity:9.869440e-02"/>
					<stop  offset="1" style="stop-color:#212121;stop-opacity:0.16"/>
				</linearGradient>
				<path class="st37" d="M286.6,110.4c-0.5-1-24.7,0-24.7,0c-8.3-0.5-8.3,5.9-8.3,5.9l-4.2,59.8c-1.5,7.9,4.6,8.2,4.6,8.2l25.2,0.7
					c4.2,0.5,6.6-0.7,6.9-2.5c0.2-1.7,2.9-65,2.9-65C289.8,111.2,286.6,110.4,286.6,110.4z M285.6,164l-33.7-0.6l2.2-37.8l33.8,0.5
					L285.6,164z"/>
			</g>
			<g class="st12">
				<path class="st13" d="M281,184.5c-7.3-0.5-14.6-0.5-21.8-0.7c-2.2-0.1-5.4,0.4-7.4-0.9c-2.7-1.8-2-5-1.9-7.7
					c0.9-15.4,2.1-30.8,3.2-46.2c0.3-4.1,0-8.8,0.9-12.9c0.9-4.2,4.6-4.8,8.3-4.9c5.4-0.1,10.9-0.4,16.3-0.4c7.5,0,10.2-0.4,10,8.1
					c-0.2,6.6-0.6,13.1-0.8,19.7c-0.4,10-0.9,20-1.3,29.9c-0.2,3.5-0.3,7-0.5,10.5C285.8,182.5,285.5,184.2,281,184.5
					c0,0,0,0.7,0,0.7c3.7-0.3,4.7-1.3,4.9-4.5c0.2-3.2,0.3-6.4,0.5-9.5c0.4-9.7,0.9-19.4,1.3-29.1c0.3-7.5,0.6-14.9,1-22.4
					c0.1-3,1-7.7-2.2-9.3c-0.9-0.4-2.3-0.3-3.4-0.4c-3.8-0.1-7.6,0-11.4,0.1c-3.9,0.1-10.5-0.7-14.2,0.9c-4.4,2-3.7,7.9-4,11.9
					c-1.2,17-2.4,33.9-3.5,50.9c-0.3,4.5-1.4,10,5,10.5c8.7,0.8,17.5,0.3,26.2,0.8C281,185.2,281.1,184.5,281,184.5z"/>
				<path class="st13" d="M251.5,164c11.5,0.2,23,0.4,34.4,0.7c0,0,0,0,0,0c0.7-12.9,1.5-25.8,2.2-38.7c0-0.1,0-0.7,0-0.7
					c-11.5-0.2-23-0.4-34.5-0.5c0,0,0,0,0,0c-0.7,12.8-1.5,25.7-2.2,38.5C251.5,163.5,251.5,163.9,251.5,164
					c0.6-10.7,1.2-21.4,1.9-32.2c0.1-1.4-0.4-4.3,0.3-5.6c0.6-1.1,0.1-0.6,1.8-0.8c5.6-0.7,11.9,0.2,17.5,0.3
					c4.7,0.1,10.3-0.7,14.9,0.2c0.8,0.2-0.1-1.1,0.3-0.3c0.2,0.4-0.1,1.4-0.1,1.8c-0.2,2.7-0.3,5.4-0.5,8.1
					c-0.4,6.6-0.8,13.2-1.1,19.8c-0.1,1.9,0.4,7.7-1.1,8.6c-1.4,0.8-5.6-0.1-7.2-0.1c-3.8-0.1-7.6-0.1-11.4-0.2
					c-5.1-0.1-10.2-0.2-15.2-0.3C251.5,163.3,251.5,164,251.5,164z"/>
			</g>
			<path class="st14" d="M286.6,110.4c-0.5-1-24.7,0-24.7,0c-8.3-0.5-8.3,5.9-8.3,5.9l-4.2,59.8c-1.5,7.9,4.6,8.2,4.6,8.2l25.2,0.7
				c4.2,0.5,6.6-0.7,6.9-2.5c0.2-1.7,2.9-65,2.9-65C289.8,111.2,286.6,110.4,286.6,110.4z M285.6,164l-33.7-0.6l2.2-37.8l33.8,0.5
				L285.6,164z"/>
			<g class="st15">
				<path d="M286.6,110.4c-1.9-1.6-8.3-0.4-10.6-0.4c-4.4,0.1-8.8,0.3-13.2,0.4c-6.5,0.1-9.1,2.5-9.5,8.4
					c-1.2,17.8-2.5,35.6-3.7,53.5c-0.2,3.4-1.7,8.5,1.5,11c1.8,1.4,4,1.2,6.1,1.2c5,0.1,10.1,0.3,15.1,0.4c3,0.1,8.3,1,11.2,0
					c2.8-1,2.5-2.9,2.7-5.4c0.5-8.8,0.8-17.7,1.2-26.5c0.5-10.4,0.9-20.8,1.4-31.2C289,119,290.4,111.5,286.6,110.4c0,0,0,0.1,0,0.1
					c4,1.2,2.3,11.6,2.1,15c-0.4,9-0.8,18-1.2,27c-0.4,8.4-0.7,16.8-1.1,25.2c-0.1,1.5,0.3,4.2-0.5,5.6c-1.6,2.9-7,1.8-9.8,1.7
					c-7.1-0.2-14.9,0.5-22-0.6c-6.3-1-4.6-8.3-4.3-13c1.2-16.8,2.3-33.6,3.5-50.4c0.4-6.4,1.4-10.2,9.2-10.4c4.3-0.1,8.7-0.3,13-0.4
					c2.3,0,9.1-1.2,11.1,0.4C286.6,110.5,286.6,110.4,286.6,110.4z"/>
				<path d="M285.6,163.9c-10.3-0.2-20.6-0.4-31-0.6c-0.5,0-2.6,0.1-2.8-0.1c-0.5-0.5,0.2-4.2,0.3-4.9c0.4-6.4,0.7-12.9,1.1-19.3
					c0.2-2.8,0.3-5.7,0.5-8.5c0-0.8-0.3-4.2,0.3-4.8c1.2-1.3,8.8-0.1,10.6-0.1c6.4,0.1,12.8,0.2,19.2,0.3c0.6,0,3.6-0.4,4,0.1
					c0.2,0.2-0.1,2.9-0.2,3.5C287,141,286.3,152.5,285.6,163.9c0,0,0,0.1,0,0.1c0.7-12.7,1.5-25.3,2.2-38c0,0,0-0.1,0-0.1
					c-11.3-0.2-22.5-0.3-33.8-0.5c0,0,0,0,0,0c-0.7,12.6-1.5,25.2-2.2,37.8c0,0,0,0.1,0,0.1c11.2,0.2,22.5,0.4,33.7,0.6
					C285.6,164,285.6,163.9,285.6,163.9z"/>
			</g>
		</g>
		<path class="st6" d="M262.5,185.6c0,0,2,0.4,2.8,12.1c0,0,5.9-3.5,9.1-4.2c0,0-1.2-7.5,0-7.4c1.2,0,0,0,0,0L262.5,185.6
			L262.5,185.6"/>
		<path class="st4" d="M274.4,186c0,0-1.7-0.2,0,7.4c0,0,9.1-1.7,11.3-3.2c0,0-2.9-1.7-3.4-4c-0.5-2.2,0,0,0,0L274.4,186"/>
		<path class="st3" d="M285.6,190.3c0,0,5.6-3.2,5.1-4c0,0-3.2,0.2-4.2-2.2c-1-2.5,0,0,0,0s-1.2,1.7-4.4,2.2c-3.2,0.5,0,0,0,0
			S282.9,189.5,285.6,190.3z"/>
		<path class="st4" d="M290.8,186.3c0,0,4.2-2.7,2.9-6.7c0,0-1.7-7.2-4.6-6.2c0,0-2.2,0.5-2.3,1.4s0,0,0,0s-0.6,8.5-0.1,9.2
			c0.5,0.7,0,0,0,0S286.9,186.6,290.8,186.3z"/>
		<path class="st5" d="M289.5,176.9c0,0,1.2-1.1,0.8-3l1.1,2.9c0,0,0,2.1-1,1.1C289.5,176.9,289.5,176.9,289.5,176.9z"/>
		<path class="st4" d="M288.9,130l-0.5,9C297.2,133.5,288.9,130,288.9,130z"/>
		<linearGradient id="bagskærm_14_" gradientUnits="userSpaceOnUse" x1="248.9597" y1="148.2509" x2="290.2805" y2="148.2509">
			<stop  offset="0" style="stop-color:#FFFFFF"/>
			<stop  offset="0.3506" style="stop-color:#CACACA"/>
		</linearGradient>
		<path id="bagskærm_6_" class="st38" d="M285.9,110.2c0,0,3.4,0.5,3.2,5.7l-3,66.7c0,0-0.4,3.2-6.8,2.5l-26.4-1
			c-0.2-0.4-3-0.5-3.7-5.9c0,0-0.5,3,0,4.2c0,0,1.5,3.2,5.1,3l27.9,1c0,0,4.2-0.5,4.4-2.2l1.4-27.2l2.2-42.5c0,0-0.5-2.5-1.2-2.7
			C289.1,111.7,287.5,110.2,285.9,110.2z"/>
		<ellipse id="hjem-knap_6_" class="st17" cx="267.6" cy="179.8" rx="3.2" ry="3"/>
		<polygon class="st20" points="251.9,163.3 251.1,175.7 285.1,176.4 285.6,164 		"/>
		<line class="st20" x1="287.8" y1="126" x2="254.1" y2="125.5"/>
		<polygon class="st20" points="287.8,126 288.3,117.3 254.8,116.9 254.1,125.5 		"/>
		<ellipse class="st21" cx="268.3" cy="171.7" rx="3.3" ry="3.3"/>
		<ellipse class="st22" cx="268.1" cy="171.6" rx="2.2" ry="2.2"/>
		<ellipse class="st23" cx="280.5" cy="173.2" rx="1.2" ry="1.2"/>
		<ellipse class="st24" cx="281.5" cy="171.9" rx="1.4" ry="1.4"/>
		<ellipse class="st25" cx="282.3" cy="173.3" rx="1.3" ry="1.3"/>
		<rect x="265.6" y="165.2" class="st19" width="5.8" height="2.8"/>
		<text transform="matrix(0.99 0 0 1 265.6042 166.3007)" class="st51 st52 st53">PHOTO</text>
		<line class="st20" x1="254.1" y1="125.5" x2="285.6" y2="164.1"/>
		<path class="st4" d="M296.1,148.2c-0.3-4.9-3.4-6.3-3.4-6.3c-8.3-2.7-9.3,3.7-6.3,6.9c2.7,2.9,8.5,0.1,9.6-0.4
			C296,148.3,296.1,148.2,296.1,148.2z"/>
		<path class="st5" d="M286.1,143.6c0.2,0.7,1,3.2,2.4,4.2c0,0,2.7-0.5,2.9-2c0.3-1.6-2.2-3.7-2.7-3.7
			C288.3,142.1,286.9,142.1,286.1,143.6z"/>
		<path class="st2" d="M287.2,172.8c0,0,7.7-4.8,7.7-5.8c1.6-2.2-3.1-1.5-7.3-2.2c-2.9-0.5,0,0,0,0L287.2,172.8"/>
		<path class="st4" d="M296.2,160.4c0,0,0.8,2.9-0.9,6c0,0-6.7-0.4-7.6-1.6c-1-1.2-2.2-5.7,0.5-7.9c0,0,1.2-1.5,6.4,1.2
			C295.2,158.9,295.8,159.6,296.2,160.4z"/>
		<path class="st5" d="M288.8,156.9c0,0-1.5,3.5-1.2,4.2c0,0,3.9,1.5,3.9,0.7c0-0.7,1.2-3,0.5-3.7C292,158.1,291,156.9,288.8,156.9z
			"/>
		<path class="st2" d="M295.9,148c-2.4,1.2-7.8,1.5-7.8,1.5l-0.2,7.7c3.6-2.1,7.1-7.3,8.1-8.8V148z"/>
		<rect x="200" y="105" class="st19" width="100" height="105"/>
		<path id="tommelfinger_6_" class="st4" d="M250.9,153.3c0.1-0.2,14.6-3.3,15.1-3.2c1,0.2,7.9-1.1,15.3-1.7c0,0,4.4,3.9-2.1,6.9
			c-6.5,3,0,0,0,0s-7.7,6.4-11.4,6c0,0-5.3,3.7-7,2.9l-2.8,1.7l-12.8,22c0,0-5.7,6.6-12,6.1c-1-0.1-2,0.3-3,0c-0.5-0.1-3.5-1.8-4-2
			c0,0-9.6-7.4-10.6-13.7C215.6,178.3,250.6,154,250.9,153.3z"/>
		<path class="st5" d="M280.6,148.2c0,0,0.6,1.2,0,1.4l-5,1c0,0-1.4-0.9-0.3-1.6C275.4,149,280.3,147.8,280.6,148.2z"/>
		<polygon class="st20" points="287.8,126 288.3,117.3 254.8,116.9 254,125.5 		"/>
		<circle id="kamera_4_" class="st18" cx="266.2" cy="114.8" r="0.6"/>

			<ellipse id="kamera2_4_" transform="matrix(0.7071 -0.7071 0.7071 0.7071 -0.1364 225.1886)" class="st18" cx="271.8" cy="112.8" rx="0.6" ry="0.7"/>
	</g>
	<g>
		<g>
			<ellipse id="kamera_9_" class="st18" cx="366.2" cy="114.3" rx="0.6" ry="0.6"/>
			<ellipse id="kamera2_9_" class="st18" cx="371.7" cy="112" rx="0.9" ry="0.7"/>
			<ellipse id="kamera_8_" class="st18" cx="366.2" cy="114.3" rx="0.6" ry="0.6"/>
			<ellipse id="kamera2_8_" class="st18" cx="371.7" cy="112" rx="0.9" ry="0.7"/>
			<path id="håndled_4_" class="st1" d="M316.8,177.1c0,0,11.7,16.6,10.5,19.8c0,0,0,10.1,3.2,13.1h-30.3v-23.5
				C300.2,186.5,316.8,178.9,316.8,177.1z"/>
			<path id="håndflade_7_" class="st3" d="M330.3,209.8c-0.1,0,12.7-3,15.4-2.5c2.7,0.5,7.8-0.7,19.6-9.6c0,0,0.6-10.8-2.8-12.1
				c-3.3-1.3,0,0,0,0l0,0l-9.9-0.4c0.5-0.1-4-0.4-3.5-6.8c0.5-6.5,0,0,0,0l0.6-7.8c0,0-2.9,11-5.8,13.7c0,0-8.8,10.1-18.6,6.7
				c0,0,1.4,8.8,2,10.6C327.2,204.1,327.9,209,330.3,209.8z"/>
			<g>
				<linearGradient id="SVGID_13_" gradientUnits="userSpaceOnUse" x1="369.1808" y1="185.1837" x2="369.1808" y2="110">
					<stop  offset="0" style="stop-color:#656565"/>
					<stop  offset="0.159" style="stop-color:#212121"/>
					<stop  offset="0.359" style="stop-color:#3D3D3D"/>
					<stop  offset="0.759" style="stop-color:#222222"/>
					<stop  offset="0.9077" style="stop-color:#444444"/>
					<stop  offset="0.9538" style="stop-color:#404040"/>
				</linearGradient>
				<path class="st39" d="M386.6,110.4c-0.5-1-24.7,0-24.7,0c-8.3-0.5-8.3,5.9-8.3,5.9l-4.2,59.8c-1.5,7.9,4.6,8.2,4.6,8.2l25.2,0.7
					c4.2,0.5,6.6-0.7,6.9-2.5c0.2-1.7,2.9-65,2.9-65C389.8,111.2,386.6,110.4,386.6,110.4z M385.6,164l-33.7-0.6l2.2-37.8l33.8,0.5
					L385.6,164z"/>
				<g class="st8">
					<linearGradient id="SVGID_14_" gradientUnits="userSpaceOnUse" x1="369.1808" y1="185.1837" x2="369.1808" y2="110">
						<stop  offset="0" style="stop-color:#161616"/>
						<stop  offset="0.5" style="stop-color:#000000"/>
						<stop  offset="0.5988" style="stop-color:#090909"/>
						<stop  offset="0.7705" style="stop-color:#131313"/>
						<stop  offset="1" style="stop-color:#161616"/>
					</linearGradient>
					<path class="st40" d="M386.6,110.4c-0.5-1-24.7,0-24.7,0c-8.3-0.5-8.3,5.9-8.3,5.9l-4.2,59.8c-1.5,7.9,4.6,8.2,4.6,8.2
						l25.2,0.7c4.2,0.5,6.6-0.7,6.9-2.5c0.2-1.7,2.9-65,2.9-65C389.8,111.2,386.6,110.4,386.6,110.4z M385.6,164l-33.7-0.6l2.2-37.8
						l33.8,0.5L385.6,164z"/>
				</g>
				<g class="st10">
					<linearGradient id="SVGID_15_" gradientUnits="userSpaceOnUse" x1="369.1808" y1="110" x2="369.1808" y2="185.1837">
						<stop  offset="0" style="stop-color:#FFFFFF;stop-opacity:0.77"/>
						<stop  offset="0.2033" style="stop-color:#FFFFFF;stop-opacity:0.65"/>
						<stop  offset="0.3448" style="stop-color:#FFFFFF;stop-opacity:0.65"/>
						<stop  offset="0.3462" style="stop-color:#FFFFFF;stop-opacity:0.65"/>
						<stop  offset="0.511" style="stop-color:#FFFFFF;stop-opacity:0"/>
						<stop  offset="0.5221" style="stop-color:#E7E7E7;stop-opacity:3.650875e-03"/>
						<stop  offset="0.544" style="stop-color:#BEBEBE;stop-opacity:1.079961e-02"/>
						<stop  offset="0.5686" style="stop-color:#989898;stop-opacity:1.883349e-02"/>
						<stop  offset="0.5952" style="stop-color:#787878;stop-opacity:2.756772e-02"/>
						<stop  offset="0.6248" style="stop-color:#5C5C5C;stop-opacity:3.722383e-02"/>
						<stop  offset="0.6581" style="stop-color:#464646;stop-opacity:4.812988e-02"/>
						<stop  offset="0.697" style="stop-color:#353535;stop-opacity:6.085929e-02"/>
						<stop  offset="0.7451" style="stop-color:#2A2A2A;stop-opacity:7.660964e-02"/>
						<stop  offset="0.8126" style="stop-color:#232323;stop-opacity:9.869440e-02"/>
						<stop  offset="1" style="stop-color:#212121;stop-opacity:0.16"/>
					</linearGradient>
					<path class="st41" d="M386.6,110.4c-0.5-1-24.7,0-24.7,0c-8.3-0.5-8.3,5.9-8.3,5.9l-4.2,59.8c-1.5,7.9,4.6,8.2,4.6,8.2
						l25.2,0.7c4.2,0.5,6.6-0.7,6.9-2.5c0.2-1.7,2.9-65,2.9-65C389.8,111.2,386.6,110.4,386.6,110.4z M385.6,164l-33.7-0.6l2.2-37.8
						l33.8,0.5L385.6,164z"/>
				</g>
				<g class="st12">
					<path class="st13" d="M381,184.5c-7.3-0.5-14.6-0.5-21.8-0.7c-2.2-0.1-5.4,0.4-7.4-0.9c-2.7-1.8-2-5-1.9-7.7
						c0.9-15.4,2.1-30.8,3.2-46.2c0.3-4.1,0-8.8,0.9-12.9c0.9-4.2,4.6-4.8,8.3-4.9c5.4-0.1,10.9-0.4,16.3-0.4c7.5,0,10.2-0.4,10,8.1
						c-0.2,6.6-0.6,13.1-0.8,19.7c-0.4,10-0.9,20-1.3,29.9c-0.2,3.5-0.3,7-0.5,10.5C385.8,182.5,385.5,184.2,381,184.5
						c0,0,0,0.7,0,0.7c3.7-0.3,4.7-1.3,4.9-4.5c0.2-3.2,0.3-6.4,0.5-9.5c0.4-9.7,0.9-19.4,1.3-29.1c0.3-7.5,0.6-14.9,1-22.4
						c0.1-3,1-7.7-2.2-9.3c-0.9-0.4-2.3-0.3-3.4-0.4c-3.8-0.1-7.6,0-11.4,0.1c-3.9,0.1-10.5-0.7-14.2,0.9c-4.4,2-3.7,7.9-4,11.9
						c-1.2,17-2.4,33.9-3.5,50.9c-0.3,4.5-1.4,10,5,10.5c8.7,0.8,17.5,0.3,26.2,0.8C381,185.2,381.1,184.5,381,184.5z"/>
					<path class="st13" d="M351.5,164c11.5,0.2,23,0.4,34.4,0.7c0,0,0,0,0,0c0.7-12.9,1.5-25.8,2.2-38.7c0-0.1,0-0.7,0-0.7
						c-11.5-0.2-23-0.4-34.5-0.5c0,0,0,0,0,0c-0.7,12.8-1.5,25.7-2.2,38.5C351.5,163.5,351.5,163.9,351.5,164
						c0.6-10.7,1.2-21.4,1.9-32.2c0.1-1.4-0.4-4.3,0.3-5.6c0.6-1.1,0.1-0.6,1.8-0.8c5.6-0.7,11.9,0.2,17.5,0.3
						c4.7,0.1,10.3-0.7,14.9,0.2c0.8,0.2-0.1-1.1,0.3-0.3c0.2,0.4-0.1,1.4-0.1,1.8c-0.2,2.7-0.3,5.4-0.5,8.1
						c-0.4,6.6-0.8,13.2-1.1,19.8c-0.1,1.9,0.4,7.7-1.1,8.6c-1.4,0.8-5.6-0.1-7.2-0.1c-3.8-0.1-7.6-0.1-11.4-0.2
						c-5.1-0.1-10.2-0.2-15.2-0.3C351.5,163.3,351.5,164,351.5,164z"/>
				</g>
				<path class="st14" d="M386.6,110.4c-0.5-1-24.7,0-24.7,0c-8.3-0.5-8.3,5.9-8.3,5.9l-4.2,59.8c-1.5,7.9,4.6,8.2,4.6,8.2l25.2,0.7
					c4.2,0.5,6.6-0.7,6.9-2.5c0.2-1.7,2.9-65,2.9-65C389.8,111.2,386.6,110.4,386.6,110.4z M385.6,164l-33.7-0.6l2.2-37.8l33.8,0.5
					L385.6,164z"/>
				<g class="st15">
					<path d="M386.6,110.4c-1.9-1.6-8.3-0.4-10.6-0.4c-4.4,0.1-8.8,0.3-13.2,0.4c-6.5,0.1-9.1,2.5-9.5,8.4
						c-1.2,17.8-2.5,35.6-3.7,53.5c-0.2,3.4-1.7,8.5,1.5,11c1.8,1.4,4,1.2,6.1,1.2c5,0.1,10.1,0.3,15.1,0.4c3,0.1,8.3,1,11.2,0
						c2.8-1,2.5-2.9,2.7-5.4c0.5-8.8,0.8-17.7,1.2-26.5c0.5-10.4,0.9-20.8,1.4-31.2C389,119,390.4,111.5,386.6,110.4
						c0,0,0,0.1,0,0.1c4,1.2,2.3,11.6,2.1,15c-0.4,9-0.8,18-1.2,27c-0.4,8.4-0.7,16.8-1.1,25.2c-0.1,1.5,0.3,4.2-0.5,5.6
						c-1.6,2.9-7,1.8-9.8,1.7c-7.1-0.2-14.9,0.5-22-0.6c-6.3-1-4.6-8.3-4.3-13c1.2-16.8,2.3-33.6,3.5-50.4
						c0.4-6.4,1.4-10.2,9.2-10.4c4.3-0.1,8.7-0.3,13-0.4c2.3,0,9.1-1.2,11.1,0.4C386.6,110.5,386.6,110.4,386.6,110.4z"/>
					<path d="M385.6,163.9c-10.3-0.2-20.6-0.4-31-0.6c-0.5,0-2.6,0.1-2.8-0.1c-0.5-0.5,0.2-4.2,0.3-4.9c0.4-6.4,0.7-12.9,1.1-19.3
						c0.2-2.8,0.3-5.7,0.5-8.5c0-0.8-0.3-4.2,0.3-4.8c1.2-1.3,8.8-0.1,10.6-0.1c6.4,0.1,12.8,0.2,19.2,0.3c0.6,0,3.6-0.4,4,0.1
						c0.2,0.2-0.1,2.9-0.2,3.5C387,141,386.3,152.5,385.6,163.9c0,0,0,0.1,0,0.1c0.7-12.7,1.5-25.3,2.2-38c0,0,0-0.1,0-0.1
						c-11.3-0.2-22.5-0.3-33.8-0.5c0,0,0,0,0,0c-0.7,12.6-1.5,25.2-2.2,37.8c0,0,0,0.1,0,0.1c11.2,0.2,22.5,0.4,33.7,0.6
						C385.6,164,385.6,163.9,385.6,163.9z"/>
				</g>
			</g>
			<path class="st6" d="M362.5,185.6c0,0,2,0.4,2.8,12.1c0,0,5.9-3.5,9.1-4.2c0,0-1.2-7.5,0-7.4c1.2,0,0,0,0,0L362.5,185.6
				L362.5,185.6"/>
			<path class="st4" d="M374.4,186c0,0-1.7-0.2,0,7.4c0,0,9.1-1.7,11.3-3.2c0,0-2.9-1.7-3.4-4c-0.5-2.2,0,0,0,0L374.4,186"/>
			<path class="st3" d="M385.6,190.3c0,0,5.6-3.2,5.1-4c0,0-3.2,0.2-4.2-2.2c-1-2.5,0,0,0,0s-1.2,1.7-4.4,2.2c-3.2,0.5,0,0,0,0
				S382.9,189.5,385.6,190.3z"/>
			<path class="st4" d="M390.8,186.3c0,0,4.2-2.7,2.9-6.7c0,0-1.7-7.2-4.6-6.2c0,0-2.2,0.5-2.3,1.4s0,0,0,0s-0.6,8.5-0.1,9.2
				c0.5,0.7,0,0,0,0S386.9,186.6,390.8,186.3z"/>
			<path class="st5" d="M389.5,176.9c0,0,1.2-1.1,0.8-3l1.1,2.9c0,0,0,2.1-1,1.1C389.5,176.9,389.5,176.9,389.5,176.9z"/>
			<path class="st4" d="M388.9,130l-0.5,9C397.2,133.5,388.9,130,388.9,130z"/>
			<linearGradient id="bagskærm_15_" gradientUnits="userSpaceOnUse" x1="348.9597" y1="148.2509" x2="390.2805" y2="148.2509">
				<stop  offset="0" style="stop-color:#FFFFFF"/>
				<stop  offset="0.3506" style="stop-color:#CACACA"/>
			</linearGradient>
			<path id="bagskærm_4_" class="st42" d="M385.9,110.2c0,0,3.4,0.5,3.2,5.7l-3,66.7c0,0-0.4,3.2-6.8,2.5l-26.4-1
				c-0.2-0.4-3-0.5-3.7-5.9c0,0-0.5,3,0,4.2c0,0,1.5,3.2,5.1,3l27.9,1c0,0,4.2-0.5,4.4-2.2l1.4-27.2l2.2-42.5c0,0-0.5-2.5-1.2-2.7
				C389.1,111.7,387.5,110.2,385.9,110.2z"/>
			<ellipse id="hjem-knap_4_" class="st17" cx="367.6" cy="179.8" rx="3.2" ry="3"/>
			<polygon class="st20" points="351.9,163.3 351.1,175.7 385.1,176.4 385.6,164 			"/>
			<line class="st20" x1="387.8" y1="126" x2="354.1" y2="125.5"/>
			<polygon class="st20" points="387.8,126 388.3,117.3 354.8,116.9 354.1,125.5 			"/>
			<ellipse class="st21" cx="368.3" cy="171.7" rx="3.3" ry="3.3"/>
			<ellipse class="st22" cx="368.1" cy="171.6" rx="2.2" ry="2.2"/>
			<ellipse class="st23" cx="380.5" cy="173.2" rx="1.2" ry="1.2"/>
			<ellipse class="st24" cx="381.5" cy="171.9" rx="1.4" ry="1.4"/>
			<ellipse class="st25" cx="382.3" cy="173.3" rx="1.3" ry="1.3"/>
			<rect x="365.6" y="165.2" class="st19" width="5.8" height="2.8"/>
			<text transform="matrix(0.99 0 0 1 365.6042 166.3008)" class="st51 st52 st53">PHOTO</text>
			<line class="st20" x1="354.1" y1="125.5" x2="385.6" y2="164.1"/>
			<path class="st4" d="M396.1,148.2c-0.3-4.9-3.4-6.3-3.4-6.3c-8.3-2.7-9.3,3.7-6.3,6.9c2.7,2.9,8.5,0.1,9.6-0.4
				C396,148.3,396.1,148.2,396.1,148.2z"/>
			<path class="st5" d="M386.1,143.6c0.2,0.7,1,3.2,2.4,4.2c0,0,2.7-0.5,2.9-2c0.3-1.6-2.2-3.7-2.7-3.7
				C388.3,142.1,386.9,142.1,386.1,143.6z"/>
			<path class="st2" d="M387.2,172.8c0,0,7.7-4.8,7.7-5.8c1.6-2.2-3.1-1.5-7.3-2.2c-2.9-0.5,0,0,0,0L387.2,172.8"/>
			<path class="st4" d="M396.2,160.4c0,0,0.8,2.9-0.9,6c0,0-6.7-0.4-7.6-1.6c-1-1.2-2.2-5.7,0.5-7.9c0,0,1.2-1.5,6.4,1.2
				C395.2,158.9,395.8,159.6,396.2,160.4z"/>
			<path class="st5" d="M388.8,156.9c0,0-1.5,3.5-1.2,4.2c0,0,3.9,1.5,3.9,0.7c0-0.7,1.2-3,0.5-3.7C392,158.1,391,156.9,388.8,156.9
				z"/>
			<path id="tommelfinger_4_" class="st4" d="M352.8,153.6c-0.9-0.5,12.2-0.8,15.5-0.9c5.4-0.1,10.6,14.5,6.9,19.9
				c-2.3,3.3-9-4.1-6-7.1c0.4-0.4-1.2-1.3-1.7-1.1c-1.4,0.6-4.5,1.9-6.1,1.7c-0.5-0.1-1,0-1.5,0.2l-1.4,0.5
				c-0.5,0.2-0.9,0.5-1.2,0.9l-13.2,17c-0.1,0.2-2.4,2.2-2.6,2.4c-1.3,1-8,7-13.4,5.7c-1-0.2-2-1.6-3-2c-0.4-0.2-1.6-2.1-2.4-2.7
				c-0.2-0.1-8.4-8.3-8.6-8.4C313,178.4,353.3,153.9,352.8,153.6z"/>
			<path class="st5" d="M375.3,172.2c0,0-1.3,0.2-1.3-0.3l0.4-5.1c0,0,1.3-1.1,1.6,0.1C376,166.9,375.8,171.9,375.3,172.2z"/>
			<path class="st2" d="M395.9,148c-2.4,1.2-7.8,1.5-7.8,1.5l-0.2,7.7c3.6-2.1,7.1-7.3,8.1-8.8V148z"/>
			<rect x="300" y="105" class="st19" width="100" height="105"/>
		</g>
		<polygon class="st20" points="387.8,126 388.3,117.3 354.8,116.8 354.1,125.5 		"/>
		<circle id="kamera_6_" class="st18" cx="366.2" cy="114.8" r="0.6"/>

			<ellipse id="kamera2_6_" transform="matrix(0.7071 -0.7071 0.7071 0.7071 29.1835 295.923)" class="st18" cx="371.8" cy="112.7" rx="0.6" ry="0.7"/>
	</g>
</g>
</svg>
