<?xml version="1.0" encoding="utf-8"?>
<!-- Generator: Adobe Illustrator 22.0.0, SVG Export Plug-In . SVG Version: 6.00 Build 0)  -->
<svg version="1.1" xmlns="http://www.w3.org/2000/svg" xmlns:xlink="http://www.w3.org/1999/xlink" x="0px" y="0px"
	 viewBox="0 0 1366 768" style="enable-background:new 0 0 1366 768;" xml:space="preserve">
<style type="text/css">
	.st0{fill:none;}
	.st1{fill:#F9F9E1;}
	.st2{font-family:'Roboto-Bold';}
	.st3{font-size:30px;}
	.st4{fill:#89CCE5;}
	.st5{fill:#F29E19;}
	.st6{font-family:'KohinoorDevanagari-Book';}
	.st7{fill:#C61C5D;}
	.st8{font-size:48px;}
</style>
<g id="Layer_1">
	<g id="VPHw9y.tif">

			<image style="overflow:visible;" width="1200" height="482" id="Layer_0" xlink:href="95D968BA.png"  transform="matrix(0.2858 0 0 0.2858 940 143)">
		</image>
	</g>
	<rect x="949" y="147" class="st0" width="329" height="103"/>
	<text transform="matrix(1 0 0 1 975.1821 204.2998)" class="st1 st2 st3">GRIN MED FLOKKEN </text>
</g>
<g id="Layer_2">
	<g id="RwByCk.tif">

			<image style="overflow:visible;" width="1200" height="564" id="Layer_0_4_" xlink:href="95D968BE.png"  transform="matrix(0.2883 0 0 0.2883 892 413)">
		</image>
	</g>
	<rect x="925.5" y="426.3" class="st0" width="283.5" height="100.7"/>
	<text transform="matrix(1 0 0 1 939.3906 448.8154)"><tspan x="0" y="0" class="st1 st2 st3">OVERTAL VENNEN</tspan><tspan x="22.7" y="36" class="st1 st2 st3"> TIL AT SLETTE </tspan><tspan x="42.4" y="72" class="st1 st2 st3">BILLEDERNE</tspan></text>
</g>
<g id="Layer_3">
	<g>
		<path class="st4" d="M683.5,243.5h-249c-6.6,0-12-5.4-12-12v-103c0-6.6,5.4-12,12-12h249c6.6,0,12,5.4,12,12v103
			C695.5,238.1,690.1,243.5,683.5,243.5z"/>
		<g>
			<path class="st5" d="M683.5,238.5c-16.5,0-33,0-49.5,0c-33.8,0-67.5,0-101.3,0c-28.1,0-56.3,0-84.4,0c-4.6,0-9.3,0.4-13.8,0
				c-6.3-0.5-7-5.6-7-10.6c0-5.5,0-11,0-16.5c0-16.9,0-33.9,0-50.8c0-10.5-0.7-21.3,0-31.8c0.5-8.5,9.1-7.2,15.1-7.2
				c10.4,0,20.8,0,31.2,0c32.9,0,65.8,0,98.7,0c30.1,0,60.1,0,90.2,0c6.6,0,13.3-0.1,19.9,0c9.9,0.2,8,10.8,8,17.7
				c0,29.6,0,59.2,0,88.8C690.5,232.9,689.8,238.2,683.5,238.5c-6.4,0.3-6.4,10.3,0,10c9.9-0.5,16.7-7.8,17-17.6
				c0.1-4.3,0-8.5,0-12.8c0-17,0-34,0-51c0-12.5,0.2-25.1,0-37.7c-0.1-8.7-5.4-16.3-14.4-17.8c-2-0.3-4-0.2-6.1-0.2
				c-24.3,0-48.5,0-72.8,0c-36,0-72,0-107.9,0c-21.3,0-42.6-0.3-63.9,0c-6.4,0.1-12.3,2.8-15.6,8.4c-2.5,4.3-2.3,9-2.3,13.7
				c0,15.3,0,30.6,0,45.8c0,15.4,0,30.7,0,46.1c0,4.3-0.3,8.7,1.5,12.8c2.9,6.6,9.3,10,16.3,10.1c21,0.3,42.1,0,63.1,0
				c35.8,0,71.6,0,107.4,0c24.6,0,49.3,0,73.9,0c1.2,0,2.5,0,3.7,0C689.9,248.5,689.9,238.5,683.5,238.5z"/>
		</g>
	</g>
	<rect x="435.5" y="128.3" class="st0" width="247.5" height="102.9"/>
	<text id="HVORDAN_SKAL_OSKAR__REAGERE_x3F_" transform="matrix(1 0 0 1 458.6865 149.6157)"><tspan x="0" y="0" class="st1 st6 st3">HVORDAN SKAL</tspan><tspan x="57.4" y="36" class="st1 st6 st3">OSKAR </tspan><tspan x="37.3" y="72" class="st1 st6 st3">REAGERE?</tspan></text>
</g>
<g id="Layer_4">
	<g>
		<path class="st4" d="M843.5,418.5h-249c-6.6,0-12-5.4-12-12v-103c0-6.6,5.4-12,12-12h249c6.6,0,12,5.4,12,12v103
			C855.5,413.1,850.1,418.5,843.5,418.5z"/>
		<g>
			<path class="st7" d="M843.5,413.5c-16.5,0-33,0-49.5,0c-33.8,0-67.5,0-101.3,0c-28.1,0-56.3,0-84.4,0c-4.6,0-9.3,0.4-13.8,0
				c-6.3-0.5-7-5.6-7-10.6c0-5.5,0-11,0-16.5c0-16.9,0-33.9,0-50.8c0-10.5-0.7-21.3,0-31.8c0.5-8.5,9.1-7.2,15.1-7.2
				c10.4,0,20.8,0,31.2,0c32.9,0,65.8,0,98.7,0c30.1,0,60.1,0,90.2,0c6.6,0,13.3-0.1,19.9,0c9.9,0.2,8,10.8,8,17.7
				c0,29.6,0,59.2,0,88.8C850.5,407.9,849.8,413.2,843.5,413.5c-6.4,0.3-6.4,10.3,0,10c9.9-0.5,16.7-7.8,17-17.6
				c0.1-4.3,0-8.5,0-12.8c0-17,0-34,0-51c0-12.5,0.2-25.1,0-37.7c-0.1-8.7-5.4-16.3-14.4-17.8c-2-0.3-4-0.2-6.1-0.2
				c-24.3,0-48.5,0-72.8,0c-36,0-72,0-107.9,0c-21.3,0-42.6-0.3-63.9,0c-6.4,0.1-12.3,2.8-15.6,8.4c-2.5,4.3-2.3,9-2.3,13.7
				c0,15.3,0,30.6,0,45.8c0,15.4,0,30.7,0,46.1c0,4.3-0.3,8.7,1.5,12.8c2.9,6.6,9.3,10,16.3,10.1c21,0.3,42.1,0,63.1,0
				c35.8,0,71.6,0,107.4,0c24.6,0,49.3,0,73.9,0c1.2,0,2.5,0,3.7,0C849.9,423.5,849.9,413.5,843.5,413.5z"/>
		</g>
	</g>
	<rect x="595.5" y="275" class="st0" width="247.5" height="131.2"/>
	<text transform="matrix(1 0 0 1 655.9619 366.6797)" class="st7 st6 st8">START</text>
</g>
<g id="Layer_5">
	<g>
		<path class="st4" d="M683.5,589.5h-249c-6.6,0-12-5.4-12-12v-103c0-6.6,5.4-12,12-12h249c6.6,0,12,5.4,12,12v103
			C695.5,584.1,690.1,589.5,683.5,589.5z"/>
		<g>
			<path class="st7" d="M683.5,584.5c-16.5,0-33,0-49.5,0c-33.8,0-67.5,0-101.3,0c-28.1,0-56.3,0-84.4,0c-4.6,0-9.3,0.4-13.8,0
				c-6.3-0.5-7-5.6-7-10.6c0-5.5,0-11,0-16.5c0-16.9,0-33.9,0-50.8c0-10.5-0.7-21.3,0-31.8c0.5-8.5,9.1-7.2,15.1-7.2
				c10.4,0,20.8,0,31.2,0c32.9,0,65.8,0,98.7,0c30.1,0,60.1,0,90.2,0c6.6,0,13.3-0.1,19.9,0c9.9,0.2,8,10.8,8,17.7
				c0,29.6,0,59.2,0,88.8C690.5,578.9,689.8,584.2,683.5,584.5c-6.4,0.3-6.4,10.3,0,10c9.9-0.5,16.7-7.8,17-17.6
				c0.1-4.3,0-8.5,0-12.8c0-17,0-34,0-51c0-12.5,0.2-25.1,0-37.7c-0.1-8.7-5.4-16.3-14.4-17.8c-2-0.3-4-0.2-6.1-0.2
				c-24.3,0-48.5,0-72.8,0c-36,0-72,0-107.9,0c-21.3,0-42.6-0.3-63.9,0c-6.4,0.1-12.3,2.8-15.6,8.4c-2.5,4.3-2.3,9-2.3,13.7
				c0,15.3,0,30.6,0,45.8c0,15.4,0,30.7,0,46.1c0,4.3-0.3,8.7,1.5,12.8c2.9,6.6,9.3,10,16.3,10.1c21,0.3,42.1,0,63.1,0
				c35.8,0,71.6,0,107.4,0c24.6,0,49.3,0,73.9,0c1.2,0,2.5,0,3.7,0C689.9,594.5,689.9,584.5,683.5,584.5z"/>
		</g>
	</g>
	<rect x="435.5" y="446" class="st0" width="247.5" height="131.2"/>
	<text transform="matrix(1 0 0 1 508.6343 537.6797)" class="st7 st6 st8">SLUT</text>
</g>
</svg>
